<svg width="505" height="130" viewBox="0 0 505 130" fill="none" xmlns="http://www.w3.org/2000/svg">
<rect width="505" height="130" fill="white"/>
<path d="M193.996 53.5359H202.156V61.1199C202.156 59.6479 202.796 58.2719 204.076 56.9919C205.356 55.6479 206.988 54.5919 208.972 53.8239C210.956 52.9919 212.908 52.5759 214.828 52.5759H219.052V59.9679H214.252C210.156 59.9679 207.18 60.5119 205.324 61.5999C203.532 62.6239 202.636 64.5119 202.636 67.2639V99.9999H193.996V53.5359Z" fill="black"/>
<path d="M158.563 100.96C154.147 100.96 150.723 100.544 148.291 99.7119C145.923 98.8799 144.195 97.4079 143.107 95.2959C142.083 93.1839 141.571 90.1439 141.571 86.1759C141.571 82.6559 142.051 79.9359 143.011 78.0159C144.035 76.0319 145.731 74.6239 148.099 73.7919C150.531 72.9599 153.955 72.5439 158.371 72.5439H172.291V65.1519C172.291 63.4239 171.939 62.1119 171.235 61.2159C170.595 60.2559 169.475 59.5839 167.875 59.1999C166.339 58.8159 164.067 58.6239 161.059 58.6239C156.259 58.6239 150.947 59.0079 145.123 59.7759V53.4399C151.459 52.8639 157.187 52.5759 162.307 52.5759C167.683 52.5759 171.651 52.9919 174.211 53.8239C176.771 54.5919 178.531 55.9679 179.491 57.9519C180.451 59.9359 180.931 63.0079 180.931 67.1679V99.9999H172.579V95.5839C171.875 99.1679 167.203 100.96 158.563 100.96ZM160.003 95.2959C163.139 95.2959 165.795 95.0719 167.971 94.6239C170.851 94.0479 172.291 92.7039 172.291 90.5919V77.9199H158.947C156.195 77.9199 154.211 78.1439 152.995 78.5919C151.779 78.9759 150.979 79.7439 150.595 80.8959C150.211 82.0479 150.019 83.9039 150.019 86.4639C150.019 88.7679 150.243 90.5599 150.691 91.8399C151.139 93.0559 151.939 93.9519 153.091 94.5279C154.243 95.0399 155.971 95.2959 158.275 95.2959H160.003Z" fill="black"/>
<path d="M114.388 100.96C100.18 100.96 93.0762 96.2239 93.0762 86.7519V68.4159C93.0762 62.7839 94.6762 58.7519 97.8762 56.3199C101.14 53.8239 106.388 52.5759 113.62 52.5759C120.468 52.5759 125.396 53.7599 128.404 56.1279C131.476 58.4959 133.012 62.5919 133.012 68.4159V78.6879H101.812V85.6959C101.812 88.8959 102.932 91.1999 105.172 92.6079C107.412 94.0159 110.868 94.7199 115.54 94.7199C119.956 94.7199 125.172 93.9519 131.188 92.4159V99.0399C125.3 100.32 119.7 100.96 114.388 100.96ZM124.372 73.0239V65.7279C124.372 62.9119 123.508 60.9919 121.78 59.9679C120.116 58.8799 117.236 58.3359 113.14 58.3359C109.172 58.3359 106.292 58.8799 104.5 59.9679C102.708 60.9919 101.812 62.9119 101.812 65.7279V73.0239H124.372Z" fill="black"/>
<path d="M73.0991 32.8H81.7391V100H73.0991V32.8Z" fill="black"/>
<path d="M49.2078 100.96C46.0078 100.96 43.6718 100.896 42.1998 100.768C40.7918 100.64 39.1598 100.32 37.3038 99.8079C35.3198 99.2959 33.7838 98.5279 32.6958 97.5039C31.6078 96.4799 30.6798 94.9759 29.9118 92.9919C29.1438 91.0719 28.7598 88.6719 28.7598 85.7919V68.7039C28.7598 63.5199 29.7518 59.8079 31.7358 57.5679C32.8238 56.2879 33.9118 55.3279 34.9998 54.6879C36.1518 53.9839 37.6238 53.5039 39.4158 53.2479C41.2078 52.9919 42.8078 52.8319 44.2158 52.7679C45.6238 52.6399 47.6078 52.5759 50.1678 52.5759C54.5838 52.5759 58.9998 53.0559 63.4158 54.0159V60.3519C58.2958 59.0719 53.5278 58.4319 49.1118 58.4319C45.7838 58.4319 43.3198 58.6879 41.7198 59.1999C40.1838 59.6479 39.0958 60.5119 38.4558 61.7919C37.8798 63.0079 37.5918 64.8959 37.5918 67.4559V86.4639C37.5918 88.8319 37.9118 90.5919 38.5518 91.7439C39.2558 92.8959 40.4718 93.7279 42.1998 94.2399C43.9918 94.6879 46.6158 94.9119 50.0718 94.9119C54.7438 94.9119 59.4158 94.3039 64.0878 93.0879V99.6159C59.7358 100.512 54.7758 100.96 49.2078 100.96Z" fill="black"/>
</svg>
