<svg width="460" height="120" viewBox="0 0 460 120" fill="none" xmlns="http://www.w3.org/2000/svg">
<rect width="460" height="120" fill="white"/>
<path d="M405.506 94.116C400.794 94.116 396.795 93.031 393.509 90.861C390.223 88.629 387.681 85.591 385.883 81.747C384.147 77.841 383.279 73.377 383.279 68.355C383.279 63.333 384.147 58.9 385.883 55.056C387.619 51.15 390.099 48.112 393.323 45.942C396.609 43.71 400.546 42.594 405.134 42.594C409.536 42.594 413.349 43.648 416.573 45.756C419.797 47.864 422.246 50.84 423.92 54.684C425.656 58.528 426.524 63.023 426.524 68.169V70.122H389.696C389.944 75.95 391.463 80.445 394.253 83.607C397.043 86.707 400.794 88.257 405.506 88.257C409.102 88.257 412.047 87.389 414.341 85.653C416.635 83.917 418.216 81.623 419.084 78.771L425.687 79.236C424.447 83.576 422.06 87.141 418.526 89.931C414.992 92.721 410.652 94.116 405.506 94.116ZM389.696 64.635H419.828C419.518 59.365 418.061 55.366 415.457 52.638C412.853 49.848 409.412 48.453 405.134 48.453C400.856 48.453 397.353 49.848 394.625 52.638C391.897 55.428 390.254 59.427 389.696 64.635Z" fill="black"/>
<path d="M370.796 93C366.766 93 363.79 92.07 361.868 90.21C359.946 88.288 358.985 85.374 358.985 81.468V32.178H365.123V81.282C365.123 83.576 365.619 85.188 366.611 86.118C367.665 87.048 369.246 87.513 371.354 87.513H377.864V93H370.796ZM351.266 49.197V43.71H377.864V49.197H351.266Z" fill="black"/>
<path d="M319.86 94.116C314.9 94.116 310.932 92.938 307.956 90.582C304.98 88.164 303.492 84.909 303.492 80.817C303.492 76.725 304.794 73.501 307.398 71.145C310.002 68.789 313.815 67.146 318.837 66.216L337.065 62.775C337.065 57.877 336.011 54.281 333.903 51.987C331.795 49.631 328.602 48.453 324.324 48.453C320.542 48.453 317.535 49.352 315.303 51.15C313.071 52.948 311.583 55.49 310.839 58.776L304.329 58.218C305.259 53.444 307.429 49.662 310.839 46.872C314.311 44.02 318.806 42.594 324.324 42.594C330.462 42.594 335.143 44.33 338.367 47.802C341.591 51.274 343.203 56.234 343.203 62.682V83.235C343.203 84.909 343.451 86.056 343.947 86.676C344.505 87.234 345.373 87.513 346.551 87.513H348.039V93C347.791 93.062 347.419 93.093 346.923 93.093C346.489 93.155 346.024 93.186 345.528 93.186C343.606 93.186 341.994 92.845 340.692 92.163C339.452 91.481 338.522 90.365 337.902 88.815C337.344 87.265 337.065 85.126 337.065 82.398L337.809 82.491C337.251 84.661 336.104 86.645 334.368 88.443C332.694 90.179 330.586 91.574 328.044 92.628C325.502 93.62 322.774 94.116 319.86 94.116ZM320.418 88.629C323.828 88.629 326.773 87.947 329.253 86.583C331.733 85.219 333.655 83.39 335.019 81.096C336.383 78.74 337.065 76.105 337.065 73.191V68.262L320.139 71.424C316.605 72.106 314.001 73.16 312.327 74.586C310.715 76.012 309.909 77.903 309.909 80.259C309.909 82.925 310.839 85.002 312.699 86.49C314.559 87.916 317.132 88.629 320.418 88.629Z" fill="black"/>
<path d="M277.617 93V43.71H282.918L283.29 57.195L282.453 56.73C283.259 52.328 284.716 49.073 286.824 46.965C288.932 44.795 291.846 43.71 295.566 43.71H299.844V49.662H295.38C292.9 49.662 290.792 50.22 289.056 51.336C287.32 52.39 285.987 53.909 285.057 55.893C284.189 57.877 283.755 60.233 283.755 62.961V93H277.617Z" fill="black"/>
<path d="M246.567 94.116C241.855 94.116 237.856 93.031 234.57 90.861C231.284 88.629 228.742 85.591 226.944 81.747C225.208 77.841 224.34 73.377 224.34 68.355C224.34 63.333 225.208 58.9 226.944 55.056C228.68 51.15 231.16 48.112 234.384 45.942C237.67 43.71 241.607 42.594 246.195 42.594C250.597 42.594 254.41 43.648 257.634 45.756C260.858 47.864 263.307 50.84 264.981 54.684C266.717 58.528 267.585 63.023 267.585 68.169V70.122H230.757C231.005 75.95 232.524 80.445 235.314 83.607C238.104 86.707 241.855 88.257 246.567 88.257C250.163 88.257 253.108 87.389 255.402 85.653C257.696 83.917 259.277 81.623 260.145 78.771L266.748 79.236C265.508 83.576 263.121 87.141 259.587 89.931C256.053 92.721 251.713 94.116 246.567 94.116ZM230.757 64.635H260.889C260.579 59.365 259.122 55.366 256.518 52.638C253.914 49.848 250.473 48.453 246.195 48.453C241.917 48.453 238.414 49.848 235.686 52.638C232.958 55.428 231.315 59.427 230.757 64.635Z" fill="black"/>
<path d="M196.612 94.116C192.892 94.116 189.637 93.186 186.847 91.326C184.057 89.404 181.98 86.924 180.616 83.886L180.337 93H174.943V26.97H181.081V52.359C182.321 49.693 184.305 47.399 187.033 45.477C189.761 43.555 192.954 42.594 196.612 42.594C200.89 42.594 204.579 43.648 207.679 45.756C210.841 47.864 213.29 50.84 215.026 54.684C216.762 58.528 217.63 63.085 217.63 68.355C217.63 73.625 216.762 78.182 215.026 82.026C213.29 85.87 210.841 88.846 207.679 90.954C204.579 93.062 200.89 94.116 196.612 94.116ZM196.333 88.257C200.859 88.257 204.455 86.49 207.121 82.956C209.787 79.36 211.12 74.493 211.12 68.355C211.12 62.217 209.787 57.381 207.121 53.847C204.455 50.251 200.89 48.453 196.426 48.453C193.264 48.453 190.536 49.29 188.242 50.964C185.948 52.576 184.181 54.87 182.941 57.846C181.701 60.822 181.081 64.325 181.081 68.355C181.081 72.323 181.701 75.826 182.941 78.864C184.181 81.84 185.917 84.165 188.149 85.839C190.443 87.451 193.171 88.257 196.333 88.257Z" fill="black"/>
<path d="M156.165 93V43.71H162.303V93H156.165ZM155.979 35.526V27.249H162.489V35.526H155.979Z" fill="black"/>
<path d="M142.957 93C140.167 93 137.966 92.318 136.354 90.954C134.742 89.528 133.936 87.327 133.936 84.351V26.97H140.074V83.886C140.074 85.064 140.384 85.963 141.004 86.583C141.624 87.203 142.554 87.513 143.794 87.513H147.7V93H142.957Z" fill="black"/>
<path d="M102.25 94.116C97.5384 94.116 93.5394 93.031 90.2534 90.861C86.9674 88.629 84.4254 85.591 82.6274 81.747C80.8914 77.841 80.0234 73.377 80.0234 68.355C80.0234 63.333 80.8914 58.9 82.6274 55.056C84.3634 51.15 86.8434 48.112 90.0674 45.942C93.3534 43.71 97.2904 42.594 101.878 42.594C106.28 42.594 110.093 43.648 113.317 45.756C116.541 47.864 118.99 50.84 120.664 54.684C122.4 58.528 123.268 63.023 123.268 68.169V70.122H86.4404C86.6884 75.95 88.2074 80.445 90.9974 83.607C93.7874 86.707 97.5384 88.257 102.25 88.257C105.846 88.257 108.791 87.389 111.085 85.653C113.379 83.917 114.96 81.623 115.828 78.771L122.431 79.236C121.191 83.576 118.804 87.141 115.27 89.931C111.736 92.721 107.396 94.116 102.25 94.116ZM86.4404 64.635H116.572C116.262 59.365 114.805 55.366 112.201 52.638C109.597 49.848 106.156 48.453 101.878 48.453C97.6004 48.453 94.0974 49.848 91.3694 52.638C88.6414 55.428 86.9984 59.427 86.4404 64.635Z" fill="black"/>
<path d="M48.0163 94.116C43.7383 94.116 40.0493 93.062 36.9493 90.954C33.8493 88.846 31.4623 85.87 29.7883 82.026C28.1143 78.182 27.2773 73.625 27.2773 68.355C27.2773 63.085 28.1143 58.528 29.7883 54.684C31.4623 50.84 33.8493 47.864 36.9493 45.756C40.0493 43.648 43.7383 42.594 48.0163 42.594C51.6123 42.594 54.8053 43.493 57.5953 45.291C60.4473 47.027 62.5243 49.383 63.8263 52.359V26.97H69.9643V93H64.5703L64.2913 83.793C62.9273 87.017 60.7573 89.559 57.7813 91.419C54.8673 93.217 51.6123 94.116 48.0163 94.116ZM49.0393 88.257C52.1393 88.257 54.7743 87.451 56.9443 85.839C59.1763 84.165 60.8813 81.84 62.0593 78.864C63.2373 75.826 63.8263 72.323 63.8263 68.355C63.8263 64.387 63.2373 60.915 62.0593 57.939C60.8813 54.963 59.1763 52.638 56.9443 50.964C54.7743 49.29 52.1393 48.453 49.0393 48.453C44.3893 48.453 40.6693 50.251 37.8793 53.847C35.0893 57.381 33.6943 62.217 33.6943 68.355C33.6943 74.431 35.0893 79.267 37.8793 82.863C40.6693 86.459 44.3893 88.257 49.0393 88.257Z" fill="black"/>
</svg>
