<svg width="506" height="128" viewBox="0 0 506 128" fill="none" xmlns="http://www.w3.org/2000/svg">
<path d="M443.321 101.308C438.235 101.308 433.729 100.145 429.805 97.8199C425.954 95.4946 422.938 92.2609 420.758 88.1189C418.578 83.9769 417.488 79.1446 417.488 73.6219C417.488 68.1719 418.542 63.3759 420.649 59.2339C422.829 55.0192 425.809 51.7492 429.587 49.4239C433.366 47.0259 437.762 45.8269 442.776 45.8269C447.572 45.8269 451.751 46.8806 455.311 48.9879C458.945 51.0952 461.742 54.0382 463.704 57.8169C465.739 61.5229 466.756 65.8829 466.756 70.8969V74.6029H421.63L421.848 69.1529H459.235C459.235 64.0662 457.709 59.9969 454.657 56.9449C451.678 53.8202 447.718 52.2579 442.776 52.2579C439.143 52.2579 435.946 53.0936 433.184 54.7649C430.496 56.4362 428.425 58.8342 426.971 61.9589C425.518 65.0109 424.791 68.6442 424.791 72.8589C424.791 79.8349 426.39 85.2486 429.587 89.0999C432.857 92.9512 437.472 94.8769 443.43 94.8769C447.718 94.8769 451.242 93.9686 454.003 92.1519C456.765 90.3352 458.618 87.6829 459.562 84.1949H466.756C465.376 89.7176 462.687 93.9686 458.69 96.9479C454.694 99.8546 449.571 101.308 443.321 101.308Z" fill="black"/>
<path d="M385.555 47.2439H414.113V53.5659H385.555V47.2439ZM403.54 99.9999H396.128V30.5669H403.54V99.9999Z" fill="black"/>
<path d="M352.782 101.308C347.187 101.308 342.791 99.8546 339.593 96.9479C336.469 94.0412 334.906 90.2989 334.906 85.7209C334.906 80.8522 336.65 76.9646 340.138 74.0579C343.626 71.1512 348.459 69.4436 354.635 68.9349L372.075 67.5179V65.7739C372.075 62.2859 371.458 59.5609 370.222 57.5989C368.987 55.5642 367.316 54.1472 365.208 53.3479C363.101 52.5486 360.739 52.1489 358.123 52.1489C353.473 52.1489 349.876 53.1299 347.332 55.0919C344.789 57.0539 343.517 59.8152 343.517 63.3759H336.65C336.65 59.8152 337.559 56.7269 339.375 54.1109C341.192 51.4949 343.735 49.4602 347.005 48.0069C350.275 46.5536 354.054 45.8269 358.341 45.8269C362.483 45.8269 366.117 46.5536 369.241 48.0069C372.366 49.3876 374.837 51.5676 376.653 54.5469C378.543 57.4536 379.487 61.2322 379.487 65.8829V99.9999H373.165L372.184 90.7349C370.586 94.0776 368.042 96.6936 364.554 98.5829C361.139 100.4 357.215 101.308 352.782 101.308ZM354.526 95.2039C360.122 95.2039 364.445 93.4236 367.497 89.8629C370.549 86.3022 372.075 81.6879 372.075 76.0199V73.1859L356.488 74.3849C351.547 74.8209 347.986 76.0562 345.806 78.0909C343.626 80.1256 342.536 82.5962 342.536 85.5029C342.536 88.7002 343.626 91.1346 345.806 92.8059C347.986 94.4046 350.893 95.2039 354.526 95.2039Z" fill="black"/>
<path d="M331.942 46.5899V53.3479H327.8C322.932 53.3479 319.044 54.8376 316.137 57.8169C313.303 60.7963 311.886 64.8293 311.886 69.9159V99.9999H304.365V47.2439H311.45L312.104 57.5989H311.341C312.068 54.1836 313.848 51.4223 316.682 49.3149C319.516 47.1349 322.968 46.0449 327.037 46.0449C327.837 46.0449 328.636 46.0813 329.435 46.1539C330.235 46.2266 331.07 46.3719 331.942 46.5899Z" fill="black"/>
<path d="M271.085 101.308C265.998 101.308 261.493 100.145 257.569 97.8199C253.718 95.4946 250.702 92.2609 248.522 88.1189C246.342 83.9769 245.252 79.1446 245.252 73.6219C245.252 68.1719 246.306 63.3759 248.413 59.2339C250.593 55.0192 253.572 51.7492 257.351 49.4239C261.13 47.0259 265.526 45.8269 270.54 45.8269C275.336 45.8269 279.514 46.8806 283.075 48.9879C286.708 51.0952 289.506 54.0382 291.468 57.8169C293.503 61.5229 294.52 65.8829 294.52 70.8969V74.6029H249.394L249.612 69.1529H286.999C286.999 64.0662 285.473 59.9969 282.421 56.9449C279.442 53.8202 275.481 52.2579 270.54 52.2579C266.907 52.2579 263.709 53.0936 260.948 54.7649C258.259 56.4362 256.188 58.8342 254.735 61.9589C253.282 65.0109 252.555 68.6442 252.555 72.8589C252.555 79.8349 254.154 85.2486 257.351 89.0999C260.621 92.9512 265.235 94.8769 271.194 94.8769C275.481 94.8769 279.006 93.9686 281.767 92.1519C284.528 90.3352 286.381 87.6829 287.326 84.1949H294.52C293.139 89.7176 290.451 93.9686 286.454 96.9479C282.457 99.8546 277.334 101.308 271.085 101.308Z" fill="black"/>
<path d="M194.024 100H187.484V20.5391H195.005V57.4901C196.822 53.5661 199.438 50.6594 202.853 48.7701C206.341 46.8081 210.338 45.8271 214.843 45.8271C220.003 45.8271 224.363 47.0624 227.923 49.5331C231.557 51.9311 234.318 55.2374 236.207 59.4521C238.169 63.6667 239.15 68.4264 239.15 73.7311C239.15 78.9631 238.169 83.6864 236.207 87.9011C234.245 92.0431 231.448 95.3131 227.814 97.7111C224.181 100.109 219.785 101.308 214.625 101.308C210.265 101.308 206.341 100.327 202.853 98.3651C199.365 96.3304 196.677 93.2784 194.787 89.2091L194.024 100ZM195.114 73.5131C195.114 77.5824 195.841 81.2157 197.294 84.4131C198.748 87.5377 200.819 90.0084 203.507 91.8251C206.269 93.5691 209.575 94.4411 213.426 94.4411C217.278 94.4411 220.548 93.5691 223.236 91.8251C225.925 90.0084 227.96 87.5377 229.34 84.4131C230.794 81.2157 231.52 77.5824 231.52 73.5131C231.52 69.4437 230.794 65.8467 229.34 62.7221C227.96 59.5974 225.925 57.1267 223.236 55.3101C220.548 53.4934 217.278 52.5851 213.426 52.5851C209.575 52.5851 206.269 53.4934 203.507 55.3101C200.819 57.1267 198.748 59.5974 197.294 62.7221C195.841 65.8467 195.114 69.4437 195.114 73.5131Z" fill="black"/>
<path d="M166.458 100V47.244H173.979V100H166.458ZM170.164 32.747C168.638 32.747 167.33 32.202 166.24 31.112C165.15 30.022 164.605 28.714 164.605 27.188C164.605 25.662 165.15 24.354 166.24 23.264C167.33 22.1014 168.638 21.52 170.164 21.52C171.69 21.52 172.998 22.1014 174.088 23.264C175.251 24.354 175.832 25.662 175.832 27.188C175.832 28.714 175.251 30.022 174.088 31.112C172.998 32.202 171.69 32.747 170.164 32.747Z" fill="black"/>
<path d="M152.642 100H145.121V20.5391H152.642V100Z" fill="black"/>
<path d="M111.515 101.308C106.428 101.308 101.923 100.145 97.9986 97.8199C94.1473 95.4946 91.1316 92.2609 88.9516 88.1189C86.7716 83.9769 85.6816 79.1446 85.6816 73.6219C85.6816 68.1719 86.7353 63.3759 88.8426 59.2339C91.0226 55.0192 94.002 51.7492 97.7806 49.4239C101.559 47.0259 105.956 45.8269 110.97 45.8269C115.766 45.8269 119.944 46.8806 123.505 48.9879C127.138 51.0952 129.936 54.0382 131.898 57.8169C133.932 61.5229 134.95 65.8829 134.95 70.8969V74.6029H89.8236L90.0416 69.1529H127.429C127.429 64.0662 125.903 59.9969 122.851 56.9449C119.871 53.8202 115.911 52.2579 110.97 52.2579C107.336 52.2579 104.139 53.0936 101.378 54.7649C98.689 56.4362 96.618 58.8342 95.1646 61.9589C93.7113 65.0109 92.9846 68.6442 92.9846 72.8589C92.9846 79.8349 94.5833 85.2486 97.7806 89.0999C101.051 92.9512 105.665 94.8769 111.624 94.8769C115.911 94.8769 119.435 93.9686 122.197 92.1519C124.958 90.3352 126.811 87.6829 127.756 84.1949H134.95C133.569 89.7176 130.88 93.9686 126.884 96.9479C122.887 99.8546 117.764 101.308 111.515 101.308Z" fill="black"/>
<path d="M48.623 101.308C43.5364 101.308 39.1764 100.109 35.543 97.7111C31.9097 95.3131 29.112 92.0431 27.15 87.9011C25.188 83.6864 24.207 78.9631 24.207 73.7311C24.207 68.4264 25.188 63.6667 27.15 59.4521C29.112 55.2374 31.9097 51.9311 35.543 49.5331C39.249 47.0624 43.718 45.8271 48.95 45.8271C53.31 45.8271 57.1614 46.7717 60.504 48.6611C63.9194 50.5504 66.5354 53.4207 68.352 57.2721V20.5391H75.873V100H69.333L68.57 89.2091C66.6807 93.2784 63.992 96.3304 60.504 98.3651C57.016 100.327 53.0557 101.308 48.623 101.308ZM49.931 94.4411C53.855 94.4411 57.1614 93.5691 59.85 91.8251C62.5387 90.0084 64.6097 87.5377 66.063 84.4131C67.5164 81.2157 68.243 77.5824 68.243 73.5131C68.243 69.4437 67.5164 65.8467 66.063 62.7221C64.6097 59.5974 62.5387 57.1267 59.85 55.3101C57.1614 53.4934 53.855 52.5851 49.931 52.5851C46.1524 52.5851 42.8824 53.4934 40.121 55.3101C37.4324 57.1267 35.3614 59.5974 33.908 62.7221C32.5274 65.8467 31.837 69.4437 31.837 73.5131C31.837 77.5824 32.5274 81.2157 33.908 84.4131C35.3614 87.5377 37.4324 90.0084 40.121 91.8251C42.8824 93.5691 46.1524 94.4411 49.931 94.4411Z" fill="black"/>
</svg>
