<svg width="410" height="120" viewBox="0 0 410 120" fill="none" xmlns="http://www.w3.org/2000/svg">
<path d="M382.506 94.116C377.794 94.116 373.795 93.031 370.509 90.861C367.223 88.629 364.681 85.591 362.883 81.747C361.147 77.841 360.279 73.377 360.279 68.355C360.279 63.333 361.147 58.9 362.883 55.056C364.619 51.15 367.099 48.112 370.323 45.942C373.609 43.71 377.546 42.594 382.134 42.594C386.536 42.594 390.349 43.648 393.573 45.756C396.797 47.864 399.246 50.84 400.92 54.684C402.656 58.528 403.524 63.023 403.524 68.169V70.122H366.696C366.944 75.95 368.463 80.445 371.253 83.607C374.043 86.707 377.794 88.257 382.506 88.257C386.102 88.257 389.047 87.389 391.341 85.653C393.635 83.917 395.216 81.623 396.084 78.771L402.687 79.236C401.447 83.576 399.06 87.141 395.526 89.931C391.992 92.721 387.652 94.116 382.506 94.116ZM366.696 64.635H396.828C396.518 59.365 395.061 55.366 392.457 52.638C389.853 49.848 386.412 48.453 382.134 48.453C377.856 48.453 374.353 49.848 371.625 52.638C368.897 55.428 367.254 59.427 366.696 64.635Z" fill="black"/>
<path d="M347.796 93C343.766 93 340.79 92.07 338.868 90.21C336.946 88.288 335.985 85.374 335.985 81.468V32.178H342.123V81.282C342.123 83.576 342.619 85.188 343.611 86.118C344.665 87.048 346.246 87.513 348.354 87.513H354.864V93H347.796ZM328.266 49.197V43.71H354.864V49.197H328.266Z" fill="black"/>
<path d="M296.86 94.116C291.9 94.116 287.932 92.938 284.956 90.582C281.98 88.164 280.492 84.909 280.492 80.817C280.492 76.725 281.794 73.501 284.398 71.145C287.002 68.789 290.815 67.146 295.837 66.216L314.065 62.775C314.065 57.877 313.011 54.281 310.903 51.987C308.795 49.631 305.602 48.453 301.324 48.453C297.542 48.453 294.535 49.352 292.303 51.15C290.071 52.948 288.583 55.49 287.839 58.776L281.329 58.218C282.259 53.444 284.429 49.662 287.839 46.872C291.311 44.02 295.806 42.594 301.324 42.594C307.462 42.594 312.143 44.33 315.367 47.802C318.591 51.274 320.203 56.234 320.203 62.682V83.235C320.203 84.909 320.451 86.056 320.947 86.676C321.505 87.234 322.373 87.513 323.551 87.513H325.039V93C324.791 93.062 324.419 93.093 323.923 93.093C323.489 93.155 323.024 93.186 322.528 93.186C320.606 93.186 318.994 92.845 317.692 92.163C316.452 91.481 315.522 90.365 314.902 88.815C314.344 87.265 314.065 85.126 314.065 82.398L314.809 82.491C314.251 84.661 313.104 86.645 311.368 88.443C309.694 90.179 307.586 91.574 305.044 92.628C302.502 93.62 299.774 94.116 296.86 94.116ZM297.418 88.629C300.828 88.629 303.773 87.947 306.253 86.583C308.733 85.219 310.655 83.39 312.019 81.096C313.383 78.74 314.065 76.105 314.065 73.191V68.262L297.139 71.424C293.605 72.106 291.001 73.16 289.327 74.586C287.715 76.012 286.909 77.903 286.909 80.259C286.909 82.925 287.839 85.002 289.699 86.49C291.559 87.916 294.132 88.629 297.418 88.629Z" fill="black"/>
<path d="M254.617 93V43.71H259.918L260.29 57.195L259.453 56.73C260.259 52.328 261.716 49.073 263.824 46.965C265.932 44.795 268.846 43.71 272.566 43.71H276.844V49.662H272.38C269.9 49.662 267.792 50.22 266.056 51.336C264.32 52.39 262.987 53.909 262.057 55.893C261.189 57.877 260.755 60.233 260.755 62.961V93H254.617Z" fill="black"/>
<path d="M223.567 94.116C218.855 94.116 214.856 93.031 211.57 90.861C208.284 88.629 205.742 85.591 203.944 81.747C202.208 77.841 201.34 73.377 201.34 68.355C201.34 63.333 202.208 58.9 203.944 55.056C205.68 51.15 208.16 48.112 211.384 45.942C214.67 43.71 218.607 42.594 223.195 42.594C227.597 42.594 231.41 43.648 234.634 45.756C237.858 47.864 240.307 50.84 241.981 54.684C243.717 58.528 244.585 63.023 244.585 68.169V70.122H207.757C208.005 75.95 209.524 80.445 212.314 83.607C215.104 86.707 218.855 88.257 223.567 88.257C227.163 88.257 230.108 87.389 232.402 85.653C234.696 83.917 236.277 81.623 237.145 78.771L243.748 79.236C242.508 83.576 240.121 87.141 236.587 89.931C233.053 92.721 228.713 94.116 223.567 94.116ZM207.757 64.635H237.889C237.579 59.365 236.122 55.366 233.518 52.638C230.914 49.848 227.473 48.453 223.195 48.453C218.917 48.453 215.414 49.848 212.686 52.638C209.958 55.428 208.315 59.427 207.757 64.635Z" fill="black"/>
<path d="M173.612 94.116C169.892 94.116 166.637 93.186 163.847 91.326C161.057 89.404 158.98 86.924 157.616 83.886L157.337 93H151.943V26.97H158.081V52.359C159.321 49.693 161.305 47.399 164.033 45.477C166.761 43.555 169.954 42.594 173.612 42.594C177.89 42.594 181.579 43.648 184.679 45.756C187.841 47.864 190.29 50.84 192.026 54.684C193.762 58.528 194.63 63.085 194.63 68.355C194.63 73.625 193.762 78.182 192.026 82.026C190.29 85.87 187.841 88.846 184.679 90.954C181.579 93.062 177.89 94.116 173.612 94.116ZM173.333 88.257C177.859 88.257 181.455 86.49 184.121 82.956C186.787 79.36 188.12 74.493 188.12 68.355C188.12 62.217 186.787 57.381 184.121 53.847C181.455 50.251 177.89 48.453 173.426 48.453C170.264 48.453 167.536 49.29 165.242 50.964C162.948 52.576 161.181 54.87 159.941 57.846C158.701 60.822 158.081 64.325 158.081 68.355C158.081 72.323 158.701 75.826 159.941 78.864C161.181 81.84 162.917 84.165 165.149 85.839C167.443 87.451 170.171 88.257 173.333 88.257Z" fill="black"/>
<path d="M133.165 93V43.71H139.303V93H133.165ZM132.979 35.526V27.249H139.489V35.526H132.979Z" fill="black"/>
<path d="M119.957 93C117.167 93 114.966 92.318 113.354 90.954C111.742 89.528 110.936 87.327 110.936 84.351V26.97H117.074V83.886C117.074 85.064 117.384 85.963 118.004 86.583C118.624 87.203 119.554 87.513 120.794 87.513H124.7V93H119.957Z" fill="black"/>
<path d="M79.2504 94.116C74.5384 94.116 70.5394 93.031 67.2534 90.861C63.9674 88.629 61.4254 85.591 59.6274 81.747C57.8914 77.841 57.0234 73.377 57.0234 68.355C57.0234 63.333 57.8914 58.9 59.6274 55.056C61.3634 51.15 63.8434 48.112 67.0674 45.942C70.3534 43.71 74.2904 42.594 78.8784 42.594C83.2804 42.594 87.0934 43.648 90.3174 45.756C93.5414 47.864 95.9904 50.84 97.6644 54.684C99.4004 58.528 100.268 63.023 100.268 68.169V70.122H63.4404C63.6884 75.95 65.2074 80.445 67.9974 83.607C70.7874 86.707 74.5384 88.257 79.2504 88.257C82.8464 88.257 85.7914 87.389 88.0854 85.653C90.3794 83.917 91.9604 81.623 92.8284 78.771L99.4314 79.236C98.1914 83.576 95.8044 87.141 92.2704 89.931C88.7364 92.721 84.3964 94.116 79.2504 94.116ZM63.4404 64.635H93.5724C93.2624 59.365 91.8054 55.366 89.2014 52.638C86.5974 49.848 83.1564 48.453 78.8784 48.453C74.6004 48.453 71.0974 49.848 68.3694 52.638C65.6414 55.428 63.9984 59.427 63.4404 64.635Z" fill="black"/>
<path d="M25.0163 94.116C20.7383 94.116 17.0493 93.062 13.9493 90.954C10.8493 88.846 8.46234 85.87 6.78834 82.026C5.11434 78.182 4.27734 73.625 4.27734 68.355C4.27734 63.085 5.11434 58.528 6.78834 54.684C8.46234 50.84 10.8493 47.864 13.9493 45.756C17.0493 43.648 20.7383 42.594 25.0163 42.594C28.6123 42.594 31.8053 43.493 34.5953 45.291C37.4473 47.027 39.5243 49.383 40.8263 52.359V26.97H46.9643V93H41.5703L41.2913 83.793C39.9273 87.017 37.7573 89.559 34.7813 91.419C31.8673 93.217 28.6123 94.116 25.0163 94.116ZM26.0393 88.257C29.1393 88.257 31.7743 87.451 33.9443 85.839C36.1763 84.165 37.8813 81.84 39.0593 78.864C40.2373 75.826 40.8263 72.323 40.8263 68.355C40.8263 64.387 40.2373 60.915 39.0593 57.939C37.8813 54.963 36.1763 52.638 33.9443 50.964C31.7743 49.29 29.1393 48.453 26.0393 48.453C21.3893 48.453 17.6693 50.251 14.8793 53.847C12.0893 57.381 10.6943 62.217 10.6943 68.355C10.6943 74.431 12.0893 79.267 14.8793 82.863C17.6693 86.459 21.3893 88.257 26.0393 88.257Z" fill="black"/>
</svg>
