<svg width="466" height="121" viewBox="0 0 466 121" fill="none" xmlns="http://www.w3.org/2000/svg">
<rect width="466" height="121" fill="white"/>
<path d="M408.613 92.0921C404.306 92.0921 400.484 91.1214 397.147 89.1801C393.81 87.1781 391.202 84.4481 389.321 80.9901C387.44 77.4714 386.5 73.4067 386.5 68.7961C386.5 64.1247 387.41 60.0297 389.23 56.5111C391.111 52.9924 393.659 50.2321 396.874 48.23C400.15 46.228 403.942 45.2271 408.249 45.2271C412.496 45.2271 416.166 46.1371 419.26 47.9571C422.415 49.7771 424.841 52.3251 426.54 55.6011C428.299 58.8771 429.179 62.7294 429.179 67.1581V70.3431L391.05 70.4341L391.232 64.701H420.625C420.625 61.0004 419.503 58.0277 417.258 55.7831C415.013 53.5384 412.01 52.416 408.249 52.416C405.398 52.416 402.941 53.053 400.878 54.327C398.876 55.5404 397.329 57.3604 396.237 59.7871C395.206 62.1531 394.69 65.0044 394.69 68.341C394.69 73.6797 395.903 77.8051 398.33 80.7171C400.757 83.5684 404.245 84.9941 408.795 84.9941C412.132 84.9941 414.862 84.3267 416.985 82.9921C419.108 81.6574 420.534 79.7161 421.262 77.1681H429.27C428.178 81.9001 425.842 85.5704 422.263 88.1791C418.684 90.7877 414.134 92.0921 408.613 92.0921Z" fill="black"/>
<path d="M356.152 46.5009H382.178V53.6899H356.152V46.5009ZM373.442 90.9999H364.888V32.5779H373.442V90.9999Z" fill="black"/>
<path d="M326 92.0921C321.268 92.0921 317.537 90.8484 314.807 88.3611C312.137 85.8737 310.803 82.6281 310.803 78.6241C310.803 74.5594 312.259 71.3137 315.171 68.8871C318.083 66.3997 322.147 64.9437 327.365 64.5191L341.379 63.4271V62.1531C341.379 59.6657 340.924 57.6941 340.014 56.2381C339.104 54.7214 337.86 53.6597 336.283 53.0531C334.705 52.3857 332.916 52.0521 330.914 52.0521C327.334 52.0521 324.544 52.8104 322.542 54.327C320.6 55.7831 319.63 57.876 319.63 60.606H312.168C312.168 57.512 312.956 54.8124 314.534 52.5071C316.111 50.2017 318.325 48.4121 321.177 47.1381C324.089 45.8641 327.456 45.2271 331.278 45.2271C334.978 45.2271 338.194 45.8944 340.924 47.229C343.714 48.5031 345.868 50.4747 347.385 53.1441C348.962 55.7527 349.751 59.059 349.751 63.063V91.0001H342.471L341.561 83.8111C340.408 86.3591 338.406 88.3914 335.555 89.9081C332.764 91.3641 329.579 92.0921 326 92.0921ZM328.457 85.4491C332.521 85.4491 335.706 84.2357 338.012 81.8091C340.317 79.3217 341.47 75.985 341.47 71.799V69.4331L330.095 70.3431C326.333 70.7071 323.603 71.5867 321.905 72.9821C320.267 74.3774 319.448 76.1671 319.448 78.3511C319.448 80.7171 320.236 82.5067 321.814 83.7201C323.452 84.8727 325.666 85.4491 328.457 85.4491Z" fill="black"/>
<path d="M306.74 46.1371V53.9631H302.918C298.853 53.9631 295.638 55.1461 293.272 57.5121C290.966 59.8174 289.814 63.1237 289.814 67.4311V91.0001H281.26V46.5921H289.268L289.996 55.5101H289.177C289.783 52.5981 291.239 50.2321 293.545 48.4121C295.85 46.5314 298.732 45.5911 302.19 45.5911C302.978 45.5911 303.706 45.6517 304.374 45.7731C305.102 45.8337 305.89 45.9551 306.74 46.1371Z" fill="black"/>
<path d="M251.14 92.0921C246.833 92.0921 243.011 91.1214 239.674 89.1801C236.338 87.1781 233.729 84.4481 231.848 80.9901C229.968 77.4714 229.027 73.4067 229.027 68.7961C229.027 64.1247 229.937 60.0297 231.757 56.5111C233.638 52.9924 236.186 50.2321 239.401 48.23C242.677 46.228 246.469 45.2271 250.776 45.2271C255.023 45.2271 258.693 46.1371 261.787 47.9571C264.942 49.7771 267.369 52.3251 269.067 55.6011C270.827 58.8771 271.706 62.7294 271.706 67.1581V70.3431L233.577 70.4341L233.759 64.701H263.152C263.152 61.0004 262.03 58.0277 259.785 55.7831C257.541 53.5384 254.538 52.416 250.776 52.416C247.925 52.416 245.468 53.053 243.405 54.327C241.403 55.5404 239.856 57.3604 238.764 59.7871C237.733 62.1531 237.217 65.0044 237.217 68.341C237.217 73.6797 238.431 77.8051 240.857 80.7171C243.284 83.5684 246.772 84.9941 251.322 84.9941C254.659 84.9941 257.389 84.3267 259.512 82.9921C261.636 81.6574 263.061 79.7161 263.789 77.1681H271.797C270.705 81.9001 268.37 85.5704 264.79 88.1791C261.211 90.7877 256.661 92.0921 251.14 92.0921Z" fill="black"/>
<path d="M185.11 90.9999H177.375V24.0239H185.929V54.1449C187.385 51.2329 189.539 49.0186 192.39 47.5019C195.241 45.9853 198.487 45.2269 202.127 45.2269C206.374 45.2269 210.014 46.2583 213.047 48.3209C216.08 50.3229 218.416 53.1136 220.054 56.6929C221.692 60.2723 222.511 64.3673 222.511 68.9779C222.511 73.4066 221.662 77.3803 219.963 80.8989C218.264 84.4176 215.838 87.1779 212.683 89.1799C209.589 91.1213 205.888 92.0919 201.581 92.0919C198.123 92.0919 194.968 91.3033 192.117 89.7259C189.326 88.1486 187.203 85.8736 185.747 82.9009L185.11 90.9999ZM186.02 68.6139C186.02 71.7079 186.566 74.4379 187.658 76.8039C188.811 79.1699 190.418 81.0203 192.481 82.3549C194.604 83.6896 197.122 84.3569 200.034 84.3569C202.946 84.3569 205.433 83.6896 207.496 82.3549C209.559 81.0203 211.136 79.1699 212.228 76.8039C213.381 74.4379 213.957 71.7079 213.957 68.6139C213.957 65.5806 213.381 62.9113 212.228 60.6059C211.136 58.2399 209.559 56.3896 207.496 55.0549C205.433 53.6596 202.946 52.9619 200.034 52.9619C197.122 52.9619 194.604 53.6293 192.481 54.9639C190.418 56.2986 188.811 58.1489 187.658 60.5149C186.566 62.8203 186.02 65.5199 186.02 68.6139Z" fill="black"/>
<path d="M156.401 90.9999V46.5009H164.955V90.9999H156.401ZM160.587 35.9449C159.071 35.9449 157.736 35.3989 156.583 34.3069C155.491 33.1542 154.945 31.8196 154.945 30.3029C154.945 28.7256 155.491 27.3909 156.583 26.2989C157.736 25.2069 159.071 24.6609 160.587 24.6609C162.165 24.6609 163.499 25.2069 164.591 26.2989C165.683 27.3909 166.229 28.7256 166.229 30.3029C166.229 31.8196 165.683 33.1542 164.591 34.3069C163.499 35.3989 162.165 35.9449 160.587 35.9449Z" fill="black"/>
<path d="M143.81 90.9999H135.256V24.0239H143.81V90.9999Z" fill="black"/>
<path d="M104.953 92.0921C100.646 92.0921 96.8235 91.1214 93.4868 89.1801C90.1502 87.1781 87.5415 84.4481 85.6608 80.9901C83.7802 77.4714 82.8398 73.4067 82.8398 68.7961C82.8398 64.1247 83.7498 60.0297 85.5698 56.5111C87.4505 52.9924 89.9985 50.2321 93.2138 48.23C96.4898 46.228 100.282 45.2271 104.589 45.2271C108.836 45.2271 112.506 46.1371 115.6 47.9571C118.755 49.7771 121.181 52.3251 122.88 55.6011C124.639 58.8771 125.519 62.7294 125.519 67.1581V70.3431L87.3898 70.4341L87.5718 64.701H116.965C116.965 61.0004 115.843 58.0277 113.598 55.7831C111.353 53.5384 108.35 52.416 104.589 52.416C101.738 52.416 99.2805 53.053 97.2178 54.327C95.2158 55.5404 93.6688 57.3604 92.5768 59.7871C91.5455 62.1531 91.0298 65.0044 91.0298 68.341C91.0298 73.6797 92.2432 77.8051 94.6698 80.7171C97.0965 83.5684 100.585 84.9941 105.135 84.9941C108.472 84.9941 111.202 84.3267 113.325 82.9921C115.448 81.6574 116.874 79.7161 117.602 77.1681H125.61C124.518 81.9001 122.182 85.5704 118.603 88.1791C115.024 90.7877 110.474 92.0921 104.953 92.0921Z" fill="black"/>
<path d="M49.0234 92.0919C44.7161 92.0919 41.0154 91.1213 37.9214 89.1799C34.8274 87.1779 32.4311 84.4176 30.7324 80.8989C29.0944 77.3803 28.2754 73.3763 28.2754 68.8869C28.2754 64.3369 29.1247 60.3026 30.8234 56.7839C32.5221 53.2046 34.9487 50.3836 38.1034 48.3209C41.2581 46.2583 45.0194 45.2269 49.3874 45.2269C52.8454 45.2269 55.9091 45.9549 58.5784 47.4109C61.3084 48.8063 63.4317 50.8993 64.9484 53.6899V24.0239H73.4114V90.9999H65.7674L65.0394 82.9009C63.5834 85.8736 61.4297 88.1486 58.5784 89.7259C55.7877 91.3033 52.6027 92.0919 49.0234 92.0919ZM50.7524 84.3569C53.6644 84.3569 56.1517 83.6896 58.2144 82.3549C60.3377 81.0203 61.9757 79.1699 63.1284 76.8039C64.2811 74.4379 64.8574 71.7079 64.8574 68.6139C64.8574 65.5199 64.2811 62.8203 63.1284 60.5149C61.9757 58.1489 60.3377 56.2986 58.2144 54.9639C56.1517 53.6293 53.6644 52.9619 50.7524 52.9619C47.8404 52.9619 45.3531 53.6596 43.2904 55.0549C41.2277 56.3896 39.6504 58.2399 38.5584 60.6059C37.4664 62.9113 36.9204 65.5806 36.9204 68.6139C36.9204 71.7079 37.4664 74.4379 38.5584 76.8039C39.6504 79.1699 41.2277 81.0203 43.2904 82.3549C45.3531 83.6896 47.8404 84.3569 50.7524 84.3569Z" fill="black"/>
</svg>
