<svg width="466" height="121" viewBox="0 0 466 121" fill="none" xmlns="http://www.w3.org/2000/svg">
<rect width="466" height="121" fill="white"/>
<path d="M398.746 69.3186C398.746 69.3186 399.364 69.1126 400.6 68.7006C401.836 68.2543 403.433 67.7049 405.39 67.0526C407.381 66.3659 409.458 65.6449 411.621 64.8896C413.784 64.1343 415.81 63.4476 417.698 62.8296C419.621 62.1773 421.114 61.6794 422.179 61.3361L420.994 62.3661C421.406 61.4048 421.75 60.2031 422.024 58.7611C422.299 57.2848 422.436 55.5338 422.436 53.5081C422.471 51.2078 422.127 49.3538 421.406 47.9461C420.72 46.5041 419.758 45.7831 418.522 45.7831C417.149 45.7831 415.776 46.3153 414.402 47.3796C413.029 48.4439 411.741 49.9889 410.54 52.0146C409.338 54.0403 408.257 56.4779 407.295 59.3276C406.368 62.1429 405.664 65.3359 405.184 68.9066C404.463 74.1939 404.943 78.2796 406.626 81.1636C408.342 84.0133 411.106 85.4381 414.917 85.4381C416.874 85.4381 418.711 85.0433 420.428 84.2536C422.179 83.4296 423.792 82.2108 425.269 80.5971C426.745 78.9834 428.067 76.9406 429.234 74.4686C429.372 74.2283 429.492 74.0566 429.595 73.9536C429.732 73.8506 429.869 73.8163 430.007 73.8506C430.178 73.8849 430.281 74.0051 430.316 74.2111C430.384 74.3828 430.35 74.6059 430.213 74.8806C428.771 78.4856 426.917 81.5584 424.651 84.0991C422.419 86.6398 419.81 88.5796 416.823 89.9186C413.836 91.2576 410.505 91.9271 406.832 91.9271C403.398 91.9271 400.497 91.1718 398.128 89.6611C395.759 88.1504 394.043 85.9188 392.978 82.9661C391.948 79.9791 391.708 76.3398 392.257 72.0481C392.738 68.2371 393.751 64.6664 395.296 61.3361C396.875 58.0058 398.866 55.0874 401.27 52.5811C403.707 50.0404 406.437 48.0663 409.458 46.6586C412.48 45.2166 415.673 44.4956 419.037 44.4956C421.956 44.4956 424.359 45.0793 426.247 46.2466C428.17 47.3796 429.578 48.8903 430.47 50.7786C431.397 52.6326 431.826 54.6411 431.758 56.8041C431.723 57.2161 431.809 57.5423 432.015 57.7826C432.221 58.0229 432.599 58.1603 433.148 58.1946C433.423 58.1603 433.595 58.1946 433.663 58.2976C433.766 58.3663 433.818 58.4521 433.818 58.5551C433.852 58.6924 433.818 58.8126 433.715 58.9156C433.612 59.0186 433.44 59.1044 433.2 59.1731C432.685 59.3448 431.483 59.7396 429.595 60.3576C427.741 60.9413 425.526 61.6623 422.951 62.5206C420.376 63.3446 417.698 64.2201 414.917 65.1471C412.136 66.0398 409.544 66.8981 407.141 67.7221C404.737 68.5118 402.78 69.1641 401.27 69.6791C399.793 70.1598 399.055 70.4001 399.055 70.4001L398.746 69.3186Z" fill="black"/>
<path d="M391.537 53.6109C391.537 57.2503 390.971 60.9068 389.838 64.5804C388.705 68.2541 387.143 71.7389 385.151 75.0349C383.16 78.2966 380.843 81.1978 378.199 83.7384C375.555 86.2791 372.706 88.2876 369.65 89.7639C366.594 91.2059 363.418 91.9269 360.122 91.9269C357.307 91.9269 355.075 91.2574 353.427 89.9184C351.779 88.5451 350.955 86.4851 350.955 83.7384C350.955 80.8888 351.608 78.2623 352.912 75.8589C354.251 73.4556 355.899 71.2411 357.856 69.2154C359.848 67.1898 361.856 65.3358 363.882 63.6534C365.942 61.9711 367.71 60.4433 369.186 59.0699C370.663 57.6623 371.538 56.4091 371.813 55.3104L372.07 56.0314C370.045 56.0314 368.105 55.7568 366.251 55.2074C364.397 54.6581 362.629 54.0229 360.946 53.3019C359.298 52.5809 357.736 51.9286 356.26 51.3449C354.818 50.7613 353.462 50.4351 352.191 50.3664C350.646 50.2978 349.462 50.6239 348.638 51.3449C347.814 52.0316 347.35 52.8556 347.247 53.8169C346.973 55.4306 348.106 56.5979 350.646 57.3189C352.294 57.7653 353.53 58.3489 354.354 59.0699C355.178 59.7909 355.539 60.7008 355.436 61.7994C355.333 62.7951 354.887 63.6019 354.097 64.2199C353.342 64.8036 352.38 65.0954 351.213 65.0954C349.256 65.0954 347.659 64.3401 346.423 62.8294C345.222 61.3188 344.793 59.3789 345.136 57.0099C345.445 54.6753 346.269 52.5981 347.608 50.7784C348.947 48.9588 350.646 47.5168 352.706 46.4524C354.801 45.3538 357.084 44.8044 359.556 44.8044C361.032 44.8044 362.577 44.9418 364.191 45.2164C365.839 45.4568 367.384 45.7143 368.826 45.9889C370.268 46.2293 371.435 46.3494 372.328 46.3494C372.809 46.3494 373.169 46.2464 373.409 46.0404C373.684 45.8344 373.924 45.6284 374.13 45.4224C374.336 45.2164 374.542 45.1134 374.748 45.1134C374.886 45.1134 374.989 45.1993 375.057 45.3709C375.126 45.5083 375.16 45.7314 375.16 46.0404C375.126 47.4138 374.783 49.0961 374.13 51.0874C373.478 53.0788 372.688 55.2761 371.761 57.6794C370.834 60.0828 369.907 62.5891 368.98 65.1984C368.053 67.7734 367.281 70.3656 366.663 72.9749C366.079 75.5499 365.787 78.0219 365.787 80.3909C365.787 82.7256 366.114 84.4423 366.766 85.5409C367.453 86.6053 368.414 87.1546 369.65 87.1889C371.264 87.1889 373.049 86.4679 375.006 85.0259C376.997 83.5839 378.92 81.6784 380.774 79.3094C382.628 76.9404 384.156 74.3311 385.357 71.4814C386.593 68.6318 387.263 65.8164 387.366 63.0354C387.503 61.5248 387.28 60.4089 386.696 59.6879C386.113 58.9669 385.323 58.2803 384.327 57.6279C382.817 56.6666 381.77 55.6881 381.186 54.6924C380.602 53.6624 380.362 52.4779 380.465 51.1389C380.534 50.0059 380.843 48.9759 381.392 48.0489C381.976 47.0876 382.714 46.3151 383.606 45.7314C384.499 45.1134 385.46 44.8044 386.49 44.8044C388.138 44.8044 389.392 45.5426 390.25 47.0189C391.108 48.4953 391.537 50.6926 391.537 53.6109Z" fill="black"/>
<path d="M334.352 79.6185C333.391 82.5712 333.031 84.5625 333.271 85.5925C333.546 86.6225 334.112 87.1375 334.97 87.1375C335.691 87.1375 336.481 86.8457 337.339 86.262C338.198 85.644 339.262 84.5454 340.532 82.966C340.773 82.657 340.945 82.4682 341.048 82.3995C341.151 82.2965 341.253 82.2622 341.356 82.2965C341.494 82.3309 341.562 82.451 341.562 82.657C341.562 82.863 341.459 83.1549 341.253 83.5325C339.846 86.0389 337.923 88.0645 335.485 89.6095C333.082 91.1545 330.164 91.927 326.73 91.927C324.739 91.927 323.246 91.5665 322.25 90.8455C321.254 90.0902 320.722 88.9572 320.653 87.4465C320.585 85.9015 320.911 83.996 321.632 81.73L329.357 57.937C330.318 55.0874 330.713 53.1475 330.541 52.1175C330.37 51.0532 329.838 50.521 328.945 50.521C328.258 50.521 327.451 50.83 326.524 51.448C325.632 52.0317 324.43 53.199 322.919 54.95C322.748 55.1217 322.593 55.259 322.456 55.362C322.353 55.4307 322.216 55.4479 322.044 55.4135C321.941 55.3792 321.907 55.2934 321.941 55.156C321.975 55.0187 322.044 54.8299 322.147 54.5895C324.07 51.5682 326.301 49.182 328.842 47.431C331.417 45.6457 334.112 44.753 336.927 44.753C338.678 44.753 340.069 45.1479 341.099 45.9375C342.129 46.7272 342.747 47.9289 342.953 49.5425C343.193 51.1562 342.901 53.2162 342.077 55.7225L334.352 79.6185ZM338.73 38.264C337.048 38.264 335.743 37.8349 334.816 36.9765C333.889 36.0839 333.425 34.9509 333.425 33.5775C333.425 32.2385 333.82 30.8309 334.61 29.3545C335.434 27.8439 336.533 26.5735 337.906 25.5435C339.279 24.5135 340.841 23.9985 342.592 23.9985C344.618 23.9985 346.077 24.4449 346.97 25.3375C347.863 26.2302 348.309 27.346 348.309 28.685C348.309 30.2644 347.914 31.7922 347.124 33.2685C346.335 34.7449 345.219 35.9465 343.777 36.8735C342.369 37.8005 340.687 38.264 338.73 38.264Z" fill="black"/>
<path d="M295.403 90.7426C297.395 90.7426 299.06 90.0903 300.399 88.7856C301.738 87.4466 302.424 85.7814 302.459 83.7901C302.459 82.6571 302.236 81.5756 301.789 80.5456C301.343 79.5156 300.57 78.3998 299.472 77.1981C298.407 75.9621 296.983 74.5373 295.197 72.9236C293.034 71.0353 291.266 69.3529 289.893 67.8766C288.519 66.3659 287.524 64.9068 286.906 63.4991C286.322 62.0914 286.082 60.5464 286.185 58.8641C286.356 56.3234 287.249 53.9716 288.863 51.8086C290.476 49.6113 292.708 47.8431 295.558 46.5041C298.407 45.1651 301.772 44.4956 305.652 44.4956C308.879 44.4956 311.574 44.9076 313.737 45.7316C315.9 46.5213 317.531 47.5684 318.63 48.8731C319.728 50.1778 320.295 51.5511 320.329 52.9931C320.398 54.4008 320.072 55.5338 319.351 56.3921C318.664 57.2161 317.754 57.6281 316.621 57.6281C315.317 57.6281 314.201 57.1646 313.274 56.2376C312.381 55.2763 311.626 53.5596 311.008 51.0876C310.39 49.1306 309.566 47.7401 308.536 46.9161C307.506 46.0578 306.27 45.6286 304.828 45.6286C302.699 45.6286 300.931 46.3324 299.523 47.7401C298.15 49.1478 297.463 51.0018 297.463 53.3021C297.429 54.6068 297.635 55.8599 298.081 57.0616C298.562 58.2289 299.455 59.5336 300.759 60.9756C302.064 62.3833 303.952 64.1686 306.424 66.3316C308.484 68.0483 310.115 69.6104 311.317 71.0181C312.518 72.3914 313.342 73.7304 313.789 75.0351C314.269 76.3398 314.407 77.7989 314.201 79.4126C313.926 81.8159 312.93 83.9618 311.214 85.8501C309.497 87.7384 307.231 89.2319 304.416 90.3306C301.635 91.3949 298.425 91.9271 294.785 91.9271C291.386 91.9271 288.537 91.4464 286.236 90.4851C283.97 89.5238 282.254 88.2878 281.086 86.7771C279.953 85.2321 279.387 83.6356 279.387 81.9876C279.421 80.7173 279.73 79.6701 280.314 78.8461C280.897 77.9878 281.773 77.5586 282.94 77.5586C284.348 77.5586 285.481 78.0736 286.339 79.1036C287.198 80.1336 287.936 81.8503 288.554 84.2536C289.412 86.6569 290.373 88.3393 291.438 89.3006C292.536 90.2619 293.858 90.7426 295.403 90.7426Z" fill="black"/>
<path d="M258.235 90.7426C260.227 90.7426 261.892 90.0903 263.231 88.7856C264.57 87.4466 265.256 85.7814 265.291 83.7901C265.291 82.6571 265.068 81.5756 264.621 80.5456C264.175 79.5156 263.402 78.3998 262.304 77.1981C261.239 75.9621 259.815 74.5373 258.029 72.9236C255.866 71.0353 254.098 69.3529 252.725 67.8766C251.351 66.3659 250.356 64.9068 249.738 63.4991C249.154 62.0914 248.914 60.5464 249.017 58.8641C249.188 56.3234 250.081 53.9716 251.695 51.8086C253.308 49.6113 255.54 47.8431 258.39 46.5041C261.239 45.1651 264.604 44.4956 268.484 44.4956C271.711 44.4956 274.406 44.9076 276.569 45.7316C278.732 46.5213 280.363 47.5684 281.462 48.8731C282.56 50.1778 283.127 51.5511 283.161 52.9931C283.23 54.4008 282.904 55.5338 282.183 56.3921C281.496 57.2161 280.586 57.6281 279.453 57.6281C278.149 57.6281 277.033 57.1646 276.106 56.2376C275.213 55.2763 274.458 53.5596 273.84 51.0876C273.222 49.1306 272.398 47.7401 271.368 46.9161C270.338 46.0578 269.102 45.6286 267.66 45.6286C265.531 45.6286 263.763 46.3324 262.355 47.7401C260.982 49.1478 260.295 51.0018 260.295 53.3021C260.261 54.6068 260.467 55.8599 260.913 57.0616C261.394 58.2289 262.287 59.5336 263.591 60.9756C264.896 62.3833 266.784 64.1686 269.256 66.3316C271.316 68.0483 272.947 69.6104 274.149 71.0181C275.35 72.3914 276.174 73.7304 276.621 75.0351C277.101 76.3398 277.239 77.7989 277.033 79.4126C276.758 81.8159 275.762 83.9618 274.046 85.8501C272.329 87.7384 270.063 89.2319 267.248 90.3306C264.467 91.3949 261.257 91.9271 257.617 91.9271C254.218 91.9271 251.369 91.4464 249.068 90.4851C246.802 89.5238 245.086 88.2878 243.918 86.7771C242.785 85.2321 242.219 83.6356 242.219 81.9876C242.253 80.7173 242.562 79.6701 243.146 78.8461C243.729 77.9878 244.605 77.5586 245.772 77.5586C247.18 77.5586 248.313 78.0736 249.171 79.1036C250.03 80.1336 250.768 81.8503 251.386 84.2536C252.244 86.6569 253.205 88.3393 254.27 89.3006C255.368 90.2619 256.69 90.7426 258.235 90.7426Z" fill="black"/>
<path d="M210.49 69.3186C210.49 69.3186 211.108 69.1126 212.344 68.7006C213.58 68.2543 215.177 67.7049 217.134 67.0526C219.125 66.3659 221.202 65.6449 223.365 64.8896C225.528 64.1343 227.554 63.4476 229.442 62.8296C231.365 62.1773 232.859 61.6794 233.923 61.3361L232.738 62.3661C233.15 61.4048 233.494 60.2031 233.768 58.7611C234.043 57.2848 234.18 55.5338 234.18 53.5081C234.215 51.2078 233.871 49.3538 233.15 47.9461C232.464 46.5041 231.502 45.7831 230.266 45.7831C228.893 45.7831 227.52 46.3153 226.146 47.3796C224.773 48.4439 223.486 49.9889 222.284 52.0146C221.082 54.0403 220.001 56.4779 219.039 59.3276C218.112 62.1429 217.409 65.3359 216.928 68.9066C216.207 74.1939 216.688 78.2796 218.37 81.1636C220.087 84.0133 222.85 85.4381 226.661 85.4381C228.618 85.4381 230.455 85.0433 232.172 84.2536C233.923 83.4296 235.537 82.2108 237.013 80.5971C238.489 78.9834 239.811 76.9406 240.978 74.4686C241.116 74.2283 241.236 74.0566 241.339 73.9536C241.476 73.8506 241.614 73.8163 241.751 73.8506C241.923 73.8849 242.026 74.0051 242.06 74.2111C242.129 74.3828 242.094 74.6059 241.957 74.8806C240.515 78.4856 238.661 81.5584 236.395 84.0991C234.163 86.6398 231.554 88.5796 228.567 89.9186C225.58 91.2576 222.25 91.9271 218.576 91.9271C215.143 91.9271 212.241 91.1718 209.872 89.6611C207.503 88.1504 205.787 85.9188 204.722 82.9661C203.692 79.9791 203.452 76.3398 204.001 72.0481C204.482 68.2371 205.495 64.6664 207.04 61.3361C208.619 58.0058 210.611 55.0874 213.014 52.5811C215.452 50.0404 218.181 48.0663 221.202 46.6586C224.224 45.2166 227.417 44.4956 230.781 44.4956C233.7 44.4956 236.103 45.0793 237.991 46.2466C239.914 47.3796 241.322 48.8903 242.214 50.7786C243.141 52.6326 243.571 54.6411 243.502 56.8041C243.468 57.2161 243.553 57.5423 243.759 57.7826C243.965 58.0229 244.343 58.1603 244.892 58.1946C245.167 58.1603 245.339 58.1946 245.407 58.2976C245.51 58.3663 245.562 58.4521 245.562 58.5551C245.596 58.6924 245.562 58.8126 245.459 58.9156C245.356 59.0186 245.184 59.1044 244.944 59.1731C244.429 59.3448 243.227 59.7396 241.339 60.3576C239.485 60.9413 237.27 61.6623 234.695 62.5206C232.12 63.3446 229.442 64.2201 226.661 65.1471C223.88 66.0398 221.288 66.8981 218.885 67.7221C216.482 68.5118 214.525 69.1641 213.014 69.6791C211.538 70.1598 210.799 70.4001 210.799 70.4001L210.49 69.3186Z" fill="black"/>
<path d="M167.375 55.4134C167.272 55.3791 167.22 55.3104 167.22 55.2074C167.254 55.0701 167.34 54.8641 167.478 54.5894C168.748 52.5981 170.19 50.8643 171.804 49.3879C173.452 47.9116 175.185 46.7786 177.005 45.9889C178.859 45.1649 180.713 44.7529 182.567 44.7529C184.455 44.7529 185.846 45.1821 186.739 46.0404C187.631 46.8644 188.078 48.0146 188.078 49.4909C188.078 50.7956 187.872 52.1518 187.46 53.5594C187.082 54.9671 186.584 56.5464 185.966 58.2974C185.348 60.0141 184.661 61.9711 183.906 64.1684C183.151 66.3314 182.395 68.8034 181.64 71.5844L181.125 71.3784C182.361 67.4301 183.786 63.8423 185.4 60.6149C187.013 57.3533 188.747 54.5379 190.601 52.1689C192.455 49.7999 194.378 47.9803 196.369 46.7099C198.36 45.4053 200.369 44.7529 202.395 44.7529C204.489 44.7529 206.017 45.5254 206.978 47.0704C207.974 48.6154 208.334 50.5038 208.06 52.7354C207.819 54.3834 207.356 55.7739 206.669 56.9069C205.982 58.0399 205.141 58.9154 204.146 59.5334C203.15 60.1514 202.051 60.4604 200.85 60.4604C199.579 60.4604 198.549 60.1514 197.76 59.5334C196.97 58.9154 196.575 57.9884 196.575 56.7524C196.575 56.0314 196.661 55.3276 196.833 54.6409C197.004 53.9543 197.09 53.3191 197.09 52.7354C197.09 52.0488 196.97 51.5338 196.73 51.1904C196.524 50.8128 196.163 50.6239 195.648 50.6239C194.446 50.6239 193.039 51.4651 191.425 53.1474C189.846 54.7954 188.198 57.3018 186.481 60.6664C184.764 63.9968 183.151 68.1683 181.64 73.1809C180.988 75.4813 180.438 77.4554 179.992 79.1034C179.546 80.7171 179.323 82.0733 179.323 83.1719C179.323 83.9616 179.511 84.5968 179.889 85.0774C180.301 85.5238 180.696 85.9014 181.074 86.2104C181.486 86.4851 181.692 86.8113 181.692 87.1889C181.692 87.7039 181.142 88.3563 180.044 89.1459C178.945 89.9013 177.469 90.5536 175.615 91.1029C173.795 91.6523 171.804 91.9269 169.641 91.9269C168.267 91.9269 167.272 91.6523 166.654 91.1029C166.07 90.5879 165.761 89.8326 165.727 88.8369C165.727 87.8413 165.95 86.6224 166.396 85.1804L174.688 57.8854C175.58 55.0358 175.958 53.0959 175.821 52.0659C175.683 51.0359 175.168 50.5209 174.276 50.5209C173.589 50.5209 172.782 50.8299 171.855 51.4479C170.928 52.0316 169.709 53.1989 168.199 54.9499C168.027 55.1559 167.872 55.2933 167.735 55.3619C167.598 55.4306 167.478 55.4478 167.375 55.4134Z" fill="black"/>
<path d="M143.14 36.4101L122.901 109.952C122.557 111.154 122.403 112.046 122.437 112.63C122.471 113.248 123.038 113.643 124.137 113.815L128.102 114.33C128.377 114.364 128.566 114.415 128.669 114.484C128.806 114.587 128.875 114.69 128.875 114.793C128.875 114.93 128.806 115.051 128.669 115.154C128.531 115.257 128.342 115.308 128.102 115.308L105.082 115.669C104.876 115.669 104.721 115.634 104.618 115.566C104.481 115.497 104.412 115.394 104.412 115.257C104.412 115.154 104.464 115.051 104.567 114.948C104.67 114.845 104.841 114.776 105.082 114.742C106.386 114.501 107.382 114.244 108.069 113.969C108.721 113.729 109.219 113.368 109.562 112.888C109.871 112.407 110.146 111.737 110.386 110.879L130.162 41.6631C130.299 41.2854 130.763 40.8391 131.553 40.3241C132.342 39.7747 133.304 39.2082 134.437 38.6246C135.57 38.0066 136.703 37.4401 137.836 36.9251C139.003 36.4101 140.016 35.9981 140.874 35.6891C141.767 35.3457 142.35 35.1741 142.625 35.1741C142.9 35.1741 143.071 35.2771 143.14 35.4831C143.243 35.6547 143.243 35.9637 143.14 36.4101ZM120.686 56.1861C120.514 56.3577 120.343 56.4607 120.171 56.4951C119.999 56.4951 119.845 56.4436 119.708 56.3406C119.57 56.2376 119.519 56.0831 119.553 55.8771C119.587 55.6711 119.69 55.4822 119.862 55.3106C121.922 53.0102 124.188 51.0189 126.66 49.3366C129.132 47.6199 131.93 46.3324 135.055 45.4741C138.179 44.5814 141.75 44.1866 145.767 44.2896C149.955 44.4269 153.423 45.4397 156.17 47.3281C158.951 49.2164 160.942 51.8086 162.144 55.1046C163.345 58.4006 163.689 62.2116 163.174 66.5376C162.59 71.5502 161.011 75.9621 158.436 79.7731C155.861 83.5841 152.668 86.5539 148.857 88.6826C145.046 90.7769 140.96 91.7897 136.6 91.7211C133.716 91.6867 131.364 91.1374 129.544 90.0731C127.724 88.9744 126.317 87.4466 125.321 85.4896L126.3 85.0776C127.124 86.5882 128.136 87.7212 129.338 88.4766C130.54 89.2319 131.896 89.6439 133.407 89.7126C135.81 89.7812 138.127 88.9401 140.359 87.1891C142.625 85.4381 144.634 82.8116 146.385 79.3096C148.17 75.7732 149.492 71.3442 150.35 66.0226C151.14 61.3876 151.346 57.5766 150.968 54.5896C150.59 51.6026 149.766 49.3881 148.496 47.9461C147.26 46.4697 145.715 45.6801 143.861 45.5771C139.569 45.4054 135.449 46.1951 131.501 47.9461C127.587 49.6971 123.982 52.4437 120.686 56.1861Z" fill="black"/>
<path d="M86.2408 68.3399L87.3223 68.5459C86.4983 72.7346 85.537 76.3053 84.4383 79.2579C83.374 82.2106 82.1723 84.6139 80.8333 86.4679C79.4943 88.3219 78.0523 89.6781 76.5073 90.5364C74.9623 91.3604 73.2971 91.7724 71.5118 91.7724C69.3145 91.7724 67.5978 91.1716 66.3618 89.9699C65.1601 88.7683 64.5765 87.0688 64.6108 84.8714C64.6451 82.8114 65.1945 81.0433 66.2588 79.5669C67.3231 78.0563 68.748 77.3009 70.5333 77.3009C71.7006 77.3009 72.6276 77.6786 73.3143 78.4339C74.0353 79.1893 74.3958 80.2021 74.3958 81.4724C74.3958 82.5368 74.1898 83.6011 73.7778 84.6654C73.4001 85.7298 73.2113 86.6396 73.2113 87.3949C73.2113 87.8413 73.3486 88.2361 73.6233 88.5794C73.9323 88.8884 74.3786 89.0429 74.9623 89.0429C75.9923 89.0429 77.1596 88.4249 78.4643 87.1889C79.8033 85.9529 81.1595 83.8414 82.5328 80.8544C83.9405 77.8331 85.1765 73.6616 86.2408 68.3399ZM96.3863 55.0529L98.4463 78.4854C98.6523 80.6484 99.133 82.3136 99.8883 83.4809C100.678 84.6139 101.897 85.1804 103.545 85.1804C104.884 85.1804 106.085 84.7341 107.15 83.8414C108.214 82.9488 109.45 81.3008 110.858 78.8974C111.029 78.6228 111.184 78.4511 111.321 78.3824C111.459 78.3138 111.579 78.2966 111.682 78.3309C111.853 78.3996 111.956 78.5198 111.991 78.6914C112.025 78.8288 111.991 79.0004 111.888 79.2064C110.617 81.7128 109.175 83.9273 107.562 85.8499C105.982 87.7726 104.266 89.2833 102.412 90.3819C100.558 91.4463 98.5321 91.9784 96.3348 91.9784C94.0688 91.9784 92.2835 91.5493 90.9788 90.6909C89.7085 89.8326 88.7643 88.5279 88.1463 86.7769C87.5283 85.0259 87.082 82.8801 86.8073 80.3394L84.7473 57.4219C84.5756 55.1559 84.1465 53.5423 83.4598 52.5809C82.7731 51.6196 81.829 51.1389 80.6273 51.1389C79.357 51.1389 78.1381 51.6024 76.9708 52.5294C75.8035 53.4221 74.4645 55.0873 72.9538 57.5249C72.8165 57.7653 72.6791 57.9369 72.5418 58.0399C72.4388 58.1086 72.3015 58.1258 72.1298 58.0914C71.9925 58.0228 71.9238 57.9198 71.9238 57.7824C71.9238 57.6108 71.9581 57.4219 72.0268 57.2159C73.4001 54.7783 74.8936 52.6324 76.5073 50.7784C78.1553 48.9244 79.9406 47.4653 81.8633 46.4009C83.8203 45.3023 85.9318 44.7529 88.1978 44.7529C89.8801 44.7529 91.2706 45.1478 92.3693 45.9374C93.5023 46.7271 94.395 47.8944 95.0473 49.4394C95.734 50.9844 96.1803 52.8556 96.3863 55.0529ZM97.2103 70.5544L96.3348 70.3999C97.2961 65.6963 98.3948 61.7308 99.6308 58.5034C100.867 55.2418 102.189 52.6153 103.596 50.6239C105.038 48.6326 106.515 47.1906 108.025 46.2979C109.57 45.3709 111.098 44.9074 112.609 44.9074C114.909 44.9074 116.66 45.6113 117.862 47.0189C119.063 48.4266 119.613 50.1948 119.51 52.3234C119.407 54.7611 118.772 56.6323 117.604 57.9369C116.437 59.2416 115.064 59.8939 113.484 59.8939C112.248 59.8939 111.27 59.5334 110.549 58.8124C109.828 58.0571 109.536 57.0443 109.673 55.7739C109.708 54.9843 109.914 54.0916 110.291 53.0959C110.703 52.0659 110.909 51.0359 110.909 50.0059C110.909 49.5253 110.738 49.1648 110.394 48.9244C110.085 48.6498 109.622 48.5124 109.004 48.5124C108.111 48.5124 107.184 48.9244 106.223 49.7484C105.261 50.5381 104.266 51.8256 103.236 53.6109C102.24 55.3619 101.227 57.6279 100.197 60.4089C99.2016 63.1899 98.206 66.5718 97.2103 70.5544Z" fill="black"/>
<path d="M33.6526 69.3186C33.6526 69.3186 34.2706 69.1126 35.5066 68.7006C36.7426 68.2543 38.3391 67.7049 40.2961 67.0526C42.2874 66.3659 44.3646 65.6449 46.5276 64.8896C48.6906 64.1343 50.7162 63.4476 52.6046 62.8296C54.5272 62.1773 56.0207 61.6794 57.0851 61.3361L55.9006 62.3661C56.3126 61.4048 56.6559 60.2031 56.9306 58.7611C57.2052 57.2848 57.3426 55.5338 57.3426 53.5081C57.3769 51.2078 57.0336 49.3538 56.3126 47.9461C55.6259 46.5041 54.6646 45.7831 53.4286 45.7831C52.0552 45.7831 50.6819 46.3153 49.3086 47.3796C47.9352 48.4439 46.6477 49.9889 45.4461 52.0146C44.2444 54.0403 43.1629 56.4779 42.2016 59.3276C41.2746 62.1429 40.5707 65.3359 40.0901 68.9066C39.3691 74.1939 39.8497 78.2796 41.5321 81.1636C43.2487 84.0133 46.0126 85.4381 49.8236 85.4381C51.7806 85.4381 53.6174 85.0433 55.3341 84.2536C57.0851 83.4296 58.6987 82.2108 60.1751 80.5971C61.6514 78.9834 62.9732 76.9406 64.1406 74.4686C64.2779 74.2283 64.3981 74.0566 64.5011 73.9536C64.6384 73.8506 64.7757 73.8163 64.9131 73.8506C65.0847 73.8849 65.1877 74.0051 65.2221 74.2111C65.2907 74.3828 65.2564 74.6059 65.1191 74.8806C63.6771 78.4856 61.8231 81.5584 59.5571 84.0991C57.3254 86.6398 54.7161 88.5796 51.7291 89.9186C48.7421 91.2576 45.4117 91.9271 41.7381 91.9271C38.3047 91.9271 35.4036 91.1718 33.0346 89.6611C30.6656 88.1504 28.9489 85.9188 27.8846 82.9661C26.8546 79.9791 26.6142 76.3398 27.1636 72.0481C27.6442 68.2371 28.6571 64.6664 30.2021 61.3361C31.7814 58.0058 33.7727 55.0874 36.1761 52.5811C38.6137 50.0404 41.3432 48.0663 44.3646 46.6586C47.3859 45.2166 50.5789 44.4956 53.9436 44.4956C56.8619 44.4956 59.2652 45.0793 61.1536 46.2466C63.0762 47.3796 64.4839 48.8903 65.3766 50.7786C66.3036 52.6326 66.7327 54.6411 66.6641 56.8041C66.6297 57.2161 66.7156 57.5423 66.9216 57.7826C67.1276 58.0229 67.5052 58.1603 68.0546 58.1946C68.3292 58.1603 68.5009 58.1946 68.5696 58.2976C68.6726 58.3663 68.7241 58.4521 68.7241 58.5551C68.7584 58.6924 68.7241 58.8126 68.6211 58.9156C68.5181 59.0186 68.3464 59.1044 68.1061 59.1731C67.5911 59.3448 66.3894 59.7396 64.5011 60.3576C62.6471 60.9413 60.4326 61.6623 57.8576 62.5206C55.2826 63.3446 52.6046 64.2201 49.8236 65.1471C47.0426 66.0398 44.4504 66.8981 42.0471 67.7221C39.6437 68.5118 37.6867 69.1641 36.1761 69.6791C34.6997 70.1598 33.9616 70.4001 33.9616 70.4001L33.6526 69.3186Z" fill="black"/>
</svg>
