<svg width="506" height="128" viewBox="0 0 506 128" fill="none" xmlns="http://www.w3.org/2000/svg">
<path d="M454.455 52.3999C463.155 52.3999 469.785 54.4399 474.345 58.5199C478.965 62.5999 481.275 68.8399 481.275 77.2399V80.2999H445.635C445.635 83.7199 446.385 86.2999 447.885 88.0399C449.445 89.7799 451.875 90.6499 455.175 90.6499C458.175 90.6499 460.365 90.0199 461.745 88.7599C463.185 87.4999 463.905 85.8199 463.905 83.7199H481.275C481.275 89.4799 479.085 93.9799 474.705 97.2199C470.325 100.46 463.935 102.08 455.535 102.08C446.715 102.08 439.875 100.04 435.015 95.9599C430.155 91.8199 427.725 85.5799 427.725 77.2399C427.725 69.0799 430.095 62.8999 434.835 58.6999C439.575 54.4999 446.115 52.3999 454.455 52.3999ZM455.175 63.8299C449.535 63.8299 446.385 66.4999 445.725 71.8399H463.185C463.185 69.3799 462.465 67.4299 461.025 65.9899C459.645 64.5499 457.695 63.8299 455.175 63.8299Z" fill="black"/>
<path d="M397.037 101L379.037 53.48H398.297L407.027 83.09H407.657L416.387 53.48H434.027L415.847 101H397.037Z" fill="black"/>
<path d="M362.297 47.9V35.75H380.207V47.9H362.297ZM362.297 101V53.48H380.207V101H362.297Z" fill="black"/>
<path d="M336.436 52.3999C342.796 52.3999 348.166 53.6599 352.546 56.1799C356.986 58.6399 359.206 62.4799 359.206 67.6999H342.556C342.556 65.9599 341.776 64.7299 340.216 64.0099C339.136 63.4099 337.786 63.1099 336.166 63.1099C331.846 63.1099 329.686 64.1299 329.686 66.1699C329.686 67.3099 330.436 68.1199 331.936 68.5999C333.436 69.0799 335.896 69.5899 339.316 70.1299C343.516 70.7299 347.026 71.4499 349.846 72.2899C352.666 73.0699 355.126 74.5099 357.226 76.6099C359.326 78.6499 360.376 81.5299 360.376 85.2499C360.376 91.3099 358.096 95.6299 353.536 98.2099C349.036 100.79 343.126 102.08 335.806 102.08C331.606 102.08 327.646 101.51 323.926 100.37C320.206 99.1699 317.176 97.3399 314.836 94.8799C312.496 92.4199 311.326 89.2999 311.326 85.5199H327.976V85.8799C328.036 87.9199 328.876 89.3599 330.496 90.1999C332.176 90.9799 333.946 91.3699 335.806 91.3699C340.786 91.3699 343.276 90.1999 343.276 87.8599C343.276 86.6599 342.496 85.7899 340.936 85.2499C339.376 84.7099 336.826 84.1399 333.286 83.5399C329.026 82.8199 325.516 82.0399 322.756 81.1999C320.056 80.3599 317.686 78.9499 315.646 76.9699C313.606 74.9299 312.586 72.1099 312.586 68.5099C312.586 62.6899 314.776 58.5499 319.156 56.0899C323.596 53.6299 329.356 52.3999 336.436 52.3999Z" fill="black"/>
<path d="M288.618 52.3999C294.978 52.3999 300.348 53.6599 304.728 56.1799C309.168 58.6399 311.388 62.4799 311.388 67.6999H294.738C294.738 65.9599 293.958 64.7299 292.398 64.0099C291.318 63.4099 289.968 63.1099 288.348 63.1099C284.028 63.1099 281.868 64.1299 281.868 66.1699C281.868 67.3099 282.618 68.1199 284.118 68.5999C285.618 69.0799 288.078 69.5899 291.498 70.1299C295.698 70.7299 299.208 71.4499 302.028 72.2899C304.848 73.0699 307.308 74.5099 309.408 76.6099C311.508 78.6499 312.558 81.5299 312.558 85.2499C312.558 91.3099 310.278 95.6299 305.718 98.2099C301.218 100.79 295.308 102.08 287.988 102.08C283.788 102.08 279.828 101.51 276.108 100.37C272.388 99.1699 269.358 97.3399 267.018 94.8799C264.678 92.4199 263.508 89.2999 263.508 85.5199H280.158V85.8799C280.218 87.9199 281.058 89.3599 282.678 90.1999C284.358 90.9799 286.128 91.3699 287.988 91.3699C292.968 91.3699 295.458 90.1999 295.458 87.8599C295.458 86.6599 294.678 85.7899 293.118 85.2499C291.558 84.7099 289.008 84.1399 285.468 83.5399C281.208 82.8199 277.698 82.0399 274.938 81.1999C272.238 80.3599 269.868 78.9499 267.828 76.9699C265.788 74.9299 264.768 72.1099 264.768 68.5099C264.768 62.6899 266.958 58.5499 271.338 56.0899C275.778 53.6299 281.538 52.3999 288.618 52.3999Z" fill="black"/>
<path d="M237.769 52.3999C246.469 52.3999 253.099 54.4399 257.659 58.5199C262.279 62.5999 264.589 68.8399 264.589 77.2399V80.2999H228.949C228.949 83.7199 229.699 86.2999 231.199 88.0399C232.759 89.7799 235.189 90.6499 238.489 90.6499C241.489 90.6499 243.679 90.0199 245.059 88.7599C246.499 87.4999 247.219 85.8199 247.219 83.7199H264.589C264.589 89.4799 262.399 93.9799 258.019 97.2199C253.639 100.46 247.249 102.08 238.849 102.08C230.029 102.08 223.189 100.04 218.329 95.9599C213.469 91.8199 211.039 85.5799 211.039 77.2399C211.039 69.0799 213.409 62.8999 218.149 58.6999C222.889 54.4999 229.429 52.3999 237.769 52.3999ZM238.489 63.8299C232.849 63.8299 229.699 66.4999 229.039 71.8399H246.499C246.499 69.3799 245.779 67.4299 244.339 65.9899C242.959 64.5499 241.009 63.8299 238.489 63.8299Z" fill="black"/>
<path d="M207.892 52.3101C209.272 52.3101 210.502 52.4901 211.582 52.8501C212.662 53.1501 213.202 53.3301 213.202 53.3901V68.4201H207.442C203.722 68.4201 201.022 69.3801 199.342 71.3001C197.722 73.2201 196.912 76.0701 196.912 79.8501V101H179.002V53.4801H193.672L194.842 60.6801C195.922 57.9201 197.632 55.8501 199.972 54.4701C202.312 53.0301 204.952 52.3101 207.892 52.3101Z" fill="black"/>
<path d="M157.492 52.3999C163.912 52.3999 168.862 54.4999 172.342 58.6999C175.822 62.8999 177.562 69.1099 177.562 77.3299C177.562 85.4899 175.822 91.6699 172.342 95.8699C168.862 100.01 163.912 102.08 157.492 102.08C151.972 102.08 147.532 100.28 144.172 96.6799V118.73H126.262V53.4799H140.842L142.372 60.2299C145.852 55.0099 150.892 52.3999 157.492 52.3999ZM151.912 65.6299C149.272 65.6299 147.292 66.5599 145.972 68.4199C144.652 70.2799 143.992 72.7099 143.992 75.7099V78.6799C143.992 81.6799 144.652 84.1399 145.972 86.0599C147.292 87.9199 149.272 88.8499 151.912 88.8499C157.072 88.8499 159.652 85.7599 159.652 79.5799V74.8099C159.652 68.6899 157.072 65.6299 151.912 65.6299Z" fill="black"/>
<path d="M127.523 101H106.643L97.6427 86.06H97.2827L88.1927 101H68.3027L86.5727 75.8L70.1027 53.48H91.1627L98.7227 66.08H99.0827L106.643 53.48H126.443L109.703 76.25L127.523 101Z" fill="black"/>
<path d="M47.4566 52.3999C56.1566 52.3999 62.7866 54.4399 67.3466 58.5199C71.9666 62.5999 74.2766 68.8399 74.2766 77.2399V80.2999H38.6366C38.6366 83.7199 39.3866 86.2999 40.8866 88.0399C42.4466 89.7799 44.8766 90.6499 48.1766 90.6499C51.1766 90.6499 53.3666 90.0199 54.7466 88.7599C56.1866 87.4999 56.9066 85.8199 56.9066 83.7199H74.2766C74.2766 89.4799 72.0866 93.9799 67.7066 97.2199C63.3266 100.46 56.9366 102.08 48.5366 102.08C39.7166 102.08 32.8766 100.04 28.0166 95.9599C23.1566 91.8199 20.7266 85.5799 20.7266 77.2399C20.7266 69.0799 23.0966 62.8999 27.8366 58.6999C32.5766 54.4999 39.1166 52.3999 47.4566 52.3999ZM48.1766 63.8299C42.5366 63.8299 39.3866 66.4999 38.7266 71.8399H56.1866C56.1866 69.3799 55.4666 67.4299 54.0266 65.9899C52.6466 64.5499 50.6966 63.8299 48.1766 63.8299Z" fill="black"/>
</svg>
