<svg width="460" height="120" viewBox="0 0 460 120" fill="none" xmlns="http://www.w3.org/2000/svg">
<rect width="460" height="120" fill="white"/>
<path d="M394.301 69.212C394.301 69.212 395.003 68.96 396.407 68.456C397.811 67.916 399.611 67.25 401.807 66.458C404.003 65.63 406.289 64.766 408.665 63.866C411.041 62.966 413.219 62.156 415.199 61.436C417.215 60.716 418.709 60.194 419.681 59.87L418.709 60.842C419.033 60.086 419.285 59.15 419.465 58.034C419.681 56.882 419.807 55.442 419.843 53.714C419.843 51.158 419.411 49.07 418.547 47.45C417.719 45.794 416.567 44.966 415.091 44.966C413.435 44.966 411.779 45.578 410.123 46.802C408.503 47.99 406.955 49.718 405.479 51.986C404.003 54.254 402.707 56.972 401.591 60.14C400.511 63.308 399.683 66.872 399.107 70.832C398.351 76.412 398.855 80.678 400.619 83.63C402.419 86.582 405.191 88.058 408.935 88.058C411.059 88.058 413.075 87.626 414.983 86.762C416.891 85.862 418.637 84.494 420.221 82.658C421.841 80.822 423.245 78.5 424.433 75.692C424.577 75.476 424.685 75.332 424.757 75.26C424.865 75.152 424.991 75.116 425.135 75.152C425.279 75.152 425.369 75.242 425.405 75.422C425.441 75.566 425.405 75.764 425.297 76.016C423.929 79.58 422.165 82.622 420.005 85.142C417.881 87.662 415.361 89.588 412.445 90.92C409.565 92.252 406.343 92.918 402.779 92.918C399.503 92.918 396.731 92.162 394.463 90.65C392.231 89.102 390.611 86.834 389.603 83.846C388.631 80.822 388.433 77.132 389.009 72.776C389.513 68.852 390.575 65.144 392.195 61.652C393.815 58.16 395.831 55.082 398.243 52.418C400.691 49.754 403.391 47.666 406.343 46.154C409.331 44.642 412.409 43.886 415.577 43.886C418.205 43.886 420.383 44.462 422.111 45.614C423.839 46.73 425.117 48.206 425.945 50.042C426.809 51.878 427.205 53.858 427.133 55.982C427.133 56.378 427.241 56.684 427.457 56.9C427.673 57.08 428.069 57.152 428.645 57.116C428.861 57.08 429.023 57.098 429.131 57.17C429.239 57.242 429.293 57.332 429.293 57.44C429.329 57.548 429.293 57.656 429.185 57.764C429.113 57.872 428.969 57.962 428.753 58.034C428.321 58.178 427.187 58.574 425.351 59.222C423.515 59.834 421.301 60.608 418.709 61.544C416.153 62.48 413.471 63.452 410.663 64.46C407.855 65.432 405.227 66.368 402.779 67.268C400.331 68.132 398.333 68.834 396.785 69.374C395.273 69.914 394.517 70.184 394.517 70.184L394.301 69.212Z" fill="black"/>
<path d="M386.61 52.364C386.61 56.54 386.052 60.608 384.936 64.568C383.82 68.528 382.272 72.218 380.292 75.638C378.312 79.058 376.026 82.064 373.434 84.656C370.842 87.248 368.07 89.282 365.118 90.758C362.166 92.198 359.178 92.918 356.154 92.918C353.562 92.918 351.546 92.252 350.106 90.92C348.666 89.588 347.946 87.5 347.946 84.656C347.946 81.704 348.576 78.878 349.836 76.178C351.132 73.478 352.734 70.94 354.642 68.564C356.55 66.188 358.476 63.992 360.42 61.976C362.4 59.96 364.11 58.178 365.55 56.63C366.99 55.046 367.836 53.696 368.088 52.58L368.358 53.336C366.558 53.336 364.812 53.12 363.12 52.688C361.464 52.22 359.862 51.698 358.314 51.122C356.766 50.546 355.272 50.024 353.832 49.556C352.428 49.052 351.078 48.782 349.782 48.746C347.982 48.674 346.542 49.07 345.462 49.934C344.418 50.798 343.86 51.806 343.788 52.958C343.608 54.434 344.67 55.496 346.974 56.144C348.414 56.504 349.476 57.008 350.16 57.656C350.844 58.268 351.15 59.06 351.078 60.032C351.006 60.86 350.628 61.526 349.944 62.03C349.296 62.534 348.45 62.786 347.406 62.786C345.714 62.786 344.328 62.138 343.248 60.842C342.204 59.546 341.808 57.872 342.06 55.82C342.276 53.66 343.014 51.698 344.274 49.934C345.534 48.17 347.136 46.766 349.08 45.722C351.024 44.678 353.148 44.156 355.452 44.156C356.856 44.156 358.368 44.3 359.988 44.588C361.644 44.876 363.192 45.164 364.632 45.452C366.072 45.74 367.206 45.884 368.034 45.884C368.574 45.884 368.988 45.776 369.276 45.56C369.6 45.308 369.87 45.074 370.086 44.858C370.302 44.606 370.5 44.48 370.68 44.48C370.824 44.48 370.932 44.552 371.004 44.696C371.076 44.84 371.094 45.038 371.058 45.29C370.986 46.514 370.536 48.134 369.708 50.15C368.88 52.13 367.89 54.398 366.738 56.954C365.586 59.51 364.434 62.21 363.282 65.054C362.13 67.898 361.176 70.76 360.42 73.64C359.664 76.52 359.286 79.292 359.286 81.956C359.286 84.404 359.646 86.204 360.366 87.356C361.086 88.472 362.112 89.048 363.444 89.084C365.388 89.084 367.494 88.256 369.762 86.6C372.03 84.944 374.172 82.748 376.188 80.012C378.24 77.24 379.932 74.18 381.264 70.832C382.596 67.448 383.316 64.01 383.424 60.518C383.496 59.006 383.28 57.89 382.776 57.17C382.308 56.45 381.642 55.766 380.778 55.118C379.518 54.254 378.618 53.372 378.078 52.472C377.574 51.536 377.358 50.492 377.43 49.34C377.466 48.404 377.718 47.558 378.186 46.802C378.654 46.01 379.248 45.38 379.968 44.912C380.688 44.408 381.462 44.156 382.29 44.156C383.694 44.156 384.756 44.84 385.476 46.208C386.232 47.54 386.61 49.592 386.61 52.364Z" fill="black"/>
<path d="M329.12 80.8219C328.076 84.0259 327.698 86.1859 327.986 87.3019C328.274 88.4179 328.904 88.9759 329.876 88.9759C330.668 88.9759 331.55 88.6519 332.522 88.0039C333.494 87.3559 334.7 86.1499 336.14 84.3859C336.356 84.1339 336.5 83.9719 336.572 83.8999C336.68 83.7919 336.788 83.7739 336.896 83.8459C337.04 83.8819 337.094 83.9899 337.058 84.1699C337.022 84.3139 336.932 84.5299 336.788 84.8179C335.24 87.3379 333.368 89.3179 331.172 90.7579C328.976 92.1979 326.456 92.9179 323.612 92.9179C321.884 92.9179 320.552 92.5759 319.616 91.8919C318.716 91.1719 318.23 90.0739 318.158 88.5979C318.086 87.1219 318.41 85.2859 319.13 83.0899L327.716 57.3859C328.832 54.0019 329.3 51.7159 329.12 50.5279C328.94 49.3039 328.31 48.6919 327.23 48.6919C326.51 48.6919 325.646 49.0159 324.638 49.6639C323.63 50.3119 322.298 51.5899 320.642 53.4979C320.498 53.6779 320.372 53.8039 320.264 53.8759C320.156 53.9119 320.048 53.9299 319.94 53.9299C319.832 53.8579 319.796 53.7679 319.832 53.6599C319.868 53.5519 319.94 53.3899 320.048 53.1739C321.92 50.2939 324.008 48.0619 326.312 46.4779C328.616 44.8939 330.974 44.1019 333.386 44.1019C334.934 44.1019 336.176 44.4799 337.112 45.2359C338.084 45.9559 338.642 47.1079 338.786 48.6919C338.966 50.2399 338.642 52.2559 337.814 54.7399L329.12 80.8219ZM336.086 36.0019C334.754 36.0019 333.728 35.6419 333.008 34.9219C332.324 34.2019 331.982 33.3019 331.982 32.2219C331.982 31.0339 332.342 29.7199 333.062 28.2799C333.782 26.8039 334.718 25.5439 335.87 24.4999C337.058 23.4199 338.354 22.8799 339.758 22.8799C341.306 22.8799 342.422 23.2579 343.106 24.0139C343.79 24.7339 344.114 25.6159 344.078 26.6599C344.078 28.0999 343.736 29.5399 343.052 30.9799C342.368 32.4199 341.414 33.6259 340.19 34.5979C339.002 35.5339 337.634 36.0019 336.086 36.0019Z" fill="black"/>
<path d="M292.303 91.892C294.679 91.892 296.659 91.19 298.243 89.786C299.863 88.346 300.673 86.528 300.673 84.332C300.673 83.216 300.439 82.118 299.971 81.038C299.539 79.922 298.765 78.68 297.649 77.312C296.533 75.944 294.985 74.288 293.005 72.344C290.809 70.256 289.045 68.456 287.713 66.944C286.417 65.396 285.499 63.938 284.959 62.57C284.419 61.166 284.185 59.654 284.257 58.034C284.365 55.514 285.193 53.192 286.741 51.068C288.325 48.908 290.485 47.18 293.221 45.884C295.993 44.552 299.161 43.886 302.725 43.886C305.713 43.886 308.215 44.282 310.231 45.074C312.283 45.83 313.813 46.82 314.821 48.044C315.865 49.232 316.405 50.492 316.441 51.824C316.477 52.976 316.189 53.894 315.577 54.578C315.001 55.226 314.263 55.55 313.363 55.55C312.319 55.55 311.419 55.172 310.663 54.416C309.943 53.66 309.295 52.31 308.719 50.366C308.035 48.458 307.117 47.072 305.965 46.208C304.813 45.344 303.481 44.912 301.969 44.912C299.341 44.912 297.163 45.704 295.435 47.288C293.743 48.872 292.897 50.96 292.897 53.552C292.897 54.884 293.095 56.162 293.491 57.386C293.923 58.574 294.769 59.942 296.029 61.49C297.325 63.002 299.233 64.928 301.753 67.268C303.805 69.176 305.425 70.85 306.613 72.29C307.801 73.694 308.611 75.044 309.043 76.34C309.511 77.636 309.673 79.058 309.529 80.606C309.349 83.018 308.467 85.16 306.883 87.032C305.299 88.868 303.193 90.308 300.565 91.352C297.973 92.396 294.985 92.918 291.601 92.918C288.541 92.918 285.913 92.45 283.717 91.514C281.521 90.578 279.847 89.372 278.695 87.896C277.543 86.384 276.967 84.818 276.967 83.198C276.967 82.154 277.201 81.308 277.669 80.66C278.173 79.976 278.893 79.634 279.829 79.634C280.909 79.634 281.809 80.048 282.529 80.876C283.249 81.704 283.897 83.09 284.473 85.034C285.553 87.554 286.723 89.336 287.983 90.38C289.279 91.388 290.719 91.892 292.303 91.892Z" fill="black"/>
<path d="M255.309 91.892C257.685 91.892 259.665 91.19 261.249 89.786C262.869 88.346 263.679 86.528 263.679 84.332C263.679 83.216 263.445 82.118 262.977 81.038C262.545 79.922 261.771 78.68 260.655 77.312C259.539 75.944 257.991 74.288 256.011 72.344C253.815 70.256 252.051 68.456 250.719 66.944C249.423 65.396 248.505 63.938 247.965 62.57C247.425 61.166 247.191 59.654 247.263 58.034C247.371 55.514 248.199 53.192 249.747 51.068C251.331 48.908 253.491 47.18 256.227 45.884C258.999 44.552 262.167 43.886 265.731 43.886C268.719 43.886 271.221 44.282 273.237 45.074C275.289 45.83 276.819 46.82 277.827 48.044C278.871 49.232 279.411 50.492 279.447 51.824C279.483 52.976 279.195 53.894 278.583 54.578C278.007 55.226 277.269 55.55 276.369 55.55C275.325 55.55 274.425 55.172 273.669 54.416C272.949 53.66 272.301 52.31 271.725 50.366C271.041 48.458 270.123 47.072 268.971 46.208C267.819 45.344 266.487 44.912 264.975 44.912C262.347 44.912 260.169 45.704 258.441 47.288C256.749 48.872 255.903 50.96 255.903 53.552C255.903 54.884 256.101 56.162 256.497 57.386C256.929 58.574 257.775 59.942 259.035 61.49C260.331 63.002 262.239 64.928 264.759 67.268C266.811 69.176 268.431 70.85 269.619 72.29C270.807 73.694 271.617 75.044 272.049 76.34C272.517 77.636 272.679 79.058 272.535 80.606C272.355 83.018 271.473 85.16 269.889 87.032C268.305 88.868 266.199 90.308 263.571 91.352C260.979 92.396 257.991 92.918 254.607 92.918C251.547 92.918 248.919 92.45 246.723 91.514C244.527 90.578 242.853 89.372 241.701 87.896C240.549 86.384 239.973 84.818 239.973 83.198C239.973 82.154 240.207 81.308 240.675 80.66C241.179 79.976 241.899 79.634 242.835 79.634C243.915 79.634 244.815 80.048 245.535 80.876C246.255 81.704 246.903 83.09 247.479 85.034C248.559 87.554 249.729 89.336 250.989 90.38C252.285 91.388 253.725 91.892 255.309 91.892Z" fill="black"/>
<path d="M207.326 69.212C207.326 69.212 208.028 68.96 209.432 68.456C210.836 67.916 212.636 67.25 214.832 66.458C217.028 65.63 219.314 64.766 221.69 63.866C224.066 62.966 226.244 62.156 228.224 61.436C230.24 60.716 231.734 60.194 232.706 59.87L231.734 60.842C232.058 60.086 232.31 59.15 232.49 58.034C232.706 56.882 232.832 55.442 232.868 53.714C232.868 51.158 232.436 49.07 231.572 47.45C230.744 45.794 229.592 44.966 228.116 44.966C226.46 44.966 224.804 45.578 223.148 46.802C221.528 47.99 219.98 49.718 218.504 51.986C217.028 54.254 215.732 56.972 214.616 60.14C213.536 63.308 212.708 66.872 212.132 70.832C211.376 76.412 211.88 80.678 213.644 83.63C215.444 86.582 218.216 88.058 221.96 88.058C224.084 88.058 226.1 87.626 228.008 86.762C229.916 85.862 231.662 84.494 233.246 82.658C234.866 80.822 236.27 78.5 237.458 75.692C237.602 75.476 237.71 75.332 237.782 75.26C237.89 75.152 238.016 75.116 238.16 75.152C238.304 75.152 238.394 75.242 238.43 75.422C238.466 75.566 238.43 75.764 238.322 76.016C236.954 79.58 235.19 82.622 233.03 85.142C230.906 87.662 228.386 89.588 225.47 90.92C222.59 92.252 219.368 92.918 215.804 92.918C212.528 92.918 209.756 92.162 207.488 90.65C205.256 89.102 203.636 86.834 202.628 83.846C201.656 80.822 201.458 77.132 202.034 72.776C202.538 68.852 203.6 65.144 205.22 61.652C206.84 58.16 208.856 55.082 211.268 52.418C213.716 49.754 216.416 47.666 219.368 46.154C222.356 44.642 225.434 43.886 228.602 43.886C231.23 43.886 233.408 44.462 235.136 45.614C236.864 46.73 238.142 48.206 238.97 50.042C239.834 51.878 240.23 53.858 240.158 55.982C240.158 56.378 240.266 56.684 240.482 56.9C240.698 57.08 241.094 57.152 241.67 57.116C241.886 57.08 242.048 57.098 242.156 57.17C242.264 57.242 242.318 57.332 242.318 57.44C242.354 57.548 242.318 57.656 242.21 57.764C242.138 57.872 241.994 57.962 241.778 58.034C241.346 58.178 240.212 58.574 238.376 59.222C236.54 59.834 234.326 60.608 231.734 61.544C229.178 62.48 226.496 63.452 223.688 64.46C220.88 65.432 218.252 66.368 215.804 67.268C213.356 68.132 211.358 68.834 209.81 69.374C208.298 69.914 207.542 70.184 207.542 70.184L207.326 69.212Z" fill="black"/>
<path d="M167.045 53.93C166.973 53.8581 166.937 53.7681 166.937 53.66C166.973 53.552 167.045 53.39 167.153 53.174C168.413 51.2661 169.781 49.6461 171.257 48.3141C172.769 46.9461 174.335 45.9021 175.955 45.1821C177.575 44.4621 179.177 44.1021 180.761 44.1021C182.417 44.1021 183.659 44.4981 184.487 45.2901C185.315 46.0461 185.729 47.162 185.729 48.6381C185.729 49.7901 185.549 51.0501 185.189 52.4181C184.865 53.7861 184.379 55.3701 183.731 57.1701C183.083 58.9701 182.327 61.1121 181.463 63.5961C180.599 66.0801 179.663 69.0141 178.655 72.3981L178.277 72.2361C179.573 68.2401 181.049 64.5501 182.705 61.1661C184.397 57.7461 186.215 54.7581 188.159 52.202C190.139 49.646 192.155 47.6661 194.207 46.2621C196.295 44.8221 198.383 44.1021 200.471 44.1021C202.415 44.1021 203.837 44.7681 204.737 46.1001C205.673 47.3961 206.033 49.0341 205.817 51.014C205.673 52.346 205.313 53.4981 204.737 54.4701C204.197 55.4421 203.495 56.198 202.631 56.738C201.803 57.242 200.885 57.494 199.877 57.494C198.869 57.494 198.041 57.242 197.393 56.738C196.781 56.234 196.475 55.5141 196.475 54.5781C196.475 53.8581 196.547 53.192 196.691 52.5801C196.871 51.9321 196.961 51.3201 196.961 50.744C196.961 50.024 196.835 49.4661 196.583 49.0701C196.367 48.6741 195.971 48.4761 195.395 48.4761C193.919 48.4761 192.173 49.4661 190.157 51.4461C188.177 53.4261 186.125 56.414 184.001 60.41C181.877 64.406 179.897 69.4461 178.061 75.5301C177.413 77.6901 176.873 79.5441 176.441 81.0921C176.009 82.6401 175.793 83.9901 175.793 85.1421C175.793 85.8261 175.937 86.3841 176.225 86.8161C176.549 87.2121 176.855 87.5541 177.143 87.8421C177.467 88.1301 177.629 88.4361 177.629 88.7601C177.629 89.2641 177.197 89.8581 176.333 90.5421C175.505 91.1901 174.353 91.7481 172.877 92.2161C171.437 92.6841 169.853 92.9181 168.125 92.9181C167.009 92.9181 166.199 92.6841 165.695 92.2161C165.227 91.7481 165.011 91.0641 165.047 90.1641C165.119 89.2281 165.353 88.0581 165.749 86.6541L174.875 57.3321C175.955 53.9121 176.405 51.6261 176.225 50.4741C176.045 49.2861 175.433 48.6921 174.389 48.6921C173.633 48.6921 172.751 49.0161 171.743 49.6641C170.735 50.3121 169.421 51.5901 167.801 53.4981C167.657 53.6781 167.513 53.8041 167.369 53.8761C167.261 53.9121 167.153 53.93 167.045 53.93Z" fill="black"/>
<path d="M140.998 35.7319L119.344 112.79C119.02 113.87 118.912 114.68 119.02 115.22C119.164 115.796 119.776 116.156 120.856 116.3L125.122 116.84C125.338 116.84 125.482 116.876 125.554 116.948C125.662 117.02 125.716 117.128 125.716 117.272C125.716 117.38 125.662 117.47 125.554 117.542C125.482 117.614 125.32 117.65 125.068 117.65L103.954 118.028C103.774 118.028 103.648 117.992 103.576 117.92C103.468 117.884 103.414 117.812 103.414 117.704C103.414 117.596 103.468 117.506 103.576 117.434C103.648 117.362 103.792 117.29 104.008 117.218C105.304 117.038 106.33 116.804 107.086 116.516C107.806 116.264 108.364 115.904 108.76 115.436C109.12 114.968 109.408 114.338 109.624 113.546L130.954 40.0519C131.062 39.7279 131.422 39.3319 132.034 38.8639C132.646 38.3959 133.384 37.9279 134.248 37.4599C135.112 36.9559 135.976 36.4879 136.84 36.0559C137.74 35.5879 138.532 35.2279 139.216 34.9759C139.9 34.6879 140.35 34.5439 140.566 34.5439C140.818 34.5439 140.98 34.6519 141.052 34.8679C141.124 35.0479 141.106 35.3359 140.998 35.7319ZM120.262 55.9279C120.118 56.1079 119.956 56.2159 119.776 56.2519C119.632 56.2879 119.488 56.2699 119.344 56.1979C119.236 56.0539 119.182 55.8919 119.182 55.7119C119.218 55.5319 119.29 55.3699 119.398 55.2259C121.486 52.6699 123.79 50.4919 126.31 48.6919C128.83 46.8919 131.602 45.5599 134.626 44.6959C137.686 43.8319 141.052 43.4899 144.724 43.6699C148.684 43.8499 151.96 44.9119 154.552 46.8559C157.144 48.7639 158.98 51.3919 160.06 54.7399C161.176 58.0519 161.482 61.9219 160.978 66.3499C160.366 71.5699 158.728 76.1959 156.064 80.2279C153.436 84.2599 150.16 87.4099 146.236 89.6779C142.348 91.9099 138.226 92.9719 133.87 92.8639C131.134 92.7919 128.866 92.2339 127.066 91.1899C125.302 90.1459 123.934 88.6699 122.962 86.7619L123.826 86.3839C124.654 87.9319 125.734 89.1019 127.066 89.8939C128.434 90.6859 129.964 91.1179 131.656 91.1899C134.5 91.2979 137.218 90.3979 139.81 88.4899C142.438 86.5819 144.742 83.7559 146.722 80.0119C148.702 76.2319 150.106 71.5879 150.934 66.0799C151.69 61.3639 151.816 57.4579 151.312 54.3619C150.844 51.2659 149.908 48.9259 148.504 47.3419C147.136 45.7579 145.408 44.8759 143.32 44.6959C139.144 44.4799 135.058 45.2899 131.062 47.1259C127.102 48.9619 123.502 51.8959 120.262 55.9279Z" fill="black"/>
<path d="M86.707 68.8341L87.733 69.1581C86.473 73.7301 85.177 77.5461 83.845 80.6061C82.549 83.6301 81.199 86.0421 79.795 87.8421C78.427 89.6421 76.987 90.9201 75.475 91.6761C73.999 92.4321 72.433 92.8101 70.777 92.8101C68.581 92.8101 66.871 92.2341 65.647 91.0821C64.459 89.8941 63.901 88.2021 63.973 86.0061C64.009 84.2421 64.459 82.7121 65.323 81.4161C66.223 80.1201 67.393 79.4721 68.833 79.4721C69.769 79.4721 70.525 79.7961 71.101 80.4441C71.677 81.0921 71.965 81.9381 71.965 82.9821C71.965 83.9181 71.785 84.9081 71.425 85.9521C71.101 86.9601 70.939 87.8601 70.939 88.6521C70.939 89.2281 71.137 89.7141 71.533 90.1101C71.929 90.4701 72.505 90.6501 73.261 90.6501C74.413 90.6501 75.727 90.056 77.203 88.868C78.679 87.68 80.227 85.5201 81.847 82.3881C83.503 79.2201 85.123 74.7021 86.707 68.8341ZM94.375 54.3621L96.319 80.4981C96.499 82.8741 97.003 84.6741 97.831 85.8981C98.659 87.0861 99.919 87.6801 101.611 87.6801C102.907 87.6801 104.113 87.2481 105.229 86.3841C106.345 85.4841 107.641 83.738 109.117 81.146C109.261 80.894 109.387 80.732 109.495 80.66C109.639 80.588 109.765 80.5701 109.873 80.6061C110.017 80.6781 110.107 80.7861 110.143 80.9301C110.179 81.0741 110.143 81.2361 110.035 81.4161C108.847 83.8281 107.533 85.8981 106.093 87.6261C104.689 89.3541 103.159 90.6861 101.503 91.6221C99.883 92.5221 98.119 92.9721 96.211 92.9721C94.051 92.9721 92.359 92.5581 91.135 91.7301C89.947 90.8661 89.065 89.588 88.489 87.896C87.913 86.168 87.517 84.08 87.301 81.632L85.411 56.252C85.231 53.552 84.763 51.6621 84.007 50.5821C83.251 49.5021 82.207 48.9621 80.875 48.9621C79.507 48.9621 78.211 49.4481 76.987 50.4201C75.799 51.3921 74.449 53.1201 72.937 55.6041C72.793 55.8561 72.649 56.036 72.505 56.1441C72.397 56.2521 72.271 56.2701 72.127 56.1981C71.983 56.1621 71.911 56.0721 71.911 55.9281C71.911 55.7481 71.965 55.568 72.073 55.3881C73.333 53.0481 74.701 51.0501 76.177 49.3941C77.653 47.7021 79.237 46.4061 80.929 45.5061C82.657 44.5701 84.547 44.1021 86.599 44.1021C88.219 44.1021 89.569 44.4801 90.649 45.236C91.729 45.9561 92.575 47.0721 93.187 48.5841C93.799 50.0961 94.195 52.0221 94.375 54.3621ZM95.185 70.6161L94.375 70.4541C95.815 65.2701 97.273 60.9861 98.749 57.6021C100.225 54.182 101.701 51.5001 103.177 49.5561C104.653 47.6121 106.129 46.244 107.605 45.452C109.081 44.624 110.539 44.2101 111.979 44.2101C114.139 44.2101 115.795 44.876 116.947 46.208C118.135 47.54 118.675 49.214 118.567 51.23C118.495 53.498 117.973 55.2441 117.001 56.4681C116.029 57.6921 114.913 58.3041 113.653 58.3041C112.645 58.3041 111.835 57.9981 111.223 57.3861C110.647 56.7741 110.413 55.946 110.521 54.9021C110.593 54.0381 110.827 53.0841 111.223 52.0401C111.655 50.9601 111.871 49.8621 111.871 48.7461C111.871 48.1701 111.655 47.7381 111.223 47.4501C110.791 47.1261 110.179 46.9641 109.387 46.9641C108.415 46.9641 107.407 47.3421 106.363 48.0981C105.319 48.8541 104.203 50.1321 103.015 51.9321C101.827 53.6961 100.585 56.1081 99.289 59.1681C97.993 62.1921 96.625 66.008 95.185 70.6161Z" fill="black"/>
<path d="M32.5608 69.212C32.5608 69.212 33.2628 68.96 34.6668 68.456C36.0708 67.916 37.8708 67.25 40.0668 66.458C42.2628 65.63 44.5488 64.766 46.9248 63.866C49.3008 62.966 51.4788 62.156 53.4588 61.436C55.4748 60.716 56.9688 60.194 57.9408 59.87L56.9688 60.842C57.2928 60.086 57.5448 59.15 57.7248 58.034C57.9408 56.882 58.0668 55.442 58.1028 53.714C58.1028 51.158 57.6708 49.07 56.8068 47.45C55.9788 45.794 54.8268 44.966 53.3508 44.966C51.6948 44.966 50.0388 45.578 48.3828 46.802C46.7628 47.99 45.2148 49.718 43.7388 51.986C42.2628 54.254 40.9668 56.972 39.8508 60.14C38.7708 63.308 37.9428 66.872 37.3668 70.832C36.6108 76.412 37.1148 80.678 38.8788 83.63C40.6788 86.582 43.4508 88.058 47.1948 88.058C49.3188 88.058 51.3348 87.626 53.2428 86.762C55.1508 85.862 56.8968 84.494 58.4808 82.658C60.1008 80.822 61.5048 78.5 62.6928 75.692C62.8368 75.476 62.9448 75.332 63.0168 75.26C63.1248 75.152 63.2508 75.116 63.3948 75.152C63.5388 75.152 63.6288 75.242 63.6648 75.422C63.7008 75.566 63.6648 75.764 63.5568 76.016C62.1888 79.58 60.4248 82.622 58.2648 85.142C56.1408 87.662 53.6208 89.588 50.7048 90.92C47.8248 92.252 44.6028 92.918 41.0388 92.918C37.7628 92.918 34.9908 92.162 32.7228 90.65C30.4908 89.102 28.8708 86.834 27.8628 83.846C26.8908 80.822 26.6928 77.132 27.2688 72.776C27.7728 68.852 28.8348 65.144 30.4548 61.652C32.0748 58.16 34.0908 55.082 36.5028 52.418C38.9508 49.754 41.6508 47.666 44.6028 46.154C47.5908 44.642 50.6688 43.886 53.8368 43.886C56.4648 43.886 58.6428 44.462 60.3708 45.614C62.0988 46.73 63.3768 48.206 64.2048 50.042C65.0688 51.878 65.4648 53.858 65.3928 55.982C65.3928 56.378 65.5008 56.684 65.7168 56.9C65.9328 57.08 66.3288 57.152 66.9048 57.116C67.1208 57.08 67.2828 57.098 67.3908 57.17C67.4988 57.242 67.5528 57.332 67.5528 57.44C67.5888 57.548 67.5528 57.656 67.4448 57.764C67.3728 57.872 67.2288 57.962 67.0128 58.034C66.5808 58.178 65.4468 58.574 63.6108 59.222C61.7748 59.834 59.5608 60.608 56.9688 61.544C54.4128 62.48 51.7308 63.452 48.9228 64.46C46.1148 65.432 43.4868 66.368 41.0388 67.268C38.5908 68.132 36.5928 68.834 35.0448 69.374C33.5328 69.914 32.7768 70.184 32.7768 70.184L32.5608 69.212Z" fill="black"/>
</svg>
