<svg width="410" height="120" viewBox="0 0 410 120" fill="none" xmlns="http://www.w3.org/2000/svg">
<path d="M370.301 69.212C370.301 69.212 371.003 68.96 372.407 68.456C373.811 67.916 375.611 67.25 377.807 66.458C380.003 65.63 382.289 64.766 384.665 63.866C387.041 62.966 389.219 62.156 391.199 61.436C393.215 60.716 394.709 60.194 395.681 59.87L394.709 60.842C395.033 60.086 395.285 59.15 395.465 58.034C395.681 56.882 395.807 55.442 395.843 53.714C395.843 51.158 395.411 49.07 394.547 47.45C393.719 45.794 392.567 44.966 391.091 44.966C389.435 44.966 387.779 45.578 386.123 46.802C384.503 47.99 382.955 49.718 381.479 51.986C380.003 54.254 378.707 56.972 377.591 60.14C376.511 63.308 375.683 66.872 375.107 70.832C374.351 76.412 374.855 80.678 376.619 83.63C378.419 86.582 381.191 88.058 384.935 88.058C387.059 88.058 389.075 87.626 390.983 86.762C392.891 85.862 394.637 84.494 396.221 82.658C397.841 80.822 399.245 78.5 400.433 75.692C400.577 75.476 400.685 75.332 400.757 75.26C400.865 75.152 400.991 75.116 401.135 75.152C401.279 75.152 401.369 75.242 401.405 75.422C401.441 75.566 401.405 75.764 401.297 76.016C399.929 79.58 398.165 82.622 396.005 85.142C393.881 87.662 391.361 89.588 388.445 90.92C385.565 92.252 382.343 92.918 378.779 92.918C375.503 92.918 372.731 92.162 370.463 90.65C368.231 89.102 366.611 86.834 365.603 83.846C364.631 80.822 364.433 77.132 365.009 72.776C365.513 68.852 366.575 65.144 368.195 61.652C369.815 58.16 371.831 55.082 374.243 52.418C376.691 49.754 379.391 47.666 382.343 46.154C385.331 44.642 388.409 43.886 391.577 43.886C394.205 43.886 396.383 44.462 398.111 45.614C399.839 46.73 401.117 48.206 401.945 50.042C402.809 51.878 403.205 53.858 403.133 55.982C403.133 56.378 403.241 56.684 403.457 56.9C403.673 57.08 404.069 57.152 404.645 57.116C404.861 57.08 405.023 57.098 405.131 57.17C405.239 57.242 405.293 57.332 405.293 57.44C405.329 57.548 405.293 57.656 405.185 57.764C405.113 57.872 404.969 57.962 404.753 58.034C404.321 58.178 403.187 58.574 401.351 59.222C399.515 59.834 397.301 60.608 394.709 61.544C392.153 62.48 389.471 63.452 386.663 64.46C383.855 65.432 381.227 66.368 378.779 67.268C376.331 68.132 374.333 68.834 372.785 69.374C371.273 69.914 370.517 70.184 370.517 70.184L370.301 69.212Z" fill="black"/>
<path d="M362.61 52.364C362.61 56.54 362.052 60.608 360.936 64.568C359.82 68.528 358.272 72.218 356.292 75.638C354.312 79.058 352.026 82.064 349.434 84.656C346.842 87.248 344.07 89.282 341.118 90.758C338.166 92.198 335.178 92.918 332.154 92.918C329.562 92.918 327.546 92.252 326.106 90.92C324.666 89.588 323.946 87.5 323.946 84.656C323.946 81.704 324.576 78.878 325.836 76.178C327.132 73.478 328.734 70.94 330.642 68.564C332.55 66.188 334.476 63.992 336.42 61.976C338.4 59.96 340.11 58.178 341.55 56.63C342.99 55.046 343.836 53.696 344.088 52.58L344.358 53.336C342.558 53.336 340.812 53.12 339.12 52.688C337.464 52.22 335.862 51.698 334.314 51.122C332.766 50.546 331.272 50.024 329.832 49.556C328.428 49.052 327.078 48.782 325.782 48.746C323.982 48.674 322.542 49.07 321.462 49.934C320.418 50.798 319.86 51.806 319.788 52.958C319.608 54.434 320.67 55.496 322.974 56.144C324.414 56.504 325.476 57.008 326.16 57.656C326.844 58.268 327.15 59.06 327.078 60.032C327.006 60.86 326.628 61.526 325.944 62.03C325.296 62.534 324.45 62.786 323.406 62.786C321.714 62.786 320.328 62.138 319.248 60.842C318.204 59.546 317.808 57.872 318.06 55.82C318.276 53.66 319.014 51.698 320.274 49.934C321.534 48.17 323.136 46.766 325.08 45.722C327.024 44.678 329.148 44.156 331.452 44.156C332.856 44.156 334.368 44.3 335.988 44.588C337.644 44.876 339.192 45.164 340.632 45.452C342.072 45.74 343.206 45.884 344.034 45.884C344.574 45.884 344.988 45.776 345.276 45.56C345.6 45.308 345.87 45.074 346.086 44.858C346.302 44.606 346.5 44.48 346.68 44.48C346.824 44.48 346.932 44.552 347.004 44.696C347.076 44.84 347.094 45.038 347.058 45.29C346.986 46.514 346.536 48.134 345.708 50.15C344.88 52.13 343.89 54.398 342.738 56.954C341.586 59.51 340.434 62.21 339.282 65.054C338.13 67.898 337.176 70.76 336.42 73.64C335.664 76.52 335.286 79.292 335.286 81.956C335.286 84.404 335.646 86.204 336.366 87.356C337.086 88.472 338.112 89.048 339.444 89.084C341.388 89.084 343.494 88.256 345.762 86.6C348.03 84.944 350.172 82.748 352.188 80.012C354.24 77.24 355.932 74.18 357.264 70.832C358.596 67.448 359.316 64.01 359.424 60.518C359.496 59.006 359.28 57.89 358.776 57.17C358.308 56.45 357.642 55.766 356.778 55.118C355.518 54.254 354.618 53.372 354.078 52.472C353.574 51.536 353.358 50.492 353.43 49.34C353.466 48.404 353.718 47.558 354.186 46.802C354.654 46.01 355.248 45.38 355.968 44.912C356.688 44.408 357.462 44.156 358.29 44.156C359.694 44.156 360.756 44.84 361.476 46.208C362.232 47.54 362.61 49.592 362.61 52.364Z" fill="black"/>
<path d="M305.12 80.8219C304.076 84.0259 303.698 86.1859 303.986 87.3019C304.274 88.4179 304.904 88.9759 305.876 88.9759C306.668 88.9759 307.55 88.6519 308.522 88.0039C309.494 87.3559 310.7 86.1499 312.14 84.3859C312.356 84.1339 312.5 83.9719 312.572 83.8999C312.68 83.7919 312.788 83.7739 312.896 83.8459C313.04 83.8819 313.094 83.9899 313.058 84.1699C313.022 84.3139 312.932 84.5299 312.788 84.8179C311.24 87.3379 309.368 89.3179 307.172 90.7579C304.976 92.1979 302.456 92.9179 299.612 92.9179C297.884 92.9179 296.552 92.5759 295.616 91.8919C294.716 91.1719 294.23 90.0739 294.158 88.5979C294.086 87.1219 294.41 85.2859 295.13 83.0899L303.716 57.3859C304.832 54.0019 305.3 51.7159 305.12 50.5279C304.94 49.3039 304.31 48.6919 303.23 48.6919C302.51 48.6919 301.646 49.0159 300.638 49.6639C299.63 50.3119 298.298 51.5899 296.642 53.4979C296.498 53.6779 296.372 53.8039 296.264 53.8759C296.156 53.9119 296.048 53.9299 295.94 53.9299C295.832 53.8579 295.796 53.7679 295.832 53.6599C295.868 53.5519 295.94 53.3899 296.048 53.1739C297.92 50.2939 300.008 48.0619 302.312 46.4779C304.616 44.8939 306.974 44.1019 309.386 44.1019C310.934 44.1019 312.176 44.4799 313.112 45.2359C314.084 45.9559 314.642 47.1079 314.786 48.6919C314.966 50.2399 314.642 52.2559 313.814 54.7399L305.12 80.8219ZM312.086 36.0019C310.754 36.0019 309.728 35.6419 309.008 34.9219C308.324 34.2019 307.982 33.3019 307.982 32.2219C307.982 31.0339 308.342 29.7199 309.062 28.2799C309.782 26.8039 310.718 25.5439 311.87 24.4999C313.058 23.4199 314.354 22.8799 315.758 22.8799C317.306 22.8799 318.422 23.2579 319.106 24.0139C319.79 24.7339 320.114 25.6159 320.078 26.6599C320.078 28.0999 319.736 29.5399 319.052 30.9799C318.368 32.4199 317.414 33.6259 316.19 34.5979C315.002 35.5339 313.634 36.0019 312.086 36.0019Z" fill="black"/>
<path d="M268.303 91.892C270.679 91.892 272.659 91.19 274.243 89.786C275.863 88.346 276.673 86.528 276.673 84.332C276.673 83.216 276.439 82.118 275.971 81.038C275.539 79.922 274.765 78.68 273.649 77.312C272.533 75.944 270.985 74.288 269.005 72.344C266.809 70.256 265.045 68.456 263.713 66.944C262.417 65.396 261.499 63.938 260.959 62.57C260.419 61.166 260.185 59.654 260.257 58.034C260.365 55.514 261.193 53.192 262.741 51.068C264.325 48.908 266.485 47.18 269.221 45.884C271.993 44.552 275.161 43.886 278.725 43.886C281.713 43.886 284.215 44.282 286.231 45.074C288.283 45.83 289.813 46.82 290.821 48.044C291.865 49.232 292.405 50.492 292.441 51.824C292.477 52.976 292.189 53.894 291.577 54.578C291.001 55.226 290.263 55.55 289.363 55.55C288.319 55.55 287.419 55.172 286.663 54.416C285.943 53.66 285.295 52.31 284.719 50.366C284.035 48.458 283.117 47.072 281.965 46.208C280.813 45.344 279.481 44.912 277.969 44.912C275.341 44.912 273.163 45.704 271.435 47.288C269.743 48.872 268.897 50.96 268.897 53.552C268.897 54.884 269.095 56.162 269.491 57.386C269.923 58.574 270.769 59.942 272.029 61.49C273.325 63.002 275.233 64.928 277.753 67.268C279.805 69.176 281.425 70.85 282.613 72.29C283.801 73.694 284.611 75.044 285.043 76.34C285.511 77.636 285.673 79.058 285.529 80.606C285.349 83.018 284.467 85.16 282.883 87.032C281.299 88.868 279.193 90.308 276.565 91.352C273.973 92.396 270.985 92.918 267.601 92.918C264.541 92.918 261.913 92.45 259.717 91.514C257.521 90.578 255.847 89.372 254.695 87.896C253.543 86.384 252.967 84.818 252.967 83.198C252.967 82.154 253.201 81.308 253.669 80.66C254.173 79.976 254.893 79.634 255.829 79.634C256.909 79.634 257.809 80.048 258.529 80.876C259.249 81.704 259.897 83.09 260.473 85.034C261.553 87.554 262.723 89.336 263.983 90.38C265.279 91.388 266.719 91.892 268.303 91.892Z" fill="black"/>
<path d="M231.309 91.892C233.685 91.892 235.665 91.19 237.249 89.786C238.869 88.346 239.679 86.528 239.679 84.332C239.679 83.216 239.445 82.118 238.977 81.038C238.545 79.922 237.771 78.68 236.655 77.312C235.539 75.944 233.991 74.288 232.011 72.344C229.815 70.256 228.051 68.456 226.719 66.944C225.423 65.396 224.505 63.938 223.965 62.57C223.425 61.166 223.191 59.654 223.263 58.034C223.371 55.514 224.199 53.192 225.747 51.068C227.331 48.908 229.491 47.18 232.227 45.884C234.999 44.552 238.167 43.886 241.731 43.886C244.719 43.886 247.221 44.282 249.237 45.074C251.289 45.83 252.819 46.82 253.827 48.044C254.871 49.232 255.411 50.492 255.447 51.824C255.483 52.976 255.195 53.894 254.583 54.578C254.007 55.226 253.269 55.55 252.369 55.55C251.325 55.55 250.425 55.172 249.669 54.416C248.949 53.66 248.301 52.31 247.725 50.366C247.041 48.458 246.123 47.072 244.971 46.208C243.819 45.344 242.487 44.912 240.975 44.912C238.347 44.912 236.169 45.704 234.441 47.288C232.749 48.872 231.903 50.96 231.903 53.552C231.903 54.884 232.101 56.162 232.497 57.386C232.929 58.574 233.775 59.942 235.035 61.49C236.331 63.002 238.239 64.928 240.759 67.268C242.811 69.176 244.431 70.85 245.619 72.29C246.807 73.694 247.617 75.044 248.049 76.34C248.517 77.636 248.679 79.058 248.535 80.606C248.355 83.018 247.473 85.16 245.889 87.032C244.305 88.868 242.199 90.308 239.571 91.352C236.979 92.396 233.991 92.918 230.607 92.918C227.547 92.918 224.919 92.45 222.723 91.514C220.527 90.578 218.853 89.372 217.701 87.896C216.549 86.384 215.973 84.818 215.973 83.198C215.973 82.154 216.207 81.308 216.675 80.66C217.179 79.976 217.899 79.634 218.835 79.634C219.915 79.634 220.815 80.048 221.535 80.876C222.255 81.704 222.903 83.09 223.479 85.034C224.559 87.554 225.729 89.336 226.989 90.38C228.285 91.388 229.725 91.892 231.309 91.892Z" fill="black"/>
<path d="M183.326 69.212C183.326 69.212 184.028 68.96 185.432 68.456C186.836 67.916 188.636 67.25 190.832 66.458C193.028 65.63 195.314 64.766 197.69 63.866C200.066 62.966 202.244 62.156 204.224 61.436C206.24 60.716 207.734 60.194 208.706 59.87L207.734 60.842C208.058 60.086 208.31 59.15 208.49 58.034C208.706 56.882 208.832 55.442 208.868 53.714C208.868 51.158 208.436 49.07 207.572 47.45C206.744 45.794 205.592 44.966 204.116 44.966C202.46 44.966 200.804 45.578 199.148 46.802C197.528 47.99 195.98 49.718 194.504 51.986C193.028 54.254 191.732 56.972 190.616 60.14C189.536 63.308 188.708 66.872 188.132 70.832C187.376 76.412 187.88 80.678 189.644 83.63C191.444 86.582 194.216 88.058 197.96 88.058C200.084 88.058 202.1 87.626 204.008 86.762C205.916 85.862 207.662 84.494 209.246 82.658C210.866 80.822 212.27 78.5 213.458 75.692C213.602 75.476 213.71 75.332 213.782 75.26C213.89 75.152 214.016 75.116 214.16 75.152C214.304 75.152 214.394 75.242 214.43 75.422C214.466 75.566 214.43 75.764 214.322 76.016C212.954 79.58 211.19 82.622 209.03 85.142C206.906 87.662 204.386 89.588 201.47 90.92C198.59 92.252 195.368 92.918 191.804 92.918C188.528 92.918 185.756 92.162 183.488 90.65C181.256 89.102 179.636 86.834 178.628 83.846C177.656 80.822 177.458 77.132 178.034 72.776C178.538 68.852 179.6 65.144 181.22 61.652C182.84 58.16 184.856 55.082 187.268 52.418C189.716 49.754 192.416 47.666 195.368 46.154C198.356 44.642 201.434 43.886 204.602 43.886C207.23 43.886 209.408 44.462 211.136 45.614C212.864 46.73 214.142 48.206 214.97 50.042C215.834 51.878 216.23 53.858 216.158 55.982C216.158 56.378 216.266 56.684 216.482 56.9C216.698 57.08 217.094 57.152 217.67 57.116C217.886 57.08 218.048 57.098 218.156 57.17C218.264 57.242 218.318 57.332 218.318 57.44C218.354 57.548 218.318 57.656 218.21 57.764C218.138 57.872 217.994 57.962 217.778 58.034C217.346 58.178 216.212 58.574 214.376 59.222C212.54 59.834 210.326 60.608 207.734 61.544C205.178 62.48 202.496 63.452 199.688 64.46C196.88 65.432 194.252 66.368 191.804 67.268C189.356 68.132 187.358 68.834 185.81 69.374C184.298 69.914 183.542 70.184 183.542 70.184L183.326 69.212Z" fill="black"/>
<path d="M143.045 53.93C142.973 53.8581 142.937 53.7681 142.937 53.66C142.973 53.552 143.045 53.39 143.153 53.174C144.413 51.2661 145.781 49.6461 147.257 48.3141C148.769 46.9461 150.335 45.9021 151.955 45.1821C153.575 44.4621 155.177 44.1021 156.761 44.1021C158.417 44.1021 159.659 44.4981 160.487 45.2901C161.315 46.0461 161.729 47.162 161.729 48.6381C161.729 49.7901 161.549 51.0501 161.189 52.4181C160.865 53.7861 160.379 55.3701 159.731 57.1701C159.083 58.9701 158.327 61.1121 157.463 63.5961C156.599 66.0801 155.663 69.0141 154.655 72.3981L154.277 72.2361C155.573 68.2401 157.049 64.5501 158.705 61.1661C160.397 57.7461 162.215 54.7581 164.159 52.202C166.139 49.646 168.155 47.6661 170.207 46.2621C172.295 44.8221 174.383 44.1021 176.471 44.1021C178.415 44.1021 179.837 44.7681 180.737 46.1001C181.673 47.3961 182.033 49.0341 181.817 51.014C181.673 52.346 181.313 53.4981 180.737 54.4701C180.197 55.4421 179.495 56.198 178.631 56.738C177.803 57.242 176.885 57.494 175.877 57.494C174.869 57.494 174.041 57.242 173.393 56.738C172.781 56.234 172.475 55.5141 172.475 54.5781C172.475 53.8581 172.547 53.192 172.691 52.5801C172.871 51.9321 172.961 51.3201 172.961 50.744C172.961 50.024 172.835 49.4661 172.583 49.0701C172.367 48.6741 171.971 48.4761 171.395 48.4761C169.919 48.4761 168.173 49.4661 166.157 51.4461C164.177 53.4261 162.125 56.414 160.001 60.41C157.877 64.406 155.897 69.4461 154.061 75.5301C153.413 77.6901 152.873 79.5441 152.441 81.0921C152.009 82.6401 151.793 83.9901 151.793 85.1421C151.793 85.8261 151.937 86.3841 152.225 86.8161C152.549 87.2121 152.855 87.5541 153.143 87.8421C153.467 88.1301 153.629 88.4361 153.629 88.7601C153.629 89.2641 153.197 89.8581 152.333 90.5421C151.505 91.1901 150.353 91.7481 148.877 92.2161C147.437 92.6841 145.853 92.9181 144.125 92.9181C143.009 92.9181 142.199 92.6841 141.695 92.2161C141.227 91.7481 141.011 91.0641 141.047 90.1641C141.119 89.2281 141.353 88.0581 141.749 86.6541L150.875 57.3321C151.955 53.9121 152.405 51.6261 152.225 50.4741C152.045 49.2861 151.433 48.6921 150.389 48.6921C149.633 48.6921 148.751 49.0161 147.743 49.6641C146.735 50.3121 145.421 51.5901 143.801 53.4981C143.657 53.6781 143.513 53.8041 143.369 53.8761C143.261 53.9121 143.153 53.93 143.045 53.93Z" fill="black"/>
<path d="M116.998 35.7319L95.3441 112.79C95.0201 113.87 94.9121 114.68 95.0201 115.22C95.1641 115.796 95.7761 116.156 96.8561 116.3L101.122 116.84C101.338 116.84 101.482 116.876 101.554 116.948C101.662 117.02 101.716 117.128 101.716 117.272C101.716 117.38 101.662 117.47 101.554 117.542C101.482 117.614 101.32 117.65 101.068 117.65L79.9541 118.028C79.7741 118.028 79.6481 117.992 79.5761 117.92C79.4681 117.884 79.4141 117.812 79.4141 117.704C79.4141 117.596 79.4681 117.506 79.5761 117.434C79.6481 117.362 79.7921 117.29 80.0081 117.218C81.3041 117.038 82.3301 116.804 83.0861 116.516C83.8061 116.264 84.3641 115.904 84.7601 115.436C85.1201 114.968 85.4081 114.338 85.6241 113.546L106.954 40.0519C107.062 39.7279 107.422 39.3319 108.034 38.8639C108.646 38.3959 109.384 37.9279 110.248 37.4599C111.112 36.9559 111.976 36.4879 112.84 36.0559C113.74 35.5879 114.532 35.2279 115.216 34.9759C115.9 34.6879 116.35 34.5439 116.566 34.5439C116.818 34.5439 116.98 34.6519 117.052 34.8679C117.124 35.0479 117.106 35.3359 116.998 35.7319ZM96.2621 55.9279C96.1181 56.1079 95.9561 56.2159 95.7761 56.2519C95.6321 56.2879 95.4881 56.2699 95.3441 56.1979C95.2361 56.0539 95.1821 55.8919 95.1821 55.7119C95.2181 55.5319 95.2901 55.3699 95.3981 55.2259C97.4861 52.6699 99.7901 50.4919 102.31 48.6919C104.83 46.8919 107.602 45.5599 110.626 44.6959C113.686 43.8319 117.052 43.4899 120.724 43.6699C124.684 43.8499 127.96 44.9119 130.552 46.8559C133.144 48.7639 134.98 51.3919 136.06 54.7399C137.176 58.0519 137.482 61.9219 136.978 66.3499C136.366 71.5699 134.728 76.1959 132.064 80.2279C129.436 84.2599 126.16 87.4099 122.236 89.6779C118.348 91.9099 114.226 92.9719 109.87 92.8639C107.134 92.7919 104.866 92.2339 103.066 91.1899C101.302 90.1459 99.9341 88.6699 98.9621 86.7619L99.8261 86.3839C100.654 87.9319 101.734 89.1019 103.066 89.8939C104.434 90.6859 105.964 91.1179 107.656 91.1899C110.5 91.2979 113.218 90.3979 115.81 88.4899C118.438 86.5819 120.742 83.7559 122.722 80.0119C124.702 76.2319 126.106 71.5879 126.934 66.0799C127.69 61.3639 127.816 57.4579 127.312 54.3619C126.844 51.2659 125.908 48.9259 124.504 47.3419C123.136 45.7579 121.408 44.8759 119.32 44.6959C115.144 44.4799 111.058 45.2899 107.062 47.1259C103.102 48.9619 99.5021 51.8959 96.2621 55.9279Z" fill="black"/>
<path d="M62.707 68.8341L63.733 69.1581C62.473 73.7301 61.177 77.5461 59.845 80.6061C58.549 83.6301 57.199 86.0421 55.795 87.8421C54.427 89.6421 52.987 90.9201 51.475 91.6761C49.999 92.4321 48.433 92.8101 46.777 92.8101C44.581 92.8101 42.871 92.2341 41.647 91.0821C40.459 89.8941 39.901 88.2021 39.973 86.0061C40.009 84.2421 40.459 82.7121 41.323 81.4161C42.223 80.1201 43.393 79.4721 44.833 79.4721C45.769 79.4721 46.525 79.7961 47.101 80.4441C47.677 81.0921 47.965 81.9381 47.965 82.9821C47.965 83.9181 47.785 84.9081 47.425 85.9521C47.101 86.9601 46.939 87.8601 46.939 88.6521C46.939 89.2281 47.137 89.7141 47.533 90.1101C47.929 90.4701 48.505 90.6501 49.261 90.6501C50.413 90.6501 51.727 90.056 53.203 88.868C54.679 87.68 56.227 85.5201 57.847 82.3881C59.503 79.2201 61.123 74.7021 62.707 68.8341ZM70.375 54.3621L72.319 80.4981C72.499 82.8741 73.003 84.6741 73.831 85.8981C74.659 87.0861 75.919 87.6801 77.611 87.6801C78.907 87.6801 80.113 87.2481 81.229 86.3841C82.345 85.4841 83.641 83.738 85.117 81.146C85.261 80.894 85.387 80.732 85.495 80.66C85.639 80.588 85.765 80.5701 85.873 80.6061C86.017 80.6781 86.107 80.7861 86.143 80.9301C86.179 81.0741 86.143 81.2361 86.035 81.4161C84.847 83.8281 83.533 85.8981 82.093 87.6261C80.689 89.3541 79.159 90.6861 77.503 91.6221C75.883 92.5221 74.119 92.9721 72.211 92.9721C70.051 92.9721 68.359 92.5581 67.135 91.7301C65.947 90.8661 65.065 89.588 64.489 87.896C63.913 86.168 63.517 84.08 63.301 81.632L61.411 56.252C61.231 53.552 60.763 51.6621 60.007 50.5821C59.251 49.5021 58.207 48.9621 56.875 48.9621C55.507 48.9621 54.211 49.4481 52.987 50.4201C51.799 51.3921 50.449 53.1201 48.937 55.6041C48.793 55.8561 48.649 56.036 48.505 56.1441C48.397 56.2521 48.271 56.2701 48.127 56.1981C47.983 56.1621 47.911 56.0721 47.911 55.9281C47.911 55.7481 47.965 55.568 48.073 55.3881C49.333 53.0481 50.701 51.0501 52.177 49.3941C53.653 47.7021 55.237 46.4061 56.929 45.5061C58.657 44.5701 60.547 44.1021 62.599 44.1021C64.219 44.1021 65.569 44.4801 66.649 45.236C67.729 45.9561 68.575 47.0721 69.187 48.5841C69.799 50.0961 70.195 52.0221 70.375 54.3621ZM71.185 70.6161L70.375 70.4541C71.815 65.2701 73.273 60.9861 74.749 57.6021C76.225 54.182 77.701 51.5001 79.177 49.5561C80.653 47.6121 82.129 46.244 83.605 45.452C85.081 44.624 86.539 44.2101 87.979 44.2101C90.139 44.2101 91.795 44.876 92.947 46.208C94.135 47.54 94.675 49.214 94.567 51.23C94.495 53.498 93.973 55.2441 93.001 56.4681C92.029 57.6921 90.913 58.3041 89.653 58.3041C88.645 58.3041 87.835 57.9981 87.223 57.3861C86.647 56.7741 86.413 55.946 86.521 54.9021C86.593 54.0381 86.827 53.0841 87.223 52.0401C87.655 50.9601 87.871 49.8621 87.871 48.7461C87.871 48.1701 87.655 47.7381 87.223 47.4501C86.791 47.1261 86.179 46.9641 85.387 46.9641C84.415 46.9641 83.407 47.3421 82.363 48.0981C81.319 48.8541 80.203 50.1321 79.015 51.9321C77.827 53.6961 76.585 56.1081 75.289 59.1681C73.993 62.1921 72.625 66.008 71.185 70.6161Z" fill="black"/>
<path d="M8.56075 69.212C8.56075 69.212 9.26275 68.96 10.6668 68.456C12.0708 67.916 13.8708 67.25 16.0668 66.458C18.2628 65.63 20.5488 64.766 22.9248 63.866C25.3008 62.966 27.4788 62.156 29.4588 61.436C31.4748 60.716 32.9688 60.194 33.9408 59.87L32.9688 60.842C33.2928 60.086 33.5448 59.15 33.7248 58.034C33.9408 56.882 34.0668 55.442 34.1028 53.714C34.1028 51.158 33.6708 49.07 32.8068 47.45C31.9788 45.794 30.8268 44.966 29.3508 44.966C27.6948 44.966 26.0388 45.578 24.3828 46.802C22.7628 47.99 21.2148 49.718 19.7388 51.986C18.2628 54.254 16.9668 56.972 15.8508 60.14C14.7708 63.308 13.9428 66.872 13.3668 70.832C12.6108 76.412 13.1148 80.678 14.8788 83.63C16.6788 86.582 19.4508 88.058 23.1948 88.058C25.3188 88.058 27.3348 87.626 29.2428 86.762C31.1508 85.862 32.8968 84.494 34.4808 82.658C36.1008 80.822 37.5048 78.5 38.6928 75.692C38.8368 75.476 38.9448 75.332 39.0168 75.26C39.1248 75.152 39.2508 75.116 39.3948 75.152C39.5388 75.152 39.6288 75.242 39.6648 75.422C39.7008 75.566 39.6648 75.764 39.5568 76.016C38.1888 79.58 36.4248 82.622 34.2648 85.142C32.1408 87.662 29.6208 89.588 26.7048 90.92C23.8248 92.252 20.6028 92.918 17.0388 92.918C13.7628 92.918 10.9908 92.162 8.72275 90.65C6.49075 89.102 4.87075 86.834 3.86275 83.846C2.89075 80.822 2.69275 77.132 3.26875 72.776C3.77275 68.852 4.83475 65.144 6.45475 61.652C8.07475 58.16 10.0908 55.082 12.5028 52.418C14.9508 49.754 17.6508 47.666 20.6028 46.154C23.5908 44.642 26.6688 43.886 29.8368 43.886C32.4648 43.886 34.6428 44.462 36.3708 45.614C38.0988 46.73 39.3768 48.206 40.2048 50.042C41.0688 51.878 41.4648 53.858 41.3928 55.982C41.3928 56.378 41.5008 56.684 41.7168 56.9C41.9328 57.08 42.3288 57.152 42.9048 57.116C43.1208 57.08 43.2828 57.098 43.3908 57.17C43.4988 57.242 43.5528 57.332 43.5528 57.44C43.5888 57.548 43.5528 57.656 43.4448 57.764C43.3728 57.872 43.2288 57.962 43.0128 58.034C42.5808 58.178 41.4468 58.574 39.6108 59.222C37.7748 59.834 35.5608 60.608 32.9688 61.544C30.4128 62.48 27.7308 63.452 24.9228 64.46C22.1148 65.432 19.4868 66.368 17.0388 67.268C14.5908 68.132 12.5928 68.834 11.0448 69.374C9.53276 69.914 8.77675 70.184 8.77675 70.184L8.56075 69.212Z" fill="black"/>
</svg>
