<svg width="485" height="121" viewBox="0 0 485 121" fill="none" xmlns="http://www.w3.org/2000/svg">
<rect width="485" height="121" fill="white"/>
<path d="M290.328 117.808C281.4 113.68 284.28 103.504 291.672 99.1839C289.368 97.5519 287.352 95.2479 285.816 92.0799C283.512 87.2799 287.352 82.5759 290.616 79.6959C291.96 78.5439 292.92 77.5839 291.096 75.8559C290.904 75.7599 290.808 75.6639 290.616 75.4719L290.232 75.1839L290.328 75.2799C286.296 71.5359 283.896 66.7359 283.896 61.2639C283.896 49.4559 296.665 39.7599 312.697 39.7599C321.049 39.7599 326.329 38.0319 328.633 35.7279C331.417 32.9439 329.88 27.5679 330.744 26.6079C331.896 25.2639 344.569 26.5119 343.033 37.0719C342.361 41.9679 337.272 44.1759 330.936 44.4639C337.368 48.3999 341.4 54.2559 341.4 61.2639C341.4 73.2639 328.537 82.9599 312.697 82.9599C309.337 82.9599 306.072 82.5759 303.096 81.8079L303.288 81.9039C300.984 81.2319 299.928 81.9039 299.16 82.5759C297.528 84.1119 297.144 87.0879 298.488 88.5279C300.792 90.9279 306.168 92.0799 317.784 88.4319C331.992 84.0159 339.768 82.0959 343.128 83.8239C346.968 85.8399 348.408 97.2639 335.544 108.592C322.104 120.496 298.488 121.648 290.328 117.808ZM320.089 74.7039C324.601 73.1679 324.504 66.6399 321.816 60.0159C319.032 53.1039 311.64 45.0399 305.688 47.0559C301.368 48.4959 301.176 55.4079 304.344 62.8959C307.416 70.0959 314.232 76.7199 320.089 74.7039ZM293.977 100.528C297.337 107.632 304.728 110.704 313.944 110.608C327.096 110.512 331.896 103.696 331.896 101.296C331.896 98.8959 329.976 97.6479 324.504 99.0879C313.944 101.872 302.329 104.656 293.977 100.528Z" fill="black"/>
<path d="M216.516 94.7681C212.964 94.7681 210.66 92.7521 210.66 90.2561C210.66 85.7441 213.636 86.2241 217.092 81.6161C219.492 78.4481 220.068 71.0561 220.068 62.9921C220.068 52.0481 212.58 55.6961 209.892 51.1841C208.644 49.0721 209.604 46.9601 211.62 45.4241C213.924 43.6961 216.516 42.9281 219.972 40.8161C222.66 39.1841 224.292 37.7441 226.884 35.4401C229.668 33.0401 232.74 33.2321 234.372 35.5361C235.812 37.5521 234.084 41.2001 234.084 51.9521C238.596 43.6001 245.988 39.2801 255.588 39.2801C267.3 39.2801 274.5 46.8641 272.388 62.0321C270.468 76.0481 271.14 79.4081 275.268 83.5361C278.148 86.4161 278.82 87.7601 278.532 90.5441C278.244 93.0401 276.228 94.7681 272.676 94.7681C268.836 94.7681 264.804 94.0001 260.676 94.0001C256.644 94.0001 255.972 94.7681 252.036 94.7681C248.484 94.7681 247.236 92.9441 247.14 90.5441C246.948 86.0321 252.804 85.0721 257.22 72.0161C261.54 59.3441 252.804 47.6321 242.532 51.9521C232.356 56.2721 231.396 71.5361 237.06 81.6161C239.172 85.3601 240.804 88.1441 240.612 90.5441C240.42 93.0401 238.308 94.7681 235.716 94.7681C232.836 94.7681 231.204 94.0001 227.076 94.0001C223.044 94.0001 221.412 94.7681 216.516 94.7681Z" fill="black"/>
<path d="M174.905 94.768C171.353 94.768 169.049 92.752 169.049 90.256C169.049 85.744 173.945 86.224 177.401 81.616C179.801 78.448 180.377 74.896 180.377 68.752C180.377 57.232 173.849 59.92 171.161 55.408C169.913 53.296 170.873 51.184 172.889 49.648C175.193 47.92 179.513 46.48 183.833 43.888C190.553 39.856 193.241 39.568 195.545 41.68C198.233 44.176 197.081 48.88 196.217 52.528C195.257 56.368 194.393 59.056 194.393 66.352C194.393 74.992 194.873 78.352 197.369 81.616C199.865 84.88 203.705 86.224 203.513 89.872C203.417 93.04 200.825 94.768 197.945 94.768C195.065 94.768 191.513 94 187.385 94C183.353 94 179.801 94.768 174.905 94.768ZM187.481 33.52C181.817 33.52 177.209 28.912 177.209 23.248C177.209 17.68 181.817 13.072 187.481 13.072C193.241 13.072 197.849 17.68 197.849 23.248C197.849 28.912 193.241 33.52 187.481 33.52Z" fill="black"/>
<path d="M135.997 95.44C133.501 95.44 132.349 94.48 130.141 90.544L119.293 70.864C114.205 61.648 109.981 53.584 107.005 50.224C103.933 46.672 101.437 46.192 101.437 43.984C101.437 41.872 103.165 40.624 105.661 40.624C107.773 40.624 112.957 41.2 116.797 41.2C120.733 41.2 126.205 40.624 128.989 40.624C131.581 40.624 133.309 41.872 133.309 43.984C133.309 46.192 129.757 46.672 128.509 49.648C127.261 52.72 130.525 58.48 135.901 67.696L139.549 73.936L142.333 68.656C148.381 57.136 150.301 52.816 148.957 49.744C147.613 46.576 143.773 46.192 143.773 43.984C143.773 41.872 145.405 40.624 147.901 40.624C150.109 40.624 155.101 41.2 158.077 41.2C161.053 41.2 162.877 40.624 165.661 40.624C168.253 40.624 169.981 41.872 169.981 43.984C169.981 46.192 167.581 46.48 164.605 50.128C161.629 53.776 156.925 61.264 151.645 70.864L141.181 90.064C138.973 94.096 138.013 95.44 135.997 95.44Z" fill="black"/>
<path d="M73.7447 94.768C70.1927 94.768 67.8887 92.752 67.8887 90.256C67.8887 85.744 72.7847 86.224 76.2407 81.616C78.6407 78.448 79.2167 74.896 79.2167 68.752C79.2167 57.232 72.6887 59.92 70.0007 55.408C68.7527 53.296 69.7127 51.184 71.7287 49.648C74.0327 47.92 78.3527 46.48 82.6727 43.888C89.3927 39.856 92.0807 39.568 94.3847 41.68C97.0727 44.176 95.9207 48.88 95.0567 52.528C94.0967 56.368 93.2327 59.056 93.2327 66.352C93.2327 74.992 93.7127 78.352 96.2087 81.616C98.7047 84.88 102.545 86.224 102.353 89.872C102.257 93.04 99.6647 94.768 96.7847 94.768C93.9047 94.768 90.3527 94 86.2247 94C82.1927 94 78.6407 94.768 73.7447 94.768ZM86.3207 33.52C80.6567 33.52 76.0487 28.912 76.0487 23.248C76.0487 17.68 80.6567 13.072 86.3207 13.072C92.0807 13.072 96.6887 17.68 96.6887 23.248C96.6887 28.912 92.0807 33.52 86.3207 33.52Z" fill="black"/>
<path d="M34.2164 94.4801C30.6644 94.4801 28.3604 92.7521 28.3604 90.2561C28.3604 85.7441 31.8164 86.5121 35.7524 81.3281C38.1524 78.1601 38.7284 70.9601 38.7284 62.8961V51.4721C38.7284 31.4081 32.1044 34.0961 29.4164 29.5841C28.1684 27.4721 29.1284 25.3601 31.1444 23.8241C33.4484 22.0961 37.7684 20.6561 42.0884 18.0641C48.8084 14.0321 51.4964 13.7441 53.8004 15.8561C56.4884 18.3521 55.3364 23.0561 54.4724 26.7041C53.5124 30.5441 52.7444 33.2321 52.7444 50.9921V62.8961C52.7444 70.9601 53.3204 78.1601 55.7204 81.3281C59.6564 86.5121 63.1124 85.7441 63.1124 90.2561C63.1124 92.7521 60.8084 94.4801 57.2564 94.4801C53.4164 94.4801 49.8644 93.7121 45.7364 93.7121C41.7044 93.7121 39.1124 94.4801 34.2164 94.4801Z" fill="black"/>
</svg>
