<svg width="469" height="121" viewBox="0 0 469 121" fill="none" xmlns="http://www.w3.org/2000/svg">
<rect width="469" height="121" fill="white"/>
<path d="M414.731 91.8399C414.219 93.6959 414.059 95.1679 414.251 96.2559C414.443 97.2799 415.147 97.7919 416.363 97.7919C417.643 97.7919 418.827 97.0879 419.915 95.6799C421.067 94.2079 422.283 91.6479 423.563 87.9999L424.811 84.4479H426.635L424.235 91.4559C423.403 93.8879 422.379 95.8399 421.163 97.3119C420.011 98.7199 418.731 99.7439 417.323 100.384C415.915 101.024 414.379 101.344 412.715 101.344C410.603 101.344 409.035 100.928 408.011 100.096C407.051 99.3279 406.443 98.2719 406.187 96.9279C405.995 95.5839 406.027 94.1439 406.283 92.6079C406.603 91.0079 406.987 89.4399 407.435 87.9039L423.083 35.9679C423.723 33.7919 423.659 32.1919 422.891 31.1679C422.123 30.1439 420.171 29.6319 417.035 29.6319L417.707 27.6159C421.227 27.5519 424.331 27.1999 427.019 26.5599C429.707 25.8559 432.299 24.8959 434.795 23.6799L414.731 91.8399Z" fill="black"/>
<path d="M390.502 66.784C388.198 73.184 385.99 78.592 383.878 83.008C381.766 87.424 379.654 90.976 377.542 93.664C375.494 96.352 373.382 98.304 371.206 99.52C369.094 100.736 366.886 101.344 364.582 101.344C361.766 101.344 359.718 100.704 358.438 99.424C357.158 98.144 356.518 96.416 356.518 94.24C356.518 92.064 356.966 89.6 357.862 86.848L367.174 58.816C367.814 56.896 368.038 55.424 367.846 54.4C367.654 53.376 366.918 52.864 365.638 52.864C364.422 52.864 363.206 53.536 361.99 54.88C360.838 56.224 359.59 58.816 358.246 62.656L356.998 66.208H355.174L357.574 59.2C358.534 56.512 359.654 54.464 360.934 53.056C362.278 51.648 363.654 50.688 365.062 50.176C366.534 49.6 367.91 49.312 369.19 49.312C372.006 49.312 373.862 49.984 374.758 51.328C375.718 52.608 376.07 54.272 375.814 56.32C375.622 58.368 375.142 60.512 374.374 62.752L365.254 90.208C363.462 95.584 364.166 98.272 367.366 98.272C368.902 98.272 370.534 97.6 372.262 96.256C373.99 94.848 375.75 92.864 377.542 90.304C379.334 87.68 381.094 84.576 382.822 80.992C384.614 77.344 386.31 73.312 387.91 68.896C389.574 64.416 391.078 59.616 392.422 54.496L390.502 66.784ZM390.214 91.84C389.766 93.568 389.542 95.008 389.542 96.16C389.606 97.248 390.278 97.792 391.558 97.792C392.966 97.792 394.246 97.056 395.398 95.584C396.614 94.048 397.83 91.52 399.046 88L400.294 84.448H402.118L399.718 91.456C398.822 94.144 397.702 96.192 396.358 97.6C395.078 99.008 393.702 99.968 392.23 100.48C390.822 101.056 389.446 101.344 388.102 101.344C387.078 101.344 386.118 101.12 385.222 100.672C384.326 100.224 383.654 99.584 383.206 98.752C382.694 97.664 382.502 96.288 382.63 94.624C382.822 92.96 383.27 90.72 383.974 87.904L393.382 50.656C394.982 50.592 396.518 50.464 397.99 50.272C399.526 50.08 400.902 49.76 402.118 49.312L390.214 91.84Z" fill="black"/>
<path d="M329.898 52.576L330.474 50.656H358.794L358.218 52.576H329.898ZM360.81 26.368C359.594 26.368 358.538 26.624 357.642 27.136C356.746 27.648 355.946 28.224 355.242 28.864C354.09 29.952 353.066 31.616 352.17 33.856C351.338 36.032 350.538 38.56 349.77 41.44C349.066 44.32 348.298 47.36 347.466 50.56L329.706 116.704C328.17 116.768 326.666 116.896 325.194 117.088C323.722 117.28 322.346 117.6 321.066 118.048L339.114 50.56C340.458 45.44 341.866 41.216 343.338 37.888C344.874 34.56 346.73 31.84 348.906 29.728C350.378 28.256 352.17 27.104 354.282 26.272C356.458 25.376 358.666 24.928 360.906 24.928C363.85 24.928 366.09 25.6 367.626 26.944C369.226 28.224 370.026 29.824 370.026 31.744C370.026 32.832 369.738 33.888 369.162 34.912C368.586 35.936 367.818 36.768 366.858 37.408C365.898 38.048 364.81 38.368 363.594 38.368C362.378 38.368 361.418 38.08 360.714 37.504C360.01 36.928 359.69 36.128 359.754 35.104C359.754 33.504 360.266 32.16 361.29 31.072C362.314 29.92 363.626 29.12 365.226 28.672C365.226 28.096 364.81 27.584 363.978 27.136C363.146 26.624 362.09 26.368 360.81 26.368Z" fill="black"/>
<path d="M329.136 50.656L328.848 52.576H298.992L299.472 50.656H329.136ZM304.752 91.84C304.176 93.952 304.304 95.488 305.136 96.448C306.032 97.344 307.184 97.792 308.592 97.792C310 97.792 311.408 97.184 312.816 95.968C314.288 94.752 315.728 92.16 317.136 88.192L318.48 84.448H320.304L318.288 90.496C316.88 94.656 315.056 97.504 312.816 99.04C310.64 100.576 308.08 101.344 305.136 101.344C302.512 101.344 300.496 100.8 299.088 99.712C297.744 98.56 296.944 96.96 296.688 94.912C296.432 92.864 296.688 90.528 297.456 87.904L312.336 36.064C313.872 36 315.376 35.872 316.848 35.68C318.384 35.488 319.76 35.168 320.976 34.72L304.752 91.84Z" fill="black"/>
<path d="M251.076 99.9999H242.724L261.732 35.9679C262.372 33.7919 262.276 32.1919 261.444 31.1679C260.676 30.1439 258.724 29.6319 255.588 29.6319L256.164 27.6159C259.684 27.5519 262.852 27.1999 265.668 26.5599C268.484 25.8559 271.076 24.8959 273.444 23.6799L251.076 99.9999ZM253.764 85.7919C256.196 79.0719 258.5 73.3759 260.676 68.7039C262.916 64.0319 265.124 60.2879 267.3 57.4719C269.476 54.5919 271.716 52.5119 274.02 51.2319C276.324 49.9519 278.724 49.3119 281.22 49.3119C284.228 49.3119 286.276 50.0479 287.364 51.5199C288.516 52.9279 289.028 54.7519 288.9 56.9919C288.772 59.2319 288.324 61.5039 287.556 63.8079L278.244 91.8399C277.732 93.5039 277.508 94.9119 277.572 96.0639C277.636 97.2159 278.372 97.7919 279.78 97.7919C280.996 97.7919 282.18 97.1199 283.332 95.7759C284.548 94.4319 285.828 91.8399 287.172 87.9999L288.42 84.4479H290.244L287.844 91.4559C286.948 94.1439 285.828 96.1919 284.484 97.5999C283.204 99.0079 281.828 99.9679 280.356 100.48C278.948 101.056 277.572 101.344 276.228 101.344C273.668 101.344 271.876 100.768 270.852 99.6159C269.828 98.4639 269.38 96.8639 269.508 94.8159C269.7 92.7679 270.212 90.4639 271.044 87.9039L280.164 60.4479C280.484 59.4879 280.772 58.3679 281.028 57.0879C281.284 55.8079 281.22 54.7199 280.836 53.8239C280.516 52.8639 279.588 52.3839 278.052 52.3839C276.452 52.3839 274.724 53.1199 272.868 54.5919C271.076 55.9999 269.22 58.0479 267.3 60.7359C265.38 63.4239 263.492 66.6559 261.636 70.4319C259.78 74.2079 257.988 78.4319 256.26 83.1039C254.596 87.7119 253.028 92.7039 251.556 98.0799L253.764 85.7919Z" fill="black"/>
<path d="M223.118 78.4L225.518 78.496C223.214 79.776 221.07 80.96 219.086 82.048C217.166 83.072 215.598 84.032 214.382 84.928C213.166 85.824 212.558 86.688 212.558 87.52C212.558 88.16 213.006 88.768 213.902 89.344C214.798 89.856 216.27 90.368 218.318 90.88L225.326 92.704C227.374 93.216 229.198 93.824 230.798 94.528C232.462 95.168 233.774 96 234.734 97.024C235.694 98.048 236.174 99.392 236.174 101.056C236.174 102.656 235.63 104.448 234.542 106.432C233.518 108.48 231.886 110.432 229.646 112.288C227.47 114.144 224.622 115.68 221.102 116.896C217.582 118.112 213.326 118.72 208.334 118.72C205.006 118.72 202.222 118.4 199.982 117.76C197.678 117.184 195.982 116.352 194.894 115.264C193.742 114.176 193.166 112.928 193.166 111.52C193.166 110.496 193.454 109.408 194.03 108.256C194.606 107.168 195.47 106.08 196.622 104.992C197.71 103.968 199.118 102.976 200.846 102.016C202.51 101.12 204.494 100.352 206.798 99.712L207.47 101.152C205.102 102.368 203.47 103.744 202.574 105.28C201.678 106.816 201.23 108.352 201.23 109.888C201.23 112.448 202.126 114.272 203.918 115.36C205.71 116.512 207.918 117.088 210.542 117.088C212.654 117.088 214.83 116.736 217.07 116.032C219.31 115.392 221.39 114.496 223.31 113.344C225.23 112.256 226.766 110.976 227.918 109.504C229.07 108.032 229.646 106.496 229.646 104.896C229.646 103.936 229.326 103.296 228.686 102.976C228.11 102.656 227.118 102.336 225.71 102.016L211.022 98.272C209.486 97.888 208.238 97.248 207.278 96.352C206.318 95.392 205.838 94.112 205.838 92.512C205.838 91.232 206.286 89.92 207.182 88.576C208.078 87.232 209.774 85.76 212.27 84.16C214.766 82.496 218.382 80.576 223.118 78.4ZM228.014 51.04C225.966 51.04 224.238 51.648 222.83 52.864C221.422 54.016 220.238 55.52 219.278 57.376C218.382 59.168 217.678 61.056 217.166 63.04C216.718 65.024 216.398 66.848 216.206 68.512C216.014 70.112 215.918 71.296 215.918 72.064C215.918 74.112 216.366 75.584 217.262 76.48C218.222 77.376 219.47 77.824 221.006 77.824C223.438 77.824 225.39 77.088 226.862 75.616C228.398 74.144 229.582 72.32 230.414 70.144C231.246 67.968 231.79 65.792 232.046 63.616C232.366 61.44 232.526 59.616 232.526 58.144C232.526 55.968 232.238 54.24 231.662 52.96C231.086 51.68 229.87 51.04 228.014 51.04ZM228.398 49.312C232.174 49.312 235.214 50.176 237.518 51.904C239.886 53.568 241.07 56.288 241.07 60.064C241.07 63.136 240.206 66.176 238.478 69.184C236.75 72.192 234.318 74.688 231.182 76.672C228.046 78.592 224.334 79.552 220.046 79.552C216.526 79.552 213.55 78.72 211.118 77.056C208.75 75.328 207.566 72.672 207.566 69.088C207.566 67.36 207.918 65.376 208.622 63.136C209.39 60.832 210.574 58.656 212.174 56.608C213.774 54.496 215.886 52.768 218.51 51.424C221.198 50.016 224.494 49.312 228.398 49.312ZM235.214 54.304L233.486 53.632C234.382 51.456 235.918 49.536 238.094 47.872C240.27 46.208 242.542 45.376 244.91 45.376C246.574 45.376 247.918 45.856 248.942 46.816C249.966 47.712 250.478 49.152 250.478 51.136C250.478 52.928 250.03 54.24 249.134 55.072C248.238 55.904 247.278 56.32 246.254 56.32C245.23 56.32 244.238 56 243.278 55.36C242.382 54.656 241.838 53.568 241.646 52.096C241.454 50.624 241.87 48.736 242.894 46.432L244.142 46.72C241.454 47.744 239.534 48.832 238.382 49.984C237.23 51.072 236.174 52.512 235.214 54.304Z" fill="black"/>
<path d="M187.946 66.784C185.642 73.184 183.434 78.592 181.322 83.008C179.21 87.424 177.098 90.976 174.986 93.664C172.938 96.352 170.826 98.304 168.65 99.52C166.538 100.736 164.33 101.344 162.026 101.344C159.21 101.344 157.162 100.704 155.882 99.424C154.602 98.144 153.962 96.416 153.962 94.24C153.962 92.064 154.41 89.6 155.306 86.848L164.618 58.816C165.258 56.896 165.482 55.424 165.29 54.4C165.098 53.376 164.362 52.864 163.082 52.864C161.866 52.864 160.65 53.536 159.434 54.88C158.282 56.224 157.034 58.816 155.69 62.656L154.442 66.208H152.618L155.018 59.2C155.978 56.512 157.098 54.464 158.378 53.056C159.722 51.648 161.098 50.688 162.506 50.176C163.978 49.6 165.354 49.312 166.634 49.312C169.45 49.312 171.306 49.984 172.202 51.328C173.162 52.608 173.514 54.272 173.258 56.32C173.066 58.368 172.586 60.512 171.818 62.752L162.698 90.208C160.906 95.584 161.61 98.272 164.81 98.272C166.346 98.272 167.978 97.6 169.706 96.256C171.434 94.848 173.194 92.864 174.986 90.304C176.778 87.68 178.538 84.576 180.266 80.992C182.058 77.344 183.754 73.312 185.354 68.896C187.018 64.416 188.522 59.616 189.866 54.496L187.946 66.784ZM187.658 91.84C187.21 93.568 186.986 95.008 186.986 96.16C187.05 97.248 187.722 97.792 189.002 97.792C190.41 97.792 191.69 97.056 192.842 95.584C194.058 94.048 195.274 91.52 196.49 88L197.738 84.448H199.562L197.162 91.456C196.266 94.144 195.146 96.192 193.802 97.6C192.522 99.008 191.146 99.968 189.674 100.48C188.266 101.056 186.89 101.344 185.546 101.344C184.522 101.344 183.562 101.12 182.666 100.672C181.77 100.224 181.098 99.584 180.65 98.752C180.138 97.664 179.946 96.288 180.074 94.624C180.266 92.96 180.714 90.72 181.418 87.904L190.826 50.656C192.426 50.592 193.962 50.464 195.434 50.272C196.97 50.08 198.346 49.76 199.562 49.312L187.658 91.84Z" fill="black"/>
<path d="M134.063 51.232C132.015 51.232 130.031 52.064 128.111 53.728C126.255 55.328 124.527 57.536 122.927 60.352C121.391 63.104 120.015 66.208 118.799 69.664C117.647 73.12 116.751 76.704 116.111 80.416C115.471 84.128 115.151 87.68 115.151 91.072C115.151 93.952 115.599 96.064 116.495 97.408C117.455 98.752 118.831 99.424 120.623 99.424C122.671 99.424 124.623 98.624 126.479 97.024C128.399 95.36 130.159 93.152 131.759 90.4C133.359 87.584 134.735 84.448 135.887 80.992C137.039 77.536 137.935 73.984 138.575 70.336C139.215 66.624 139.535 63.04 139.535 59.584C139.535 56.64 139.087 54.528 138.191 53.248C137.295 51.904 135.919 51.232 134.063 51.232ZM106.895 86.272C106.895 83.456 107.279 80.384 108.047 77.056C108.815 73.728 109.967 70.432 111.503 67.168C113.039 63.904 114.895 60.928 117.071 58.24C119.311 55.552 121.903 53.408 124.847 51.808C127.791 50.144 131.055 49.312 134.639 49.312C138.607 49.312 141.775 50.56 144.143 53.056C146.575 55.488 147.791 59.264 147.791 64.384C147.791 67.2 147.407 70.272 146.639 73.6C145.871 76.928 144.719 80.224 143.183 83.488C141.647 86.752 139.759 89.728 137.519 92.416C135.343 95.104 132.783 97.28 129.839 98.944C126.895 100.544 123.631 101.344 120.047 101.344C116.079 101.344 112.879 100.096 110.447 97.6C108.079 95.104 106.895 91.328 106.895 86.272Z" fill="black"/>
<path d="M62.8178 99.9999H54.4658L73.4738 35.9679C74.1138 33.7919 74.0178 32.1919 73.1858 31.1679C72.4178 30.1439 70.4658 29.6319 67.3298 29.6319L67.9058 27.6159C71.4258 27.5519 74.5938 27.1999 77.4098 26.5599C80.2258 25.8559 82.8178 24.8959 85.1858 23.6799L62.8178 99.9999ZM65.5058 85.7919C67.9378 79.0719 70.2418 73.3759 72.4178 68.7039C74.6578 64.0319 76.8658 60.2879 79.0418 57.4719C81.2178 54.5919 83.4578 52.5119 85.7618 51.2319C88.0658 49.9519 90.4658 49.3119 92.9618 49.3119C95.9698 49.3119 98.0178 50.0479 99.1058 51.5199C100.258 52.9279 100.77 54.7519 100.642 56.9919C100.514 59.2319 100.066 61.5039 99.2978 63.8079L89.9858 91.8399C89.4738 93.5039 89.2498 94.9119 89.3138 96.0639C89.3778 97.2159 90.1138 97.7919 91.5218 97.7919C92.7378 97.7919 93.9218 97.1199 95.0738 95.7759C96.2898 94.4319 97.5698 91.8399 98.9138 87.9999L100.162 84.4479H101.986L99.5858 91.4559C98.6898 94.1439 97.5698 96.1919 96.2258 97.5999C94.9458 99.0079 93.5698 99.9679 92.0978 100.48C90.6898 101.056 89.3138 101.344 87.9698 101.344C85.4098 101.344 83.6178 100.768 82.5938 99.6159C81.5698 98.4639 81.1218 96.8639 81.2498 94.8159C81.4418 92.7679 81.9538 90.4639 82.7858 87.9039L91.9058 60.4479C92.2258 59.4879 92.5138 58.3679 92.7698 57.0879C93.0258 55.8079 92.9618 54.7199 92.5778 53.8239C92.2578 52.8639 91.3298 52.3839 89.7938 52.3839C88.1938 52.3839 86.4658 53.1199 84.6098 54.5919C82.8178 55.9999 80.9618 58.0479 79.0418 60.7359C77.1218 63.4239 75.2338 66.6559 73.3778 70.4319C71.5218 74.2079 69.7298 78.4319 68.0018 83.1039C66.3378 87.7119 64.7698 92.7039 63.2978 98.0799L65.5058 85.7919Z" fill="black"/>
<path d="M61.0001 50.656L60.7121 52.576H30.8561L31.3361 50.656H61.0001ZM36.6161 91.84C36.0401 93.952 36.1681 95.488 37.0001 96.448C37.8961 97.344 39.0481 97.792 40.4561 97.792C41.8641 97.792 43.2721 97.184 44.6801 95.968C46.1521 94.752 47.5921 92.16 49.0001 88.192L50.3441 84.448H52.1681L50.1521 90.496C48.7441 94.656 46.9201 97.504 44.6801 99.04C42.5041 100.576 39.9441 101.344 37.0001 101.344C34.3761 101.344 32.3601 100.8 30.9521 99.712C29.6081 98.56 28.8081 96.96 28.5521 94.912C28.2961 92.864 28.5521 90.528 29.3201 87.904L44.2001 36.064C45.7361 36 47.2401 35.872 48.7121 35.68C50.2481 35.488 51.6241 35.168 52.8401 34.72L36.6161 91.84Z" fill="black"/>
</svg>
