<svg width="485" height="121" viewBox="0 0 485 121" fill="none" xmlns="http://www.w3.org/2000/svg">
<rect width="485" height="121" fill="white"/>
<path d="M190.821 118.056V38.28H222.501V93H206.661V118.056H190.821ZM206.661 88.392H221.061V42.888H206.661V88.392Z" fill="black"/>
<path d="M161.241 93V38.28H183.129V42.888H177.081V93H161.241Z" fill="black"/>
<path d="M118.067 93V67.272H133.907V42.888H118.067V38.28H149.747V93H118.067ZM119.507 88.392H133.907V68.712H119.507V88.392Z" fill="black"/>
<path d="M74.8936 93.0001V17.7361H90.7336V38.2801H106.574V93.0001H105.134V42.8881H90.7336V93.0001H74.8936Z" fill="black"/>
<path d="M31.7197 93V88.392H61.9597V68.712H31.7197V38.28H63.3997V42.888H47.5597V67.272H63.3997V93H31.7197Z" fill="black"/>
</svg>
