<svg width="469" height="121" viewBox="0 0 469 121" fill="none" xmlns="http://www.w3.org/2000/svg">
<rect width="469" height="121" fill="white"/>
<path d="M246.65 86.004C241.778 86.004 237.242 84.66 233.63 82.308C229.514 85.5 229.094 89.364 231.446 91.716C233.966 94.236 241.862 93.312 250.598 91.968C263.45 90.036 268.322 89.112 271.094 93.732C274.622 99.612 268.574 108.432 258.158 113.136C246.566 118.344 232.286 118.596 226.574 115.908C218.846 112.296 221.198 103.644 229.178 98.856C228.59 98.52 228.002 98.016 227.414 97.512C222.206 92.556 224.81 85.584 232.118 81.216C227.834 77.856 225.146 72.984 225.146 67.188C225.146 56.856 234.806 48.54 246.65 48.54H246.818C257.822 48.54 264.878 48.876 274.37 47.364L275.126 48.54L271.682 53.916L259.166 51.9C264.626 55.176 268.238 60.636 268.238 67.188C268.238 77.604 258.494 86.004 246.65 86.004ZM251.606 82.392C257.822 81.216 260.762 72.816 258.074 64.248C255.218 55.848 248.078 50.976 241.946 52.152C235.394 53.328 232.454 61.728 235.31 70.212C238.166 78.696 245.39 83.652 251.606 82.392ZM230.774 99.696C228.254 103.644 229.514 107.844 231.866 109.776C237.242 114.312 248.414 113.724 256.73 110.112C264.122 106.92 267.062 102.552 266.306 99.864C265.55 97.26 261.854 97.344 253.79 98.856C245.474 100.452 236.738 102.132 230.774 99.696Z" fill="black"/>
<path d="M196.506 94.236C202.386 92.052 204.15 88.776 204.15 82.392V68.532C204.15 59.46 200.706 55.008 193.818 55.008C186.594 55.008 182.646 59.88 178.95 65.256V68.28V82.392C178.95 88.776 180.714 91.968 187.434 94.236L187.098 96.588C182.982 96.168 177.942 96 175.254 96C172.566 96 168.366 96.168 163.242 96.588L162.906 94.236C169.626 92.052 171.39 88.776 171.39 82.392V71.388C171.39 65.592 169.542 60.636 163.242 60.132V58.116C169.794 56.1 174.33 52.992 177.522 48.876L179.874 49.464C179.118 54.336 178.95 58.116 178.95 61.56C183.57 53.16 191.298 48.54 197.682 48.54C207.09 48.54 211.71 55.092 211.71 68.196V82.392C211.71 88.776 213.474 91.968 220.194 94.236L219.858 96.588C215.742 96.168 210.702 96 208.014 96C205.326 96 201.126 96.168 196.842 96.588L196.506 94.236Z" fill="black"/>
<path d="M144.42 41.064C141.144 41.064 138.54 38.46 138.54 35.184C138.54 31.908 141.144 29.304 144.42 29.304C147.696 29.304 150.384 31.908 150.384 35.184C150.384 38.46 147.696 41.064 144.42 41.064ZM133.332 94.236C140.052 92.052 141.816 88.776 141.816 82.392V71.388C141.816 65.592 139.968 60.636 133.668 60.132V58.116C140.22 56.1 144.756 52.992 147.948 48.876L150.3 49.464C149.04 57.696 149.376 62.736 149.376 68.28V82.392C149.376 88.776 151.14 91.968 157.86 94.236L157.524 96.588C153.408 96.168 148.368 96 145.68 96C142.992 96 138.792 96.168 133.668 96.588L133.332 94.236Z" fill="black"/>
<path d="M76.7842 49.8C81.9082 50.22 86.6122 50.388 89.3002 50.388C91.9882 50.388 95.0962 50.22 100.052 49.8L100.388 52.1521C94.4242 53.328 95.2642 58.116 98.0362 63.912L108.2 85.1641L118.112 63.408C120.632 57.948 119.288 53.328 112.568 52.1521L112.904 49.8C117.188 50.22 118.784 50.388 121.472 50.388C124.16 50.388 128.864 50.22 132.98 49.8L133.316 52.1521C126.596 55.2601 123.992 58.62 121.22 64.752L106.436 97.2601H104.672L89.3842 65.424C86.1082 58.5361 82.8322 54.336 76.4482 52.1521L76.7842 49.8Z" fill="black"/>
<path d="M64.6818 41.064C61.4058 41.064 58.8018 38.46 58.8018 35.184C58.8018 31.908 61.4058 29.304 64.6818 29.304C67.9578 29.304 70.6458 31.908 70.6458 35.184C70.6458 38.46 67.9578 41.064 64.6818 41.064ZM53.5938 94.236C60.3138 92.052 62.0778 88.776 62.0778 82.392V71.388C62.0778 65.592 60.2297 60.636 53.9297 60.132V58.116C60.4817 56.1 65.0178 52.992 68.2098 48.876L70.5617 49.464C69.3017 57.696 69.6377 62.736 69.6377 68.28V82.392C69.6377 88.776 71.4018 91.968 78.1217 94.236L77.7858 96.588C73.6697 96.168 68.6298 96 65.9417 96C63.2537 96 59.0537 96.168 53.9297 96.588L53.5938 94.236Z" fill="black"/>
<path d="M23.2002 94.2361C29.9202 92.0521 31.6842 88.7761 31.6842 82.3921V49.5481C31.6842 43.1641 29.7522 37.7881 23.5362 37.7881V35.5201C32.1882 34.0921 36.8922 31.0681 41.1762 26.1121L42.6882 27.3721C40.0842 33.8401 39.2442 40.6441 39.2442 47.0281V82.3921C39.2442 88.7761 41.0082 91.9681 47.7282 94.2361L47.3922 96.5881C43.2762 96.1681 38.2362 96.0001 35.5482 96.0001C32.8602 96.0001 28.6602 96.1681 23.5362 96.5881L23.2002 94.2361Z" fill="black"/>
</svg>
