<svg width="469" height="121" viewBox="0 0 469 121" fill="none" xmlns="http://www.w3.org/2000/svg">
<g clip-path="url(#clip0_23_245)">
<rect width="469" height="121" fill="white"/>
<path d="M190.821 125.056V45.28H222.501V100H198.789V125.056H190.821ZM198.789 95.392H221.061V49.888H198.789V95.392Z" fill="black"/>
<path d="M161.241 100V45.28H183.129V49.888H169.209V100H161.241Z" fill="black"/>
<path d="M118.067 100V74.272H141.779V49.888H118.067V45.28H149.747V100H118.067ZM119.507 95.392H141.779V75.712H119.507V95.392Z" fill="black"/>
<path d="M74.8936 100V24.7361H82.8616V45.2801H106.574V100H105.134V49.8881H82.8616V100H74.8936Z" fill="black"/>
<path d="M31.7197 100V95.392H61.9597V75.712H31.7197V45.28H63.3997V49.888H39.6877V74.272H63.3997V100H31.7197Z" fill="black"/>
</g>
<defs>
<clipPath id="clip0_23_245">
<rect width="469" height="121" fill="white"/>
</clipPath>
</defs>
</svg>
