<svg width="485" height="121" viewBox="0 0 485 121" fill="none" xmlns="http://www.w3.org/2000/svg">
<rect width="485" height="121" fill="white"/>
<path d="M385.947 61.712C386.715 61.712 387.387 61.424 387.867 60.944C388.443 61.424 389.115 61.712 389.883 61.712C391.515 61.712 393.051 60.56 393.051 58.544V50.384C394.395 52.304 397.083 53.648 400.539 53.648C405.819 53.648 410.235 49.808 410.235 44.24C410.235 42.992 409.947 41.744 409.467 40.496L407.547 41.264C408.027 42.32 408.219 43.28 408.219 44.336C408.219 49.136 404.379 51.632 400.539 51.632C396.123 51.632 393.819 49.136 393.051 46.544H390.939V58.544C390.939 59.6 390.075 59.696 389.883 59.696C389.403 59.696 388.827 59.12 388.827 58.64L388.635 46.544H387.099L387.003 58.736C387.003 59.312 386.427 59.696 385.947 59.696C385.851 59.696 384.987 59.6 384.987 58.736L384.891 46.544H383.355L383.163 58.928C383.163 59.696 382.299 59.888 382.107 59.888C381.723 59.888 381.147 59.6 381.147 58.736V38.672C381.147 33.776 382.107 32.528 388.731 32.528C397.947 32.528 406.299 32.24 414.651 32.24C427.515 32.24 435.195 40.592 435.195 49.424C435.195 56.144 433.083 59.504 431.643 61.232C430.587 59.12 428.475 57.68 426.171 57.008C422.139 55.952 420.987 55.76 418.779 55.28L418.299 57.296C420.507 57.68 421.659 57.68 425.691 59.024C430.779 60.752 431.163 66.704 431.931 71.792L432.411 75.056C432.603 76.112 433.563 83.696 437.691 83.696H442.587C443.643 83.696 444.219 84.368 444.219 84.848C444.219 85.328 443.739 85.808 442.971 85.808H439.707V87.344H442.587C443.643 87.344 444.219 87.92 444.219 88.4C444.219 88.88 443.547 89.36 442.779 89.36H439.707V90.896H442.875C443.739 90.896 444.219 91.28 444.219 91.76C444.219 92.432 443.355 92.624 443.067 92.624H439.707V94.16H443.163C443.739 94.16 444.699 94.544 444.699 95.12C444.699 95.408 444.315 95.984 443.643 95.984H420.219L414.843 81.104C416.187 80.624 417.627 79.952 419.067 79.088L418.011 77.36C415.131 78.992 411.963 80.144 408.699 80.144C404.955 80.144 402.075 78.992 400.347 77.744C396.699 75.056 394.395 70.544 394.395 66.896C394.395 66.416 394.395 65.84 394.491 65.456L392.571 65.072C392.475 65.648 392.379 66.416 392.379 66.992C392.379 71.312 394.971 76.4 399.195 79.376C400.443 80.24 401.787 81.008 403.227 81.392V95.984H381.531V61.904H382.107C382.875 61.904 383.547 61.616 384.123 61.136C384.699 61.52 385.275 61.712 385.947 61.712Z" fill="black"/>
<path d="M326.066 59.8881C318.962 58.2561 315.698 52.0161 315.698 46.9281C315.698 39.8241 321.458 32.5281 331.154 32.5281H357.17C361.202 32.5281 368.018 33.4881 368.018 40.2081C368.018 44.5281 360.722 49.0401 357.746 51.1521C354.674 50.0001 350.93 49.3281 346.322 48.8481L346.034 50.8641C354.002 51.8241 364.658 53.5521 364.658 63.2481C364.658 70.9281 356.978 74.7681 350.258 75.1521C349.106 74.4801 347.762 74.0961 346.418 74.0001C344.114 74.0001 341.906 74.8641 340.754 76.6881H331.73V78.7041H339.794C339.026 81.0081 339.026 82.6401 339.026 82.7361H341.042C341.234 79.4721 342.578 76.0161 346.13 76.0161C348.146 76.0161 350.258 76.9761 350.93 78.7041L351.122 79.1841L365.618 83.4081C366.77 83.6961 366.962 84.0801 366.962 84.4641C366.962 84.7521 366.674 85.1361 365.618 85.1361L361.778 85.2321V86.7681L365.618 86.8641C366.482 86.8641 367.058 87.1521 367.058 87.8241C367.058 88.4001 366.674 88.7841 365.618 88.7841L361.778 88.8801V90.4161L365.618 90.6081C366.29 90.6081 367.058 90.8961 367.058 91.4721C367.058 91.9521 366.77 92.4321 365.618 92.4321L361.778 92.5281V94.0641L365.714 94.1601C366.77 94.1601 367.058 94.6401 367.058 95.2161C367.058 95.7921 366.578 96.0801 365.618 96.0801H327.698C321.554 96.0801 318.578 91.9521 318.962 86.9601L320.882 59.8881C322.322 60.7521 323.858 61.4241 325.586 61.8081L326.066 59.8881Z" fill="black"/>
<path d="M283.409 74.768L274.865 71.216C269.009 68.816 262.481 66.128 262.481 56.528C262.481 54.8 262.673 52.976 263.153 51.44C267.089 50.192 269.393 47.024 269.969 43.472C271.985 42.608 274.289 42.224 276.977 42.224C277.841 42.224 278.801 42.224 279.761 42.32L279.953 40.4C278.897 40.304 277.841 40.208 276.881 40.208C274.289 40.208 272.081 40.592 269.969 41.456C269.681 39.248 268.817 37.136 267.857 36.176L266.417 37.616C267.089 38.288 268.049 40.496 268.049 42.608C268.049 46.64 264.209 49.616 260.657 49.616H259.697V63.536C259.697 64.592 259.217 64.976 258.641 64.976C257.969 64.976 257.393 64.496 257.393 63.536L257.201 48.944H255.665V63.536C255.665 64.496 255.185 65.072 254.417 65.072C253.745 65.072 253.169 64.496 253.169 63.536V48.944H251.633L251.537 63.536C251.537 64.592 251.057 65.072 250.385 65.072C249.617 65.072 249.425 64.208 249.425 63.536V38.864C249.425 35.216 251.537 33.104 255.185 33.104H272.849C294.833 33.104 304.913 49.232 304.913 64.4C304.913 85.904 288.401 97.616 270.737 97.616C258.641 97.616 249.425 91.376 249.425 80.336C249.425 72.368 254.705 66.608 262.673 66.608H263.729C266.513 69.968 270.641 71.408 274.097 72.944L282.641 76.592L283.409 74.768Z" fill="black"/>
<path d="M188.712 61.2319C190.248 67.6639 192.744 77.8399 194.856 83.7919C193.416 85.9999 186.216 93.8719 183.144 95.6959C181.992 96.4639 180.648 96.7519 179.304 96.7519C177.96 96.7519 178.056 96.4639 175.656 95.7919C173.352 94.4479 172.104 91.8559 172.104 88.3039C172.104 82.8319 172.392 78.2239 172.392 73.5199C172.488 61.9999 172.584 45.7759 174.024 39.6319C175.08 35.2159 179.208 30.9919 183.144 30.9919C186.792 30.9919 191.304 33.3919 193.32 37.8079C198.12 47.8879 219.144 80.8159 220.008 82.1599L221.64 81.0079C221.448 80.7199 206.664 57.4879 198.888 43.9519C218.76 47.6959 232.872 64.6879 232.872 78.1279C232.872 89.3599 226.728 97.8079 215.4 97.8079C210.696 97.8079 201.384 96.6559 196.776 83.1199C193.608 73.9999 189.48 55.0879 189.384 54.8959L187.464 55.3759C187.464 55.4719 187.752 57.0079 188.328 59.3119L183.336 57.9679L182.76 59.8879L188.712 61.2319ZM222.504 53.5519C217.416 49.1359 211.176 45.7759 204.84 43.6639L207.432 36.9439C209.256 32.2399 210.888 31.5679 214.728 31.5679H234.408C235.56 31.5679 236.136 32.2399 236.136 32.8159C236.136 33.5839 235.464 34.3519 234.408 34.3519H224.904V36.3679H234.408C235.56 36.3679 236.136 37.0399 236.136 37.7119C236.136 38.4799 235.56 39.2479 234.504 39.2479H225V41.2639H234.12C235.08 41.2639 235.848 41.7439 235.848 42.6079C235.848 43.4719 234.984 43.9519 233.928 43.9519H226.344C227.976 45.1999 228.84 46.7359 228.84 48.3679C228.84 51.3439 227.016 53.7439 224.136 53.7439C222.216 53.7439 221.64 53.6479 222.504 53.5519Z" fill="black"/>
<path d="M117.983 59.8881C110.879 58.2561 107.615 52.0161 107.615 46.9281C107.615 39.8241 113.375 32.5281 123.071 32.5281H149.087C153.119 32.5281 159.935 33.4881 159.935 40.2081C159.935 44.5281 152.639 49.0401 149.663 51.1521C146.591 50.0001 142.847 49.3281 138.239 48.8481L137.951 50.8641C145.919 51.8241 156.575 53.5521 156.575 63.2481C156.575 70.9281 148.895 74.7681 142.175 75.1521C141.023 74.4801 139.679 74.0961 138.335 74.0001C136.031 74.0001 133.823 74.8641 132.671 76.6881H123.647V78.7041H131.711C130.943 81.0081 130.943 82.6401 130.943 82.7361H132.959C133.151 79.4721 134.495 76.0161 138.047 76.0161C140.063 76.0161 142.175 76.9761 142.847 78.7041L143.039 79.1841L157.535 83.4081C158.687 83.6961 158.879 84.0801 158.879 84.4641C158.879 84.7521 158.591 85.1361 157.535 85.1361L153.695 85.2321V86.7681L157.535 86.8641C158.399 86.8641 158.975 87.1521 158.975 87.8241C158.975 88.4001 158.591 88.7841 157.535 88.7841L153.695 88.8801V90.4161L157.535 90.6081C158.207 90.6081 158.975 90.8961 158.975 91.4721C158.975 91.9521 158.687 92.4321 157.535 92.4321L153.695 92.5281V94.0641L157.631 94.1601C158.687 94.1601 158.975 94.6401 158.975 95.2161C158.975 95.7921 158.495 96.0801 157.535 96.0801H119.615C113.471 96.0801 110.495 91.9521 110.879 86.9601L112.799 59.8881C114.239 60.7521 115.775 61.4241 117.503 61.8081L117.983 59.8881Z" fill="black"/>
<path d="M48.6164 57.9681H30.8564V32.9121H96.9044V57.9681H79.8164V95.9841H64.0724C63.7844 93.8721 63.1124 87.9201 63.1124 81.5841C63.1124 77.7441 63.3044 73.7121 64.0724 70.3521C66.9524 71.8881 70.1205 72.3681 72.4244 72.3681V70.3521C67.5285 70.3521 58.2164 67.3761 58.2164 56.3361C58.2164 47.8881 64.9364 44.9121 65.2244 44.8161L64.4564 42.9921C64.0724 43.0881 56.2004 46.5441 56.2004 56.3361C56.2004 62.6721 58.7924 66.6081 62.0564 69.0081C60.9044 69.5841 59.2724 69.9681 57.6404 69.9681C56.1044 69.9681 54.6644 69.6801 53.5124 69.1041L52.6484 70.9281C54.0884 71.6001 55.9124 71.8881 57.6404 71.8881C59.0804 71.8881 60.6164 71.6961 61.8644 71.2161C61.2884 74.5761 61.0964 78.4161 61.0964 81.9681C61.0964 88.1121 61.6724 93.7761 62.0564 95.9841H48.6164V57.9681Z" fill="black"/>
</svg>
