<svg width="505" height="130" viewBox="0 0 505 130" fill="none" xmlns="http://www.w3.org/2000/svg">
<rect width="505" height="130" fill="white"/>
<path d="M365.011 100C360.792 100 357.136 99.2031 354.042 97.6094C350.949 95.9844 348.542 93.8125 346.824 91.0938C345.136 88.375 344.292 85.3906 344.292 82.1406V53.6406C344.292 50.3594 345.136 47.375 346.824 44.6875C348.542 41.9688 350.949 39.8125 354.042 38.2188C357.136 36.5938 360.792 35.7812 365.011 35.7812H379.449C383.667 35.7812 387.324 36.5938 390.417 38.2188C393.542 39.8125 395.949 41.9688 397.636 44.6875C399.324 47.375 400.167 50.3594 400.167 53.6406V82.1406C400.167 85.3906 399.324 88.375 397.636 91.0938C395.949 93.8125 393.542 95.9844 390.417 97.6094C387.324 99.2031 383.667 100 379.449 100H365.011ZM365.527 78.7656H384.886V73.7969H370.496V40H365.527V78.7656Z" fill="black"/>
<path d="M311.431 100C307.212 100 303.556 99.2031 300.462 97.6094C297.369 95.9844 294.962 93.8125 293.244 91.0938C291.556 88.375 290.712 85.3906 290.712 82.1406V53.6406C290.712 50.3594 291.556 47.375 293.244 44.6875C294.962 41.9688 297.369 39.8125 300.462 38.2188C303.556 36.5938 307.212 35.7812 311.431 35.7812H325.869C330.087 35.7812 333.744 36.5938 336.837 38.2188C339.962 39.8125 342.369 41.9688 344.056 44.6875C345.744 47.375 346.587 50.3594 346.587 53.6406V82.1406C346.587 85.3906 345.744 88.375 344.056 91.0938C342.369 93.8125 339.962 95.9844 336.837 97.6094C333.744 99.2031 330.087 100 325.869 100H311.431ZM313.072 78.7656H323.337L326.994 78.2031L331.634 78.7188V43.5625L328.447 40.5625L323.759 40H313.072L307.587 40.6562L308.759 45.7656L313.166 44.875H323.619L326.431 45.4844L327.087 47.9688V58.8906L323.759 58.3281H313.072L308.384 59.0312L305.384 61.9844L304.728 65.8281V71.3125L305.384 75.25L308.384 78.2031L313.072 78.7656ZM313.353 73.7969L310.4 73.3281L309.744 70.5156V66.4844L310.119 63.8125L313.353 63.3438H323.525L327.087 63.7188V73.3281L323.431 73.7969H313.353Z" fill="black"/>
<path d="M257.851 100C253.632 100 249.976 99.2031 246.882 97.6094C243.789 95.9844 241.382 93.8125 239.664 91.0938C237.976 88.375 237.132 85.3906 237.132 82.1406V53.6406C237.132 50.3594 237.976 47.375 239.664 44.6875C241.382 41.9688 243.789 39.8125 246.882 38.2188C249.976 36.5938 253.632 35.7812 257.851 35.7812H272.289C276.507 35.7812 280.164 36.5938 283.257 38.2188C286.382 39.8125 288.789 41.9688 290.476 44.6875C292.164 47.375 293.007 50.3594 293.007 53.6406V82.1406C293.007 85.3906 292.164 88.375 290.476 91.0938C288.789 93.8125 286.382 95.9844 283.257 97.6094C280.164 99.2031 276.507 100 272.289 100H257.851ZM254.101 78.7656H281.195V73.7969H270.179V44.9688H281.195V40H254.101V44.9688H265.164V73.7969H254.101V78.7656Z" fill="black"/>
<path d="M204.271 100C200.053 100 196.396 99.2031 193.303 97.6094C190.209 95.9844 187.803 93.8125 186.084 91.0938C184.396 88.375 183.553 85.3906 183.553 82.1406V53.6406C183.553 50.3594 184.396 47.375 186.084 44.6875C187.803 41.9688 190.209 39.8125 193.303 38.2188C196.396 36.5938 200.053 35.7812 204.271 35.7812H218.709C222.928 35.7812 226.584 36.5938 229.678 38.2188C232.803 39.8125 235.209 41.9688 236.896 44.6875C238.584 47.375 239.428 50.3594 239.428 53.6406V82.1406C239.428 85.3906 238.584 88.375 236.896 91.0938C235.209 93.8125 232.803 95.9844 229.678 97.6094C226.584 99.2031 222.928 100 218.709 100H204.271ZM206.803 78.7656H218.1L223.584 78.1094L222.412 73.0469L218.006 73.7969H207.084L203.99 73.3281L203.334 70.5156V47.9688L203.803 45.3906L207.084 44.875H217.818L222.646 45.6719L223.584 40.6562L218.1 40H206.803L201.975 40.5625L199.021 43.5625L198.318 47.5V71.3125L199.021 75.25L202.068 78.2031L206.803 78.7656Z" fill="black"/>
<path d="M150.691 100C146.473 100 142.816 99.2031 139.723 97.6094C136.629 95.9844 134.223 93.8125 132.504 91.0938C130.816 88.375 129.973 85.3906 129.973 82.1406V53.6406C129.973 50.3594 130.816 47.375 132.504 44.6875C134.223 41.9688 136.629 39.8125 139.723 38.2188C142.816 36.5938 146.473 35.7812 150.691 35.7812H165.129C169.348 35.7812 173.004 36.5938 176.098 38.2188C179.223 39.8125 181.629 41.9688 183.316 44.6875C185.004 47.375 185.848 50.3594 185.848 53.6406V82.1406C185.848 85.3906 185.004 88.375 183.316 91.0938C181.629 93.8125 179.223 95.9844 176.098 97.6094C173.004 99.2031 169.348 100 165.129 100H150.691ZM152.707 77.2656H164.52L170.004 76.5625L168.832 71.5L164.426 72.25H153.035L150.035 71.7812L149.379 68.9688V59.3125H171.27V47.5L170.566 43.5625L167.613 40.5625L162.879 40H152.707L148.02 40.5625L145.066 43.5625L144.363 47.5V69.7656L145.066 73.7031L148.02 76.6562L152.707 77.2656ZM149.379 54.3906V48.0625L149.754 45.3906L153.035 44.875H162.598L165.785 45.3906L166.254 48.1562V54.3906H149.379Z" fill="black"/>
<path d="M97.1113 100C92.8926 100 89.2363 99.2031 86.1426 97.6094C83.0488 95.9844 80.6426 93.8125 78.9238 91.0938C77.2363 88.375 76.3926 85.3906 76.3926 82.1406V53.6406C76.3926 50.3594 77.2363 47.375 78.9238 44.6875C80.6426 41.9688 83.0488 39.8125 86.1426 38.2188C89.2363 36.5938 92.8926 35.7812 97.1113 35.7812H111.549C115.768 35.7812 119.424 36.5938 122.518 38.2188C125.643 39.8125 128.049 41.9688 129.736 44.6875C131.424 47.375 132.268 50.3594 132.268 53.6406V82.1406C132.268 85.3906 131.424 88.375 129.736 91.0938C128.049 93.8125 125.643 95.9844 122.518 97.6094C119.424 99.2031 115.768 100 111.549 100H97.1113ZM94.252 78.7656H99.127V64.9375H111.736L116.518 64.375L119.518 61.4219L120.174 57.3906V47.5938L119.518 43.6562L116.518 40.6562L111.736 40H94.252V78.7656ZM99.127 59.9688V44.9688H111.455L114.689 45.4844L115.158 48.25V56.875L114.502 59.5L111.455 59.9688H99.127Z" fill="black"/>
<path d="M43.5312 100C39.3125 100 35.6562 99.2031 32.5625 97.6094C29.4688 95.9844 27.0625 93.8125 25.3438 91.0938C23.6562 88.375 22.8125 85.3906 22.8125 82.1406V53.6406C22.8125 50.3594 23.6562 47.375 25.3438 44.6875C27.0625 41.9688 29.4688 39.8125 32.5625 38.2188C35.6562 36.5938 39.3125 35.7812 43.5312 35.7812H57.9688C62.1875 35.7812 65.8438 36.5938 68.9375 38.2188C72.0625 39.8125 74.4688 41.9688 76.1562 44.6875C77.8438 47.375 78.6875 50.3594 78.6875 53.6406V82.1406C78.6875 85.3906 77.8438 88.375 76.1562 91.0938C74.4688 93.8125 72.0625 95.9844 68.9375 97.6094C65.8438 99.2031 62.1875 100 57.9688 100H43.5312ZM46.1562 78.7656H58.3438L63.125 78.2031L66.125 75.25L66.7812 71.2188V64.0938L66.125 60.0625L63.125 57.1094L58.25 56.5938H47.75L44.8906 56.0312L44.2344 53.2656V48.3438L44.8906 45.5781L47.9844 44.9688H59.8906L64.2969 45.8594L65.4219 40.75L59.9844 40H47.6562L42.9688 40.6562L39.9219 43.6562L39.3125 47.5938V54.0156L39.9219 57.9531L42.9688 60.9062L47.6562 61.5156H58.25L61.1094 61.9844L61.7656 64.5625V70.7031L61.1094 73.3281L58.0625 73.7969H46.4375L41.8438 73.0469L40.6719 78.1094L46.1562 78.7656Z" fill="black"/>
</svg>
