<svg width="505" height="130" viewBox="0 0 505 130" fill="none" xmlns="http://www.w3.org/2000/svg">
<rect width="505" height="130" fill="white"/>
<path d="M412.731 91.8399C412.219 93.6959 412.059 95.1679 412.251 96.2559C412.443 97.2799 413.147 97.7919 414.363 97.7919C415.643 97.7919 416.827 97.0879 417.915 95.6799C419.067 94.2079 420.283 91.6479 421.563 87.9999L422.811 84.4479H424.635L422.235 91.4559C421.403 93.8879 420.379 95.8399 419.163 97.3119C418.011 98.7199 416.731 99.7439 415.323 100.384C413.915 101.024 412.379 101.344 410.715 101.344C408.603 101.344 407.035 100.928 406.011 100.096C405.051 99.3279 404.443 98.2719 404.187 96.9279C403.995 95.5839 404.027 94.1439 404.283 92.6079C404.603 91.0079 404.987 89.4399 405.435 87.9039L421.083 35.9679C421.723 33.7919 421.659 32.1919 420.891 31.1679C420.123 30.1439 418.171 29.6319 415.035 29.6319L415.707 27.6159C419.227 27.5519 422.331 27.1999 425.019 26.5599C427.707 25.8559 430.299 24.8959 432.795 23.6799L412.731 91.8399Z" fill="black"/>
<path d="M388.502 66.784C386.198 73.184 383.99 78.592 381.878 83.008C379.766 87.424 377.654 90.976 375.542 93.664C373.494 96.352 371.382 98.304 369.206 99.52C367.094 100.736 364.886 101.344 362.582 101.344C359.766 101.344 357.718 100.704 356.438 99.424C355.158 98.144 354.518 96.416 354.518 94.24C354.518 92.064 354.966 89.6 355.862 86.848L365.174 58.816C365.814 56.896 366.038 55.424 365.846 54.4C365.654 53.376 364.918 52.864 363.638 52.864C362.422 52.864 361.206 53.536 359.99 54.88C358.838 56.224 357.59 58.816 356.246 62.656L354.998 66.208H353.174L355.574 59.2C356.534 56.512 357.654 54.464 358.934 53.056C360.278 51.648 361.654 50.688 363.062 50.176C364.534 49.6 365.91 49.312 367.19 49.312C370.006 49.312 371.862 49.984 372.758 51.328C373.718 52.608 374.07 54.272 373.814 56.32C373.622 58.368 373.142 60.512 372.374 62.752L363.254 90.208C361.462 95.584 362.166 98.272 365.366 98.272C366.902 98.272 368.534 97.6 370.262 96.256C371.99 94.848 373.75 92.864 375.542 90.304C377.334 87.68 379.094 84.576 380.822 80.992C382.614 77.344 384.31 73.312 385.91 68.896C387.574 64.416 389.078 59.616 390.422 54.496L388.502 66.784ZM388.214 91.84C387.766 93.568 387.542 95.008 387.542 96.16C387.606 97.248 388.278 97.792 389.558 97.792C390.966 97.792 392.246 97.056 393.398 95.584C394.614 94.048 395.83 91.52 397.046 88L398.294 84.448H400.118L397.718 91.456C396.822 94.144 395.702 96.192 394.358 97.6C393.078 99.008 391.702 99.968 390.23 100.48C388.822 101.056 387.446 101.344 386.102 101.344C385.078 101.344 384.118 101.12 383.222 100.672C382.326 100.224 381.654 99.584 381.206 98.752C380.694 97.664 380.502 96.288 380.63 94.624C380.822 92.96 381.27 90.72 381.974 87.904L391.382 50.656C392.982 50.592 394.518 50.464 395.99 50.272C397.526 50.08 398.902 49.76 400.118 49.312L388.214 91.84Z" fill="black"/>
<path d="M327.898 52.576L328.474 50.656H356.794L356.218 52.576H327.898ZM358.81 26.368C357.594 26.368 356.538 26.624 355.642 27.136C354.746 27.648 353.946 28.224 353.242 28.864C352.09 29.952 351.066 31.616 350.17 33.856C349.338 36.032 348.538 38.56 347.77 41.44C347.066 44.32 346.298 47.36 345.466 50.56L327.706 116.704C326.17 116.768 324.666 116.896 323.194 117.088C321.722 117.28 320.346 117.6 319.066 118.048L337.114 50.56C338.458 45.44 339.866 41.216 341.338 37.888C342.874 34.56 344.73 31.84 346.906 29.728C348.378 28.256 350.17 27.104 352.282 26.272C354.458 25.376 356.666 24.928 358.906 24.928C361.85 24.928 364.09 25.6 365.626 26.944C367.226 28.224 368.026 29.824 368.026 31.744C368.026 32.832 367.738 33.888 367.162 34.912C366.586 35.936 365.818 36.768 364.858 37.408C363.898 38.048 362.81 38.368 361.594 38.368C360.378 38.368 359.418 38.08 358.714 37.504C358.01 36.928 357.69 36.128 357.754 35.104C357.754 33.504 358.266 32.16 359.29 31.072C360.314 29.92 361.626 29.12 363.226 28.672C363.226 28.096 362.81 27.584 361.978 27.136C361.146 26.624 360.09 26.368 358.81 26.368Z" fill="black"/>
<path d="M327.136 50.656L326.848 52.576H296.992L297.472 50.656H327.136ZM302.752 91.84C302.176 93.952 302.304 95.488 303.136 96.448C304.032 97.344 305.184 97.792 306.592 97.792C308 97.792 309.408 97.184 310.816 95.968C312.288 94.752 313.728 92.16 315.136 88.192L316.48 84.448H318.304L316.288 90.496C314.88 94.656 313.056 97.504 310.816 99.04C308.64 100.576 306.08 101.344 303.136 101.344C300.512 101.344 298.496 100.8 297.088 99.712C295.744 98.56 294.944 96.96 294.688 94.912C294.432 92.864 294.688 90.528 295.456 87.904L310.336 36.064C311.872 36 313.376 35.872 314.848 35.68C316.384 35.488 317.76 35.168 318.976 34.72L302.752 91.84Z" fill="black"/>
<path d="M249.076 99.9999H240.724L259.732 35.9679C260.372 33.7919 260.276 32.1919 259.444 31.1679C258.676 30.1439 256.724 29.6319 253.588 29.6319L254.164 27.6159C257.684 27.5519 260.852 27.1999 263.668 26.5599C266.484 25.8559 269.076 24.8959 271.444 23.6799L249.076 99.9999ZM251.764 85.7919C254.196 79.0719 256.5 73.3759 258.676 68.7039C260.916 64.0319 263.124 60.2879 265.3 57.4719C267.476 54.5919 269.716 52.5119 272.02 51.2319C274.324 49.9519 276.724 49.3119 279.22 49.3119C282.228 49.3119 284.276 50.0479 285.364 51.5199C286.516 52.9279 287.028 54.7519 286.9 56.9919C286.772 59.2319 286.324 61.5039 285.556 63.8079L276.244 91.8399C275.732 93.5039 275.508 94.9119 275.572 96.0639C275.636 97.2159 276.372 97.7919 277.78 97.7919C278.996 97.7919 280.18 97.1199 281.332 95.7759C282.548 94.4319 283.828 91.8399 285.172 87.9999L286.42 84.4479H288.244L285.844 91.4559C284.948 94.1439 283.828 96.1919 282.484 97.5999C281.204 99.0079 279.828 99.9679 278.356 100.48C276.948 101.056 275.572 101.344 274.228 101.344C271.668 101.344 269.876 100.768 268.852 99.6159C267.828 98.4639 267.38 96.8639 267.508 94.8159C267.7 92.7679 268.212 90.4639 269.044 87.9039L278.164 60.4479C278.484 59.4879 278.772 58.3679 279.028 57.0879C279.284 55.8079 279.22 54.7199 278.836 53.8239C278.516 52.8639 277.588 52.3839 276.052 52.3839C274.452 52.3839 272.724 53.1199 270.868 54.5919C269.076 55.9999 267.22 58.0479 265.3 60.7359C263.38 63.4239 261.492 66.6559 259.636 70.4319C257.78 74.2079 255.988 78.4319 254.26 83.1039C252.596 87.7119 251.028 92.7039 249.556 98.0799L251.764 85.7919Z" fill="black"/>
<path d="M221.119 78.4L223.519 78.496C221.215 79.776 219.071 80.96 217.087 82.048C215.167 83.072 213.599 84.032 212.383 84.928C211.167 85.824 210.559 86.688 210.559 87.52C210.559 88.16 211.007 88.768 211.903 89.344C212.799 89.856 214.271 90.368 216.319 90.88L223.327 92.704C225.375 93.216 227.199 93.824 228.799 94.528C230.463 95.168 231.775 96 232.735 97.024C233.695 98.048 234.175 99.392 234.175 101.056C234.175 102.656 233.631 104.448 232.543 106.432C231.519 108.48 229.887 110.432 227.647 112.288C225.471 114.144 222.623 115.68 219.103 116.896C215.583 118.112 211.327 118.72 206.335 118.72C203.007 118.72 200.223 118.4 197.983 117.76C195.679 117.184 193.983 116.352 192.895 115.264C191.743 114.176 191.167 112.928 191.167 111.52C191.167 110.496 191.455 109.408 192.031 108.256C192.607 107.168 193.471 106.08 194.623 104.992C195.711 103.968 197.119 102.976 198.847 102.016C200.511 101.12 202.495 100.352 204.799 99.712L205.471 101.152C203.103 102.368 201.471 103.744 200.575 105.28C199.679 106.816 199.231 108.352 199.231 109.888C199.231 112.448 200.127 114.272 201.919 115.36C203.711 116.512 205.919 117.088 208.543 117.088C210.655 117.088 212.831 116.736 215.071 116.032C217.311 115.392 219.391 114.496 221.311 113.344C223.231 112.256 224.767 110.976 225.919 109.504C227.071 108.032 227.647 106.496 227.647 104.896C227.647 103.936 227.327 103.296 226.687 102.976C226.111 102.656 225.119 102.336 223.711 102.016L209.023 98.272C207.487 97.888 206.239 97.248 205.279 96.352C204.319 95.392 203.839 94.112 203.839 92.512C203.839 91.232 204.287 89.92 205.183 88.576C206.079 87.232 207.775 85.76 210.271 84.16C212.767 82.496 216.383 80.576 221.119 78.4ZM226.015 51.04C223.967 51.04 222.239 51.648 220.831 52.864C219.423 54.016 218.239 55.52 217.279 57.376C216.383 59.168 215.679 61.056 215.167 63.04C214.719 65.024 214.399 66.848 214.207 68.512C214.015 70.112 213.919 71.296 213.919 72.064C213.919 74.112 214.367 75.584 215.263 76.48C216.223 77.376 217.47 77.824 219.007 77.824C221.439 77.824 223.391 77.088 224.863 75.616C226.399 74.144 227.583 72.32 228.415 70.144C229.247 67.968 229.791 65.792 230.047 63.616C230.367 61.44 230.527 59.616 230.527 58.144C230.527 55.968 230.239 54.24 229.663 52.96C229.087 51.68 227.871 51.04 226.015 51.04ZM226.399 49.312C230.175 49.312 233.215 50.176 235.519 51.904C237.887 53.568 239.071 56.288 239.071 60.064C239.071 63.136 238.207 66.176 236.479 69.184C234.751 72.192 232.319 74.688 229.183 76.672C226.047 78.592 222.335 79.552 218.047 79.552C214.527 79.552 211.551 78.72 209.119 77.056C206.751 75.328 205.567 72.672 205.567 69.088C205.567 67.36 205.919 65.376 206.623 63.136C207.391 60.832 208.575 58.656 210.175 56.608C211.775 54.496 213.887 52.768 216.511 51.424C219.199 50.016 222.495 49.312 226.399 49.312ZM233.215 54.304L231.487 53.632C232.383 51.456 233.919 49.536 236.095 47.872C238.271 46.208 240.543 45.376 242.911 45.376C244.575 45.376 245.919 45.856 246.943 46.816C247.967 47.712 248.479 49.152 248.479 51.136C248.479 52.928 248.031 54.24 247.135 55.072C246.239 55.904 245.279 56.32 244.255 56.32C243.231 56.32 242.239 56 241.279 55.36C240.383 54.656 239.839 53.568 239.647 52.096C239.455 50.624 239.871 48.736 240.895 46.432L242.143 46.72C239.455 47.744 237.535 48.832 236.383 49.984C235.231 51.072 234.175 52.512 233.215 54.304Z" fill="black"/>
<path d="M185.946 66.784C183.642 73.184 181.434 78.592 179.322 83.008C177.21 87.424 175.098 90.976 172.986 93.664C170.938 96.352 168.826 98.304 166.65 99.52C164.538 100.736 162.33 101.344 160.026 101.344C157.21 101.344 155.162 100.704 153.882 99.424C152.602 98.144 151.962 96.416 151.962 94.24C151.962 92.064 152.41 89.6 153.306 86.848L162.618 58.816C163.258 56.896 163.482 55.424 163.29 54.4C163.098 53.376 162.362 52.864 161.082 52.864C159.866 52.864 158.65 53.536 157.434 54.88C156.282 56.224 155.034 58.816 153.69 62.656L152.442 66.208H150.618L153.018 59.2C153.978 56.512 155.098 54.464 156.378 53.056C157.722 51.648 159.098 50.688 160.506 50.176C161.978 49.6 163.354 49.312 164.634 49.312C167.45 49.312 169.306 49.984 170.202 51.328C171.162 52.608 171.514 54.272 171.258 56.32C171.066 58.368 170.586 60.512 169.818 62.752L160.698 90.208C158.906 95.584 159.61 98.272 162.81 98.272C164.346 98.272 165.978 97.6 167.706 96.256C169.434 94.848 171.194 92.864 172.986 90.304C174.778 87.68 176.538 84.576 178.266 80.992C180.058 77.344 181.754 73.312 183.354 68.896C185.018 64.416 186.522 59.616 187.866 54.496L185.946 66.784ZM185.658 91.84C185.21 93.568 184.986 95.008 184.986 96.16C185.05 97.248 185.722 97.792 187.002 97.792C188.41 97.792 189.69 97.056 190.842 95.584C192.058 94.048 193.274 91.52 194.49 88L195.738 84.448H197.562L195.162 91.456C194.266 94.144 193.146 96.192 191.802 97.6C190.522 99.008 189.146 99.968 187.674 100.48C186.266 101.056 184.89 101.344 183.546 101.344C182.522 101.344 181.562 101.12 180.666 100.672C179.77 100.224 179.098 99.584 178.65 98.752C178.138 97.664 177.946 96.288 178.074 94.624C178.266 92.96 178.714 90.72 179.418 87.904L188.826 50.656C190.426 50.592 191.962 50.464 193.434 50.272C194.97 50.08 196.346 49.76 197.562 49.312L185.658 91.84Z" fill="black"/>
<path d="M132.063 51.232C130.015 51.232 128.031 52.064 126.111 53.728C124.255 55.328 122.527 57.536 120.927 60.352C119.391 63.104 118.015 66.208 116.799 69.664C115.647 73.12 114.751 76.704 114.111 80.416C113.471 84.128 113.151 87.68 113.151 91.072C113.151 93.952 113.599 96.064 114.495 97.408C115.455 98.752 116.831 99.424 118.623 99.424C120.671 99.424 122.623 98.624 124.479 97.024C126.399 95.36 128.159 93.152 129.759 90.4C131.359 87.584 132.735 84.448 133.887 80.992C135.039 77.536 135.935 73.984 136.575 70.336C137.215 66.624 137.535 63.04 137.535 59.584C137.535 56.64 137.087 54.528 136.191 53.248C135.295 51.904 133.919 51.232 132.063 51.232ZM104.895 86.272C104.895 83.456 105.279 80.384 106.047 77.056C106.815 73.728 107.967 70.432 109.503 67.168C111.039 63.904 112.895 60.928 115.071 58.24C117.311 55.552 119.903 53.408 122.847 51.808C125.791 50.144 129.055 49.312 132.639 49.312C136.607 49.312 139.775 50.56 142.143 53.056C144.575 55.488 145.791 59.264 145.791 64.384C145.791 67.2 145.407 70.272 144.639 73.6C143.871 76.928 142.719 80.224 141.183 83.488C139.647 86.752 137.759 89.728 135.519 92.416C133.343 95.104 130.783 97.28 127.839 98.944C124.895 100.544 121.631 101.344 118.047 101.344C114.079 101.344 110.879 100.096 108.447 97.6C106.079 95.104 104.895 91.328 104.895 86.272Z" fill="black"/>
<path d="M60.8178 99.9999H52.4658L71.4738 35.9679C72.1138 33.7919 72.0178 32.1919 71.1858 31.1679C70.4178 30.1439 68.4658 29.6319 65.3298 29.6319L65.9058 27.6159C69.4258 27.5519 72.5938 27.1999 75.4098 26.5599C78.2258 25.8559 80.8178 24.8959 83.1858 23.6799L60.8178 99.9999ZM63.5058 85.7919C65.9378 79.0719 68.2418 73.3759 70.4178 68.7039C72.6578 64.0319 74.8658 60.2879 77.0418 57.4719C79.2178 54.5919 81.4578 52.5119 83.7618 51.2319C86.0658 49.9519 88.4658 49.3119 90.9618 49.3119C93.9698 49.3119 96.0178 50.0479 97.1058 51.5199C98.2578 52.9279 98.7698 54.7519 98.6418 56.9919C98.5138 59.2319 98.0658 61.5039 97.2978 63.8079L87.9858 91.8399C87.4738 93.5039 87.2498 94.9119 87.3138 96.0639C87.3778 97.2159 88.1138 97.7919 89.5218 97.7919C90.7378 97.7919 91.9218 97.1199 93.0738 95.7759C94.2898 94.4319 95.5698 91.8399 96.9138 87.9999L98.1618 84.4479H99.9858L97.5858 91.4559C96.6898 94.1439 95.5698 96.1919 94.2258 97.5999C92.9458 99.0079 91.5698 99.9679 90.0978 100.48C88.6898 101.056 87.3138 101.344 85.9698 101.344C83.4098 101.344 81.6178 100.768 80.5938 99.6159C79.5698 98.4639 79.1218 96.8639 79.2498 94.8159C79.4418 92.7679 79.9538 90.4639 80.7858 87.9039L89.9058 60.4479C90.2258 59.4879 90.5138 58.3679 90.7698 57.0879C91.0258 55.8079 90.9618 54.7199 90.5778 53.8239C90.2578 52.8639 89.3298 52.3839 87.7938 52.3839C86.1938 52.3839 84.4658 53.1199 82.6098 54.5919C80.8178 55.9999 78.9618 58.0479 77.0418 60.7359C75.1218 63.4239 73.2338 66.6559 71.3778 70.4319C69.5218 74.2079 67.7298 78.4319 66.0018 83.1039C64.3378 87.7119 62.7698 92.7039 61.2978 98.0799L63.5058 85.7919Z" fill="black"/>
<path d="M59.0001 50.656L58.7121 52.576H28.8561L29.3361 50.656H59.0001ZM34.6161 91.84C34.0401 93.952 34.1681 95.488 35.0001 96.448C35.8961 97.344 37.0481 97.792 38.4561 97.792C39.8641 97.792 41.2721 97.184 42.6801 95.968C44.1521 94.752 45.5921 92.16 47.0001 88.192L48.3441 84.448H50.1681L48.1521 90.496C46.7441 94.656 44.9201 97.504 42.6801 99.04C40.5041 100.576 37.9441 101.344 35.0001 101.344C32.3761 101.344 30.3601 100.8 28.9521 99.712C27.6081 98.56 26.8081 96.96 26.5521 94.912C26.2961 92.864 26.5521 90.528 27.3201 87.904L42.2001 36.064C43.7361 36 45.2401 35.872 46.7121 35.68C48.2481 35.488 49.6241 35.168 50.8401 34.72L34.6161 91.84Z" fill="black"/>
</svg>
