<svg width="410" height="120" viewBox="0 0 410 120" fill="none" xmlns="http://www.w3.org/2000/svg">
<rect width="410" height="120" fill="white"/>
<path d="M387.73 82.8399C387.218 84.6959 387.058 86.1679 387.25 87.2559C387.442 88.2799 388.146 88.7919 389.362 88.7919C390.642 88.7919 391.826 88.0879 392.914 86.6799C394.066 85.2079 395.282 82.6479 396.562 78.9999L397.81 75.4479H399.634L397.234 82.4559C396.402 84.8879 395.378 86.8399 394.162 88.3119C393.01 89.7199 391.73 90.7439 390.322 91.3839C388.914 92.0239 387.378 92.3439 385.714 92.3439C383.602 92.3439 382.034 91.9279 381.01 91.0959C380.05 90.3279 379.442 89.2719 379.186 87.9279C378.994 86.5839 379.026 85.1439 379.282 83.6079C379.602 82.0079 379.986 80.4399 380.434 78.9039L396.082 26.9679C396.722 24.7919 396.658 23.1919 395.89 22.1679C395.122 21.1439 393.17 20.6319 390.034 20.6319L390.706 18.6159C394.226 18.5519 397.33 18.1999 400.018 17.5599C402.706 16.8559 405.298 15.8959 407.794 14.6799L387.73 82.8399Z" fill="black"/>
<path d="M363.502 57.784C361.198 64.184 358.99 69.592 356.878 74.008C354.766 78.424 352.654 81.976 350.542 84.664C348.494 87.352 346.382 89.304 344.206 90.52C342.094 91.736 339.886 92.344 337.582 92.344C334.766 92.344 332.718 91.704 331.438 90.424C330.158 89.144 329.518 87.416 329.518 85.24C329.518 83.064 329.966 80.6 330.862 77.848L340.174 49.816C340.814 47.896 341.038 46.424 340.846 45.4C340.654 44.376 339.918 43.864 338.638 43.864C337.422 43.864 336.206 44.536 334.99 45.88C333.838 47.224 332.59 49.816 331.246 53.656L329.998 57.208H328.174L330.574 50.2C331.534 47.512 332.654 45.464 333.934 44.056C335.278 42.648 336.654 41.688 338.062 41.176C339.534 40.6 340.91 40.312 342.19 40.312C345.006 40.312 346.862 40.984 347.758 42.328C348.718 43.608 349.07 45.272 348.814 47.32C348.622 49.368 348.142 51.512 347.374 53.752L338.254 81.208C336.462 86.584 337.166 89.272 340.366 89.272C341.902 89.272 343.534 88.6 345.262 87.256C346.99 85.848 348.75 83.864 350.542 81.304C352.334 78.68 354.094 75.576 355.822 71.992C357.614 68.344 359.31 64.312 360.91 59.896C362.574 55.416 364.078 50.616 365.422 45.496L363.502 57.784ZM363.214 82.84C362.766 84.568 362.542 86.008 362.542 87.16C362.606 88.248 363.278 88.792 364.558 88.792C365.966 88.792 367.246 88.056 368.398 86.584C369.614 85.048 370.83 82.52 372.046 79L373.294 75.448H375.118L372.718 82.456C371.822 85.144 370.702 87.192 369.358 88.6C368.078 90.008 366.702 90.968 365.23 91.48C363.822 92.056 362.446 92.344 361.102 92.344C360.078 92.344 359.118 92.12 358.222 91.672C357.326 91.224 356.654 90.584 356.206 89.752C355.694 88.664 355.502 87.288 355.63 85.624C355.822 83.96 356.27 81.72 356.974 78.904L366.382 41.656C367.982 41.592 369.518 41.464 370.99 41.272C372.526 41.08 373.902 40.76 375.118 40.312L363.214 82.84Z" fill="black"/>
<path d="M302.898 43.576L303.474 41.656H331.794L331.218 43.576H302.898ZM333.81 17.368C332.594 17.368 331.538 17.624 330.642 18.136C329.746 18.648 328.946 19.224 328.242 19.864C327.09 20.952 326.066 22.616 325.17 24.856C324.338 27.032 323.538 29.56 322.77 32.44C322.066 35.32 321.298 38.36 320.466 41.56L302.706 107.704C301.17 107.768 299.666 107.896 298.194 108.088C296.722 108.28 295.346 108.6 294.066 109.048L312.114 41.56C313.458 36.44 314.866 32.216 316.338 28.888C317.874 25.56 319.73 22.84 321.906 20.728C323.378 19.256 325.17 18.104 327.282 17.272C329.458 16.376 331.666 15.928 333.906 15.928C336.85 15.928 339.09 16.6 340.626 17.944C342.226 19.224 343.026 20.824 343.026 22.744C343.026 23.832 342.738 24.888 342.162 25.912C341.586 26.936 340.818 27.768 339.858 28.408C338.898 29.048 337.81 29.368 336.594 29.368C335.378 29.368 334.418 29.08 333.714 28.504C333.01 27.928 332.69 27.128 332.754 26.104C332.754 24.504 333.266 23.16 334.29 22.072C335.314 20.92 336.626 20.12 338.226 19.672C338.226 19.096 337.81 18.584 336.978 18.136C336.146 17.624 335.09 17.368 333.81 17.368Z" fill="black"/>
<path d="M302.136 41.656L301.848 43.576H271.992L272.472 41.656H302.136ZM277.752 82.84C277.176 84.952 277.304 86.488 278.136 87.448C279.032 88.344 280.184 88.792 281.592 88.792C283 88.792 284.408 88.184 285.816 86.968C287.288 85.752 288.728 83.16 290.136 79.192L291.48 75.448H293.304L291.288 81.496C289.88 85.656 288.056 88.504 285.816 90.04C283.64 91.576 281.08 92.344 278.136 92.344C275.512 92.344 273.496 91.8 272.088 90.712C270.744 89.56 269.944 87.96 269.688 85.912C269.432 83.864 269.688 81.528 270.456 78.904L285.336 27.064C286.872 27 288.376 26.872 289.848 26.68C291.384 26.488 292.76 26.168 293.976 25.72L277.752 82.84Z" fill="black"/>
<path d="M224.075 90.9999H215.723L234.731 26.9679C235.371 24.7919 235.275 23.1919 234.443 22.1679C233.675 21.1439 231.723 20.6319 228.587 20.6319L229.163 18.6159C232.683 18.5519 235.851 18.1999 238.667 17.5599C241.483 16.8559 244.075 15.8959 246.443 14.6799L224.075 90.9999ZM226.763 76.7919C229.195 70.0719 231.499 64.3759 233.675 59.7039C235.915 55.0319 238.123 51.2879 240.299 48.4719C242.475 45.5919 244.715 43.5119 247.019 42.2319C249.323 40.9519 251.723 40.3119 254.219 40.3119C257.227 40.3119 259.275 41.0479 260.363 42.5199C261.515 43.9279 262.027 45.7519 261.899 47.9919C261.771 50.2319 261.323 52.5039 260.555 54.8079L251.243 82.8399C250.731 84.5039 250.507 85.9119 250.571 87.0639C250.635 88.2159 251.371 88.7919 252.779 88.7919C253.995 88.7919 255.179 88.1199 256.331 86.7759C257.547 85.4319 258.827 82.8399 260.171 78.9999L261.419 75.4479H263.243L260.843 82.4559C259.947 85.1439 258.827 87.1919 257.483 88.5999C256.203 90.0079 254.827 90.9679 253.355 91.4799C251.947 92.0559 250.571 92.3439 249.227 92.3439C246.667 92.3439 244.875 91.7679 243.851 90.6159C242.827 89.4639 242.379 87.8639 242.507 85.8159C242.699 83.7679 243.211 81.4639 244.043 78.9039L253.163 51.4479C253.483 50.4879 253.771 49.3679 254.027 48.0879C254.283 46.8079 254.219 45.7199 253.835 44.8239C253.515 43.8639 252.587 43.3839 251.051 43.3839C249.451 43.3839 247.723 44.1199 245.867 45.5919C244.075 46.9999 242.219 49.0479 240.299 51.7359C238.379 54.4239 236.491 57.6559 234.635 61.4319C232.779 65.2079 230.987 69.4319 229.259 74.1039C227.595 78.7119 226.027 83.7039 224.555 89.0799L226.763 76.7919Z" fill="black"/>
<path d="M196.118 69.4L198.518 69.496C196.214 70.776 194.07 71.96 192.086 73.048C190.166 74.072 188.598 75.032 187.382 75.928C186.166 76.824 185.558 77.688 185.558 78.52C185.558 79.16 186.006 79.768 186.902 80.344C187.798 80.856 189.27 81.368 191.318 81.88L198.326 83.704C200.374 84.216 202.198 84.824 203.798 85.528C205.462 86.168 206.774 87 207.734 88.024C208.694 89.048 209.174 90.392 209.174 92.056C209.174 93.656 208.63 95.448 207.542 97.432C206.518 99.48 204.886 101.432 202.646 103.288C200.47 105.144 197.622 106.68 194.102 107.896C190.582 109.112 186.326 109.72 181.334 109.72C178.006 109.72 175.222 109.4 172.982 108.76C170.678 108.184 168.982 107.352 167.894 106.264C166.742 105.176 166.166 103.928 166.166 102.52C166.166 101.496 166.454 100.408 167.03 99.256C167.606 98.168 168.47 97.08 169.622 95.992C170.71 94.968 172.118 93.976 173.846 93.016C175.51 92.12 177.494 91.352 179.798 90.712L180.47 92.152C178.102 93.368 176.47 94.744 175.574 96.28C174.678 97.816 174.23 99.352 174.23 100.888C174.23 103.448 175.126 105.272 176.918 106.36C178.71 107.512 180.918 108.088 183.542 108.088C185.654 108.088 187.83 107.736 190.07 107.032C192.31 106.392 194.39 105.496 196.31 104.344C198.23 103.256 199.766 101.976 200.918 100.504C202.07 99.032 202.646 97.496 202.646 95.896C202.646 94.936 202.326 94.296 201.686 93.976C201.11 93.656 200.118 93.336 198.71 93.016L184.022 89.272C182.486 88.888 181.238 88.248 180.278 87.352C179.318 86.392 178.838 85.112 178.838 83.512C178.838 82.232 179.286 80.92 180.182 79.576C181.078 78.232 182.774 76.76 185.27 75.16C187.766 73.496 191.382 71.576 196.118 69.4ZM201.014 42.04C198.966 42.04 197.238 42.648 195.83 43.864C194.422 45.016 193.238 46.52 192.278 48.376C191.382 50.168 190.678 52.056 190.166 54.04C189.718 56.024 189.398 57.848 189.206 59.512C189.014 61.112 188.918 62.296 188.918 63.064C188.918 65.112 189.366 66.584 190.262 67.48C191.222 68.376 192.47 68.824 194.006 68.824C196.438 68.824 198.39 68.088 199.862 66.616C201.398 65.144 202.582 63.32 203.414 61.144C204.246 58.968 204.79 56.792 205.046 54.616C205.366 52.44 205.526 50.616 205.526 49.144C205.526 46.968 205.238 45.24 204.662 43.96C204.086 42.68 202.87 42.04 201.014 42.04ZM201.398 40.312C205.174 40.312 208.214 41.176 210.518 42.904C212.886 44.568 214.07 47.288 214.07 51.064C214.07 54.136 213.206 57.176 211.478 60.184C209.75 63.192 207.318 65.688 204.182 67.672C201.046 69.592 197.334 70.552 193.046 70.552C189.526 70.552 186.55 69.72 184.118 68.056C181.75 66.328 180.566 63.672 180.566 60.088C180.566 58.36 180.918 56.376 181.622 54.136C182.39 51.832 183.574 49.656 185.174 47.608C186.774 45.496 188.886 43.768 191.51 42.424C194.198 41.016 197.494 40.312 201.398 40.312ZM208.214 45.304L206.486 44.632C207.382 42.456 208.918 40.536 211.094 38.872C213.27 37.208 215.542 36.376 217.91 36.376C219.574 36.376 220.918 36.856 221.942 37.816C222.966 38.712 223.478 40.152 223.478 42.136C223.478 43.928 223.03 45.24 222.134 46.072C221.238 46.904 220.278 47.32 219.254 47.32C218.23 47.32 217.238 47 216.278 46.36C215.382 45.656 214.838 44.568 214.646 43.096C214.454 41.624 214.87 39.736 215.894 37.432L217.142 37.72C214.454 38.744 212.534 39.832 211.382 40.984C210.23 42.072 209.174 43.512 208.214 45.304Z" fill="black"/>
<path d="M160.945 57.784C158.641 64.184 156.433 69.592 154.321 74.008C152.209 78.424 150.097 81.976 147.985 84.664C145.937 87.352 143.825 89.304 141.649 90.52C139.537 91.736 137.329 92.344 135.025 92.344C132.209 92.344 130.161 91.704 128.881 90.424C127.601 89.144 126.961 87.416 126.961 85.24C126.961 83.064 127.409 80.6 128.305 77.848L137.617 49.816C138.257 47.896 138.481 46.424 138.289 45.4C138.097 44.376 137.361 43.864 136.081 43.864C134.865 43.864 133.649 44.536 132.433 45.88C131.281 47.224 130.033 49.816 128.689 53.656L127.441 57.208H125.617L128.017 50.2C128.977 47.512 130.097 45.464 131.377 44.056C132.721 42.648 134.097 41.688 135.505 41.176C136.977 40.6 138.353 40.312 139.633 40.312C142.449 40.312 144.305 40.984 145.201 42.328C146.161 43.608 146.513 45.272 146.257 47.32C146.065 49.368 145.585 51.512 144.817 53.752L135.697 81.208C133.905 86.584 134.609 89.272 137.809 89.272C139.345 89.272 140.977 88.6 142.705 87.256C144.433 85.848 146.193 83.864 147.985 81.304C149.777 78.68 151.537 75.576 153.265 71.992C155.057 68.344 156.753 64.312 158.353 59.896C160.017 55.416 161.521 50.616 162.865 45.496L160.945 57.784ZM160.657 82.84C160.209 84.568 159.985 86.008 159.985 87.16C160.049 88.248 160.721 88.792 162.001 88.792C163.409 88.792 164.689 88.056 165.841 86.584C167.057 85.048 168.273 82.52 169.489 79L170.737 75.448H172.561L170.161 82.456C169.265 85.144 168.145 87.192 166.801 88.6C165.521 90.008 164.145 90.968 162.673 91.48C161.265 92.056 159.889 92.344 158.545 92.344C157.521 92.344 156.561 92.12 155.665 91.672C154.769 91.224 154.097 90.584 153.649 89.752C153.137 88.664 152.945 87.288 153.073 85.624C153.265 83.96 153.713 81.72 154.417 78.904L163.825 41.656C165.425 41.592 166.961 41.464 168.433 41.272C169.969 41.08 171.345 40.76 172.561 40.312L160.657 82.84Z" fill="black"/>
<path d="M107.063 42.232C105.015 42.232 103.031 43.064 101.111 44.728C99.2545 46.328 97.5265 48.536 95.9265 51.352C94.3905 54.104 93.0145 57.208 91.7985 60.664C90.6465 64.12 89.7505 67.704 89.1105 71.416C88.4705 75.128 88.1505 78.68 88.1505 82.072C88.1505 84.952 88.5985 87.064 89.4945 88.408C90.4545 89.752 91.8305 90.424 93.6225 90.424C95.6705 90.424 97.6225 89.624 99.4785 88.024C101.399 86.36 103.159 84.152 104.759 81.4C106.359 78.584 107.735 75.448 108.887 71.992C110.039 68.536 110.935 64.984 111.575 61.336C112.215 57.624 112.535 54.04 112.535 50.584C112.535 47.64 112.087 45.528 111.191 44.248C110.295 42.904 108.919 42.232 107.063 42.232ZM79.8945 77.272C79.8945 74.456 80.2785 71.384 81.0465 68.056C81.8145 64.728 82.9665 61.432 84.5025 58.168C86.0385 54.904 87.8945 51.928 90.0705 49.24C92.3105 46.552 94.9025 44.408 97.8465 42.808C100.791 41.144 104.055 40.312 107.639 40.312C111.607 40.312 114.775 41.56 117.143 44.056C119.575 46.488 120.791 50.264 120.791 55.384C120.791 58.2 120.407 61.272 119.639 64.6C118.871 67.928 117.719 71.224 116.183 74.488C114.647 77.752 112.759 80.728 110.519 83.416C108.343 86.104 105.783 88.28 102.839 89.944C99.8945 91.544 96.6305 92.344 93.0465 92.344C89.0785 92.344 85.8785 91.096 83.4465 88.6C81.0785 86.104 79.8945 82.328 79.8945 77.272Z" fill="black"/>
<path d="M35.8188 90.9999H27.4668L46.4748 26.9679C47.1148 24.7919 47.0188 23.1919 46.1868 22.1679C45.4188 21.1439 43.4668 20.6319 40.3308 20.6319L40.9068 18.6159C44.4268 18.5519 47.5948 18.1999 50.4108 17.5599C53.2268 16.8559 55.8188 15.8959 58.1868 14.6799L35.8188 90.9999ZM38.5068 76.7919C40.9388 70.0719 43.2428 64.3759 45.4188 59.7039C47.6588 55.0319 49.8668 51.2879 52.0428 48.4719C54.2188 45.5919 56.4588 43.5119 58.7628 42.2319C61.0668 40.9519 63.4668 40.3119 65.9628 40.3119C68.9708 40.3119 71.0188 41.0479 72.1068 42.5199C73.2588 43.9279 73.7708 45.7519 73.6428 47.9919C73.5148 50.2319 73.0668 52.5039 72.2988 54.8079L62.9868 82.8399C62.4748 84.5039 62.2508 85.9119 62.3148 87.0639C62.3788 88.2159 63.1148 88.7919 64.5228 88.7919C65.7388 88.7919 66.9228 88.1199 68.0748 86.7759C69.2908 85.4319 70.5708 82.8399 71.9148 78.9999L73.1628 75.4479H74.9868L72.5868 82.4559C71.6908 85.1439 70.5708 87.1919 69.2268 88.5999C67.9468 90.0079 66.5708 90.9679 65.0988 91.4799C63.6908 92.0559 62.3148 92.3439 60.9708 92.3439C58.4108 92.3439 56.6188 91.7679 55.5948 90.6159C54.5708 89.4639 54.1228 87.8639 54.2508 85.8159C54.4428 83.7679 54.9548 81.4639 55.7868 78.9039L64.9068 51.4479C65.2268 50.4879 65.5148 49.3679 65.7708 48.0879C66.0268 46.8079 65.9628 45.7199 65.5788 44.8239C65.2588 43.8639 64.3308 43.3839 62.7948 43.3839C61.1948 43.3839 59.4668 44.1199 57.6108 45.5919C55.8188 46.9999 53.9628 49.0479 52.0428 51.7359C50.1228 54.4239 48.2348 57.6559 46.3788 61.4319C44.5228 65.2079 42.7308 69.4319 41.0028 74.1039C39.3388 78.7119 37.7708 83.7039 36.2988 89.0799L38.5068 76.7919Z" fill="black"/>
<path d="M33.9991 41.656L33.7111 43.576H3.85508L4.33508 41.656H33.9991ZM9.61508 82.84C9.03908 84.952 9.16708 86.488 9.99908 87.448C10.8951 88.344 12.0471 88.792 13.4551 88.792C14.8631 88.792 16.2711 88.184 17.6791 86.968C19.1511 85.752 20.5911 83.16 21.9991 79.192L23.3431 75.448H25.1671L23.1511 81.496C21.7431 85.656 19.9191 88.504 17.6791 90.04C15.5031 91.576 12.9431 92.344 9.99908 92.344C7.37508 92.344 5.35908 91.8 3.95108 90.712C2.60708 89.56 1.80708 87.96 1.55108 85.912C1.29508 83.864 1.55108 81.528 2.31908 78.904L17.1991 27.064C18.7351 27 20.2391 26.872 21.7111 26.68C23.2471 26.488 24.6231 26.168 25.8391 25.72L9.61508 82.84Z" fill="black"/>
</svg>
