<svg width="506" height="128" viewBox="0 0 506 128" fill="none" xmlns="http://www.w3.org/2000/svg">
<path d="M446.429 93.0749C445.869 95.1049 445.694 96.7149 445.904 97.9049C446.114 99.0249 446.884 99.5849 448.214 99.5849C449.614 99.5849 450.909 98.8149 452.099 97.2749C453.359 95.6649 454.689 92.8649 456.089 88.8749L457.454 84.9899H459.449L456.824 92.6549C455.914 95.3149 454.794 97.4499 453.464 99.0599C452.204 100.6 450.804 101.72 449.264 102.42C447.724 103.12 446.044 103.47 444.224 103.47C441.914 103.47 440.199 103.015 439.079 102.105C438.029 101.265 437.364 100.11 437.084 98.6399C436.874 97.1699 436.909 95.5949 437.189 93.9149C437.539 92.1649 437.959 90.4499 438.449 88.7699L455.564 31.9649C456.264 29.5849 456.194 27.8349 455.354 26.7149C454.514 25.5949 452.379 25.0349 448.949 25.0349L449.684 22.8299C453.534 22.7599 456.929 22.3749 459.869 21.6749C462.809 20.9049 465.644 19.8549 468.374 18.5249L446.429 93.0749Z" fill="black"/>
<path d="M419.929 65.6701C417.409 72.6701 414.994 78.5851 412.684 83.4151C410.374 88.2451 408.064 92.1301 405.754 95.0701C403.514 98.0101 401.204 100.145 398.824 101.475C396.514 102.805 394.099 103.47 391.579 103.47C388.499 103.47 386.259 102.77 384.859 101.37C383.459 99.9701 382.759 98.0801 382.759 95.7001C382.759 93.3201 383.249 90.6251 384.229 87.6151L394.414 56.9551C395.114 54.8551 395.359 53.2451 395.149 52.1251C394.939 51.0051 394.134 50.4451 392.734 50.4451C391.404 50.4451 390.074 51.1801 388.744 52.6501C387.484 54.1201 386.119 56.9551 384.649 61.1551L383.284 65.0401H381.289L383.914 57.3751C384.964 54.4351 386.189 52.1951 387.589 50.6551C389.059 49.1151 390.564 48.0651 392.104 47.5051C393.714 46.8751 395.219 46.5601 396.619 46.5601C399.699 46.5601 401.729 47.2951 402.709 48.7651C403.759 50.1651 404.144 51.9851 403.864 54.2251C403.654 56.4651 403.129 58.8101 402.289 61.2601L392.314 91.2901C390.354 97.1701 391.124 100.11 394.624 100.11C396.304 100.11 398.089 99.3751 399.979 97.9051C401.869 96.3651 403.794 94.1951 405.754 91.3951C407.714 88.5251 409.639 85.1301 411.529 81.2101C413.489 77.2201 415.344 72.8101 417.094 67.9801C418.914 63.0801 420.559 57.8301 422.029 52.2301L419.929 65.6701ZM419.614 93.0751C419.124 94.9651 418.879 96.5401 418.879 97.8001C418.949 98.9901 419.684 99.5851 421.084 99.5851C422.624 99.5851 424.024 98.7801 425.284 97.1701C426.614 95.4901 427.944 92.7251 429.274 88.8751L430.639 84.9901H432.634L430.009 92.6551C429.029 95.5951 427.804 97.8351 426.334 99.3751C424.934 100.915 423.429 101.965 421.819 102.525C420.279 103.155 418.774 103.47 417.304 103.47C416.184 103.47 415.134 103.225 414.154 102.735C413.174 102.245 412.439 101.545 411.949 100.635C411.389 99.4451 411.179 97.9401 411.319 96.1201C411.529 94.3001 412.019 91.8501 412.789 88.7701L423.079 48.0301C424.829 47.9601 426.509 47.8201 428.119 47.6101C429.799 47.4001 431.304 47.0501 432.634 46.5601L419.614 93.0751Z" fill="black"/>
<path d="M353.642 50.1299L354.272 48.0299H385.247L384.617 50.1299H353.642ZM387.452 21.4649C386.122 21.4649 384.967 21.7449 383.987 22.3049C383.007 22.8649 382.132 23.4949 381.362 24.1949C380.102 25.3849 378.982 27.2049 378.002 29.6549C377.092 32.0349 376.217 34.7999 375.377 37.9499C374.607 41.0999 373.767 44.4249 372.857 47.9249L353.432 120.27C351.752 120.34 350.107 120.48 348.497 120.69C346.887 120.9 345.382 121.25 343.982 121.74L363.722 47.9249C365.192 42.3249 366.732 37.7049 368.342 34.0649C370.022 30.4249 372.052 27.4499 374.432 25.1399C376.042 23.5299 378.002 22.2699 380.312 21.3599C382.692 20.3799 385.107 19.8899 387.557 19.8899C390.777 19.8899 393.227 20.6249 394.907 22.0949C396.657 23.4949 397.532 25.2449 397.532 27.3449C397.532 28.5349 397.217 29.6899 396.587 30.8099C395.957 31.9299 395.117 32.8399 394.067 33.5399C393.017 34.2399 391.827 34.5899 390.497 34.5899C389.167 34.5899 388.117 34.2749 387.347 33.6449C386.577 33.0149 386.227 32.1399 386.297 31.0199C386.297 29.2699 386.857 27.7999 387.977 26.6099C389.097 25.3499 390.532 24.4749 392.282 23.9849C392.282 23.3549 391.827 22.7949 390.917 22.3049C390.007 21.7449 388.852 21.4649 387.452 21.4649Z" fill="black"/>
<path d="M352.81 48.0301L352.495 50.1301H319.84L320.365 48.0301H352.81ZM326.14 93.0751C325.51 95.3851 325.65 97.0651 326.56 98.1151C327.54 99.0951 328.8 99.5851 330.34 99.5851C331.88 99.5851 333.42 98.9201 334.96 97.5901C336.57 96.2601 338.145 93.4251 339.685 89.0851L341.155 84.9901H343.15L340.945 91.6051C339.405 96.1551 337.41 99.2701 334.96 100.95C332.58 102.63 329.78 103.47 326.56 103.47C323.69 103.47 321.485 102.875 319.945 101.685C318.475 100.425 317.6 98.6751 317.32 96.4351C317.04 94.1951 317.32 91.6401 318.16 88.7701L334.435 32.0701C336.115 32.0001 337.76 31.8601 339.37 31.6501C341.05 31.4401 342.555 31.0901 343.885 30.6001L326.14 93.0751Z" fill="black"/>
<path d="M267.43 102H258.295L279.085 31.9649C279.785 29.5849 279.68 27.8349 278.77 26.7149C277.93 25.5949 275.795 25.0349 272.365 25.0349L272.995 22.8299C276.845 22.7599 280.31 22.3749 283.39 21.6749C286.47 20.9049 289.305 19.8549 291.895 18.5249L267.43 102ZM270.37 86.4599C273.03 79.1099 275.55 72.8799 277.93 67.7699C280.38 62.6599 282.795 58.5649 285.175 55.4849C287.555 52.3349 290.005 50.0599 292.525 48.6599C295.045 47.2599 297.67 46.5599 300.4 46.5599C303.69 46.5599 305.93 47.3649 307.12 48.9749C308.38 50.5149 308.94 52.5099 308.8 54.9599C308.66 57.4099 308.17 59.8949 307.33 62.4149L297.145 93.0749C296.585 94.8949 296.34 96.4349 296.41 97.6949C296.48 98.9549 297.285 99.5849 298.825 99.5849C300.155 99.5849 301.45 98.8499 302.71 97.3799C304.04 95.9099 305.44 93.0749 306.91 88.8749L308.275 84.9899H310.27L307.645 92.6549C306.665 95.5949 305.44 97.8349 303.97 99.3749C302.57 100.915 301.065 101.965 299.455 102.525C297.915 103.155 296.41 103.47 294.94 103.47C292.14 103.47 290.18 102.84 289.06 101.58C287.94 100.32 287.45 98.5699 287.59 96.3299C287.8 94.0899 288.36 91.5699 289.27 88.7699L299.245 58.7399C299.595 57.6899 299.91 56.4649 300.19 55.0649C300.47 53.6649 300.4 52.4749 299.98 51.4949C299.63 50.4449 298.615 49.9199 296.935 49.9199C295.185 49.9199 293.295 50.7249 291.265 52.3349C289.305 53.8749 287.275 56.1149 285.175 59.0549C283.075 61.9949 281.01 65.5299 278.98 69.6599C276.95 73.7899 274.99 78.4099 273.1 83.5199C271.28 88.5599 269.565 94.0199 267.955 99.8999L270.37 86.4599Z" fill="black"/>
<path d="M236.852 78.3749L239.477 78.4799C236.957 79.8799 234.612 81.1749 232.442 82.3649C230.342 83.4849 228.627 84.5349 227.297 85.5149C225.967 86.4949 225.302 87.4399 225.302 88.3499C225.302 89.0499 225.792 89.7149 226.772 90.3449C227.752 90.9049 229.362 91.4649 231.602 92.0249L239.267 94.0199C241.507 94.5799 243.502 95.2449 245.252 96.0149C247.072 96.7149 248.507 97.6249 249.557 98.7449C250.607 99.8649 251.132 101.335 251.132 103.155C251.132 104.905 250.537 106.865 249.347 109.035C248.227 111.275 246.442 113.41 243.992 115.44C241.612 117.47 238.497 119.15 234.647 120.48C230.797 121.81 226.142 122.475 220.682 122.475C217.042 122.475 213.997 122.125 211.547 121.425C209.027 120.795 207.172 119.885 205.982 118.695C204.722 117.505 204.092 116.14 204.092 114.6C204.092 113.48 204.407 112.29 205.037 111.03C205.667 109.84 206.612 108.65 207.872 107.46C209.062 106.34 210.602 105.255 212.492 104.205C214.312 103.225 216.482 102.385 219.002 101.685L219.737 103.26C217.147 104.59 215.362 106.095 214.382 107.775C213.402 109.455 212.912 111.135 212.912 112.815C212.912 115.615 213.892 117.61 215.852 118.8C217.812 120.06 220.227 120.69 223.097 120.69C225.407 120.69 227.787 120.305 230.237 119.535C232.687 118.835 234.962 117.855 237.062 116.595C239.162 115.405 240.842 114.005 242.102 112.395C243.362 110.785 243.992 109.105 243.992 107.355C243.992 106.305 243.642 105.605 242.942 105.255C242.312 104.905 241.227 104.555 239.687 104.205L223.622 100.11C221.942 99.6899 220.577 98.9899 219.527 98.0099C218.477 96.9599 217.952 95.5599 217.952 93.8099C217.952 92.4099 218.442 90.9749 219.422 89.5049C220.402 88.0349 222.257 86.4249 224.987 84.6749C227.717 82.8549 231.672 80.7549 236.852 78.3749ZM242.207 48.4499C239.967 48.4499 238.077 49.1149 236.537 50.4449C234.997 51.7049 233.702 53.3499 232.652 55.3799C231.672 57.3399 230.902 59.4049 230.342 61.5749C229.852 63.7449 229.502 65.7399 229.292 67.5599C229.082 69.3099 228.977 70.6049 228.977 71.4449C228.977 73.6849 229.467 75.2949 230.447 76.2749C231.497 77.2549 232.862 77.7449 234.542 77.7449C237.202 77.7449 239.337 76.9399 240.947 75.3299C242.627 73.7199 243.922 71.7249 244.832 69.3449C245.742 66.9649 246.337 64.5849 246.617 62.2049C246.967 59.8249 247.142 57.8299 247.142 56.2199C247.142 53.8399 246.827 51.9499 246.197 50.5499C245.567 49.1499 244.237 48.4499 242.207 48.4499ZM242.627 46.5599C246.757 46.5599 250.082 47.5049 252.602 49.3949C255.192 51.2149 256.487 54.1899 256.487 58.3199C256.487 61.6799 255.542 65.0049 253.652 68.2949C251.762 71.5849 249.102 74.3149 245.672 76.4849C242.242 78.5849 238.182 79.6349 233.492 79.6349C229.642 79.6349 226.387 78.7249 223.727 76.9049C221.137 75.0149 219.842 72.1099 219.842 68.1899C219.842 66.2999 220.227 64.1299 220.997 61.6799C221.837 59.1599 223.132 56.7799 224.882 54.5399C226.632 52.2299 228.942 50.3399 231.812 48.8699C234.752 47.3299 238.357 46.5599 242.627 46.5599ZM250.082 52.0199L248.192 51.2849C249.172 48.9049 250.852 46.8049 253.232 44.9849C255.612 43.1649 258.097 42.2549 260.687 42.2549C262.507 42.2549 263.977 42.7799 265.097 43.8299C266.217 44.8099 266.777 46.3849 266.777 48.5549C266.777 50.5149 266.287 51.9499 265.307 52.8599C264.327 53.7699 263.277 54.2249 262.157 54.2249C261.037 54.2249 259.952 53.8749 258.902 53.1749C257.922 52.4049 257.327 51.2149 257.117 49.6049C256.907 47.9949 257.362 45.9299 258.482 43.4099L259.847 43.7249C256.907 44.8449 254.807 46.0349 253.547 47.2949C252.287 48.4849 251.132 50.0599 250.082 52.0199Z" fill="black"/>
<path d="M198.382 65.6701C195.862 72.6701 193.447 78.5851 191.137 83.4151C188.827 88.2451 186.517 92.1301 184.207 95.0701C181.967 98.0101 179.657 100.145 177.277 101.475C174.967 102.805 172.552 103.47 170.032 103.47C166.952 103.47 164.712 102.77 163.312 101.37C161.912 99.9701 161.212 98.0801 161.212 95.7001C161.212 93.3201 161.702 90.6251 162.682 87.6151L172.867 56.9551C173.567 54.8551 173.812 53.2451 173.602 52.1251C173.392 51.0051 172.587 50.4451 171.187 50.4451C169.857 50.4451 168.527 51.1801 167.197 52.6501C165.937 54.1201 164.572 56.9551 163.102 61.1551L161.737 65.0401H159.742L162.367 57.3751C163.417 54.4351 164.642 52.1951 166.042 50.6551C167.512 49.1151 169.017 48.0651 170.557 47.5051C172.167 46.8751 173.672 46.5601 175.072 46.5601C178.152 46.5601 180.182 47.2951 181.162 48.7651C182.212 50.1651 182.597 51.9851 182.317 54.2251C182.107 56.4651 181.582 58.8101 180.742 61.2601L170.767 91.2901C168.807 97.1701 169.577 100.11 173.077 100.11C174.757 100.11 176.542 99.3751 178.432 97.9051C180.322 96.3651 182.247 94.1951 184.207 91.3951C186.167 88.5251 188.092 85.1301 189.982 81.2101C191.942 77.2201 193.797 72.8101 195.547 67.9801C197.367 63.0801 199.012 57.8301 200.482 52.2301L198.382 65.6701ZM198.067 93.0751C197.577 94.9651 197.332 96.5401 197.332 97.8001C197.402 98.9901 198.137 99.5851 199.537 99.5851C201.077 99.5851 202.477 98.7801 203.737 97.1701C205.067 95.4901 206.397 92.7251 207.727 88.8751L209.092 84.9901H211.087L208.462 92.6551C207.482 95.5951 206.257 97.8351 204.787 99.3751C203.387 100.915 201.882 101.965 200.272 102.525C198.732 103.155 197.227 103.47 195.757 103.47C194.637 103.47 193.587 103.225 192.607 102.735C191.627 102.245 190.892 101.545 190.402 100.635C189.842 99.4451 189.632 97.9401 189.772 96.1201C189.982 94.3001 190.472 91.8501 191.242 88.7701L201.532 48.0301C203.282 47.9601 204.962 47.8201 206.572 47.6101C208.252 47.4001 209.757 47.0501 211.087 46.5601L198.067 93.0751Z" fill="black"/>
<path d="M139.447 48.6601C137.207 48.6601 135.037 49.5701 132.937 51.3901C130.907 53.1401 129.017 55.5551 127.267 58.6351C125.587 61.6451 124.082 65.0401 122.752 68.8201C121.492 72.6001 120.512 76.5201 119.812 80.5801C119.112 84.6401 118.762 88.5251 118.762 92.2351C118.762 95.3851 119.252 97.6951 120.232 99.1651C121.282 100.635 122.787 101.37 124.747 101.37C126.987 101.37 129.122 100.495 131.152 98.7451C133.252 96.9251 135.177 94.5101 136.927 91.5001C138.677 88.4201 140.182 84.9901 141.442 81.2101C142.702 77.4301 143.682 73.5451 144.382 69.5551C145.082 65.4951 145.432 61.5751 145.432 57.7951C145.432 54.5751 144.942 52.2651 143.962 50.8651C142.982 49.3951 141.477 48.6601 139.447 48.6601ZM109.732 86.9851C109.732 83.9051 110.152 80.5451 110.992 76.9051C111.832 73.2651 113.092 69.6601 114.772 66.0901C116.452 62.5201 118.482 59.2651 120.862 56.3251C123.312 53.3851 126.147 51.0401 129.367 49.2901C132.587 47.4701 136.157 46.5601 140.077 46.5601C144.417 46.5601 147.882 47.9251 150.472 50.6551C153.132 53.3151 154.462 57.4451 154.462 63.0451C154.462 66.1251 154.042 69.4851 153.202 73.1251C152.362 76.7651 151.102 80.3701 149.422 83.9401C147.742 87.5101 145.677 90.7651 143.227 93.7051C140.847 96.6451 138.047 99.0251 134.827 100.845C131.607 102.595 128.037 103.47 124.117 103.47C119.777 103.47 116.277 102.105 113.617 99.3751C111.027 96.6451 109.732 92.5151 109.732 86.9851Z" fill="black"/>
<path d="M61.5237 102H52.3887L73.1787 31.9649C73.8787 29.5849 73.7737 27.8349 72.8637 26.7149C72.0237 25.5949 69.8887 25.0349 66.4587 25.0349L67.0887 22.8299C70.9387 22.7599 74.4037 22.3749 77.4837 21.6749C80.5637 20.9049 83.3987 19.8549 85.9887 18.5249L61.5237 102ZM64.4637 86.4599C67.1237 79.1099 69.6437 72.8799 72.0237 67.7699C74.4737 62.6599 76.8887 58.5649 79.2687 55.4849C81.6487 52.3349 84.0987 50.0599 86.6187 48.6599C89.1387 47.2599 91.7637 46.5599 94.4937 46.5599C97.7837 46.5599 100.024 47.3649 101.214 48.9749C102.474 50.5149 103.034 52.5099 102.894 54.9599C102.754 57.4099 102.264 59.8949 101.424 62.4149L91.2387 93.0749C90.6787 94.8949 90.4337 96.4349 90.5037 97.6949C90.5737 98.9549 91.3787 99.5849 92.9187 99.5849C94.2487 99.5849 95.5437 98.8499 96.8037 97.3799C98.1337 95.9099 99.5337 93.0749 101.004 88.8749L102.369 84.9899H104.364L101.739 92.6549C100.759 95.5949 99.5337 97.8349 98.0637 99.3749C96.6637 100.915 95.1587 101.965 93.5487 102.525C92.0087 103.155 90.5037 103.47 89.0337 103.47C86.2337 103.47 84.2737 102.84 83.1537 101.58C82.0337 100.32 81.5437 98.5699 81.6837 96.3299C81.8937 94.0899 82.4537 91.5699 83.3637 88.7699L93.3387 58.7399C93.6887 57.6899 94.0037 56.4649 94.2837 55.0649C94.5637 53.6649 94.4937 52.4749 94.0737 51.4949C93.7237 50.4449 92.7087 49.9199 91.0287 49.9199C89.2787 49.9199 87.3887 50.7249 85.3587 52.3349C83.3987 53.8749 81.3687 56.1149 79.2687 59.0549C77.1687 61.9949 75.1037 65.5299 73.0737 69.6599C71.0437 73.7899 69.0837 78.4099 67.1937 83.5199C65.3737 88.5599 63.6587 94.0199 62.0487 99.8999L64.4637 86.4599Z" fill="black"/>
<path d="M59.5364 48.0301L59.2214 50.1301H26.5664L27.0914 48.0301H59.5364ZM32.8664 93.0751C32.2364 95.3851 32.3764 97.0651 33.2864 98.1151C34.2664 99.0951 35.5264 99.5851 37.0664 99.5851C38.6064 99.5851 40.1464 98.9201 41.6864 97.5901C43.2964 96.2601 44.8714 93.4251 46.4114 89.0851L47.8814 84.9901H49.8764L47.6714 91.6051C46.1314 96.1551 44.1364 99.2701 41.6864 100.95C39.3064 102.63 36.5064 103.47 33.2864 103.47C30.4164 103.47 28.2114 102.875 26.6714 101.685C25.2014 100.425 24.3264 98.6751 24.0464 96.4351C23.7664 94.1951 24.0464 91.6401 24.8864 88.7701L41.1614 32.0701C42.8414 32.0001 44.4864 31.8601 46.0964 31.6501C47.7764 31.4401 49.2814 31.0901 50.6114 30.6001L32.8664 93.0751Z" fill="black"/>
</svg>
