<svg width="410" height="120" viewBox="0 0 410 120" fill="none" xmlns="http://www.w3.org/2000/svg">
<path d="M387.73 83.5673C387.218 85.3731 387.058 86.8052 387.25 87.8638C387.442 88.8601 388.146 89.3582 389.362 89.3582C390.642 89.3582 391.826 88.6733 392.914 87.3034C394.066 85.8712 395.282 83.3805 396.562 79.8312L397.81 76.3753H399.634L397.234 83.1937C396.402 85.5599 395.378 87.4591 394.162 88.8912C393.01 90.2611 391.73 91.2574 390.322 91.8801C388.914 92.5028 387.378 92.8141 385.714 92.8141C383.602 92.8141 382.034 92.4094 381.01 91.5999C380.05 90.8527 379.442 89.8253 379.186 88.5176C378.994 87.21 379.026 85.809 379.282 84.3145C379.602 82.7578 379.986 81.2322 380.434 79.7378L396.082 29.2072C396.722 27.0901 396.658 25.5334 395.89 24.5371C395.122 23.5408 393.17 23.0426 390.034 23.0426L390.706 21.0812C394.226 21.0189 397.33 20.6765 400.018 20.0538C402.706 19.3688 405.298 18.4348 407.794 17.2517L387.73 83.5673Z" fill="black"/>
<path d="M363.502 59.1894C361.198 65.4162 358.99 70.6779 356.878 74.9744C354.766 79.2709 352.654 82.7268 350.542 85.342C348.494 87.9573 346.382 89.8565 344.206 91.0396C342.094 92.2227 339.886 92.8142 337.582 92.8142C334.766 92.8142 332.718 92.1915 331.438 90.9462C330.158 89.7008 329.518 88.0196 329.518 85.9024C329.518 83.7853 329.966 81.388 330.862 78.7105L340.174 51.437C340.814 49.569 341.038 48.1368 340.846 47.1405C340.654 46.1442 339.918 45.6461 338.638 45.6461C337.422 45.6461 336.206 46.2999 334.99 47.6075C333.838 48.9151 332.59 51.437 331.246 55.1731L329.998 58.629H328.174L330.574 51.8106C331.534 49.1954 332.654 47.2028 333.934 45.8329C335.278 44.463 336.654 43.5289 338.062 43.0308C339.534 42.4704 340.91 42.1902 342.19 42.1902C345.006 42.1902 346.862 42.844 347.758 44.1516C348.718 45.397 349.07 47.016 348.814 49.0085C348.622 51.0011 348.142 53.0871 347.374 55.2665L338.254 81.9795C336.462 87.2101 337.166 89.8253 340.366 89.8253C341.902 89.8253 343.534 89.1715 345.262 87.8639C346.99 86.494 348.75 84.5637 350.542 82.0729C352.334 79.52 354.094 76.4999 355.822 73.0129C357.614 69.4636 359.31 65.5407 360.91 61.2442C362.574 56.8855 364.078 52.2154 365.422 47.2339L363.502 59.1894ZM363.214 83.5674C362.766 85.2486 362.542 86.6497 362.542 87.7705C362.606 88.829 363.278 89.3583 364.558 89.3583C365.966 89.3583 367.246 88.6422 368.398 87.2101C369.614 85.7156 370.83 83.256 372.046 79.8313L373.294 76.3754H375.118L372.718 83.1938C371.822 85.809 370.702 87.8016 369.358 89.1715C368.078 90.5414 366.702 91.4754 365.23 91.9736C363.822 92.534 362.446 92.8142 361.102 92.8142C360.078 92.8142 359.118 92.5963 358.222 92.1604C357.326 91.7245 356.654 91.1018 356.206 90.2923C355.694 89.2338 355.502 87.895 355.63 86.276C355.822 84.6571 356.27 82.4777 356.974 79.7379L366.382 43.4978C367.982 43.4355 369.518 43.311 370.99 43.1242C372.526 42.9374 373.902 42.6261 375.118 42.1902L363.214 83.5674Z" fill="black"/>
<path d="M302.898 45.3659L303.474 43.4979H331.794L331.218 45.3659H302.898ZM333.81 19.8671C332.594 19.8671 331.538 20.1162 330.642 20.6143C329.746 21.1125 328.946 21.6729 328.242 22.2956C327.09 23.3541 326.066 24.9731 325.17 27.1525C324.338 29.2696 323.538 31.7292 322.77 34.5313C322.066 37.3333 321.298 40.2911 320.466 43.4045L302.706 107.759C301.17 107.821 299.666 107.945 298.194 108.132C296.722 108.319 295.346 108.63 294.066 109.066L312.114 43.4045C313.458 38.423 314.866 34.3133 316.338 31.0754C317.874 27.8374 319.73 25.191 321.906 23.1362C323.378 21.704 325.17 20.5832 327.282 19.7737C329.458 18.9019 331.666 18.4661 333.906 18.4661C336.85 18.4661 339.09 19.1199 340.626 20.4275C342.226 21.6729 343.026 23.2296 343.026 25.0976C343.026 26.1562 342.738 27.1836 342.162 28.1799C341.586 29.1762 340.818 29.9857 339.858 30.6084C338.898 31.231 337.81 31.5424 336.594 31.5424C335.378 31.5424 334.418 31.2622 333.714 30.7018C333.01 30.1413 332.69 29.363 332.754 28.3667C332.754 26.81 333.266 25.5024 334.29 24.4438C335.314 23.323 336.626 22.5446 338.226 22.1088C338.226 21.5483 337.81 21.0502 336.978 20.6143C336.146 20.1162 335.09 19.8671 333.81 19.8671Z" fill="black"/>
<path d="M302.136 43.4977L301.848 45.3657H271.992L272.472 43.4977H302.136ZM277.752 83.5673C277.176 85.6221 277.304 87.1165 278.136 88.0506C279.032 88.9223 280.184 89.3582 281.592 89.3582C283 89.3582 284.408 88.7667 285.816 87.5836C287.288 86.4005 288.728 83.8786 290.136 80.018L291.48 76.3753H293.304L291.288 82.2596C289.88 86.3071 288.056 89.078 285.816 90.5724C283.64 92.0669 281.08 92.8141 278.136 92.8141C275.512 92.8141 273.496 92.2848 272.088 91.2262C270.744 90.1054 269.944 88.5487 269.688 86.5561C269.432 84.5635 269.688 82.2908 270.456 79.7378L285.336 29.3005C286.872 29.2383 288.376 29.1137 289.848 28.9269C291.384 28.7401 292.76 28.4288 293.976 27.9929L277.752 83.5673Z" fill="black"/>
<path d="M224.075 91.5065H215.723L234.731 29.2072C235.371 27.0901 235.275 25.5334 234.443 24.5371C233.675 23.5408 231.723 23.0426 228.587 23.0426L229.163 21.0812C232.683 21.0189 235.851 20.6765 238.667 20.0538C241.483 19.3688 244.075 18.4348 246.443 17.2517L224.075 91.5065ZM226.763 77.683C229.195 71.1448 231.499 65.6029 233.675 61.0574C235.915 56.5118 238.123 52.8691 240.299 50.1293C242.475 47.3272 244.715 45.3035 247.019 44.0582C249.323 42.8128 251.723 42.1901 254.219 42.1901C257.227 42.1901 259.275 42.9062 260.363 44.3384C261.515 45.7083 262.027 47.4829 261.899 49.6623C261.771 51.8417 261.323 54.0522 260.555 56.2938L251.243 83.5673C250.731 85.1863 250.507 86.5562 250.571 87.677C250.635 88.7978 251.371 89.3582 252.779 89.3582C253.995 89.3582 255.179 88.7044 256.331 87.3968C257.547 86.0892 258.827 83.5673 260.171 79.8312L261.419 76.3753H263.243L260.843 83.1937C259.947 85.809 258.827 87.8015 257.483 89.1714C256.203 90.5413 254.827 91.4754 253.355 91.9735C251.947 92.5339 250.571 92.8141 249.227 92.8141C246.667 92.8141 244.875 92.2537 243.851 91.1329C242.827 90.0121 242.379 88.4554 242.507 86.4628C242.699 84.4702 243.211 82.2285 244.043 79.7378L253.163 53.0248C253.483 52.0907 253.771 51.0011 254.027 49.7557C254.283 48.5103 254.219 47.4518 253.835 46.58C253.515 45.646 252.587 45.179 251.051 45.179C249.451 45.179 247.723 45.8951 245.867 47.3272C244.075 48.6971 242.219 50.6897 240.299 53.305C238.379 55.9202 236.491 59.0648 234.635 62.7386C232.779 66.4124 230.987 70.5221 229.259 75.0677C227.595 79.551 226.027 84.4079 224.555 89.6384L226.763 77.683Z" fill="black"/>
<path d="M196.118 70.491L198.518 70.5844C196.214 71.8297 194.07 72.9817 192.086 74.0403C190.166 75.0365 188.598 75.9706 187.382 76.8423C186.166 77.7141 185.558 78.5547 185.558 79.3642C185.558 79.9869 186.006 80.5784 186.902 81.1388C187.798 81.637 189.27 82.1351 191.318 82.6333L198.326 84.4079C200.374 84.9061 202.198 85.4976 203.798 86.1825C205.462 86.8052 206.774 87.6147 207.734 88.611C208.694 89.6073 209.174 90.9149 209.174 92.5339C209.174 94.0906 208.63 95.8341 207.542 97.7644C206.518 99.757 204.886 101.656 202.646 103.462C200.47 105.268 197.622 106.762 194.102 107.945C190.582 109.128 186.326 109.72 181.334 109.72C178.006 109.72 175.222 109.409 172.982 108.786C170.678 108.225 168.982 107.416 167.894 106.357C166.742 105.299 166.166 104.085 166.166 102.715C166.166 101.718 166.454 100.66 167.03 99.5391C167.606 98.4805 168.47 97.4219 169.622 96.3634C170.71 95.3671 172.118 94.4019 173.846 93.4679C175.51 92.5962 177.494 91.8489 179.798 91.2263L180.47 92.6273C178.102 93.8104 176.47 95.1492 175.574 96.6436C174.678 98.138 174.23 99.6325 174.23 101.127C174.23 103.618 175.126 105.392 176.918 106.451C178.71 107.572 180.918 108.132 183.542 108.132C185.654 108.132 187.83 107.79 190.07 107.105C192.31 106.482 194.39 105.61 196.31 104.489C198.23 103.431 199.766 102.185 200.918 100.753C202.07 99.3211 202.646 97.8267 202.646 96.27C202.646 95.336 202.326 94.7133 201.686 94.4019C201.11 94.0906 200.118 93.7793 198.71 93.4679L184.022 89.8252C182.486 89.4516 181.238 88.8289 180.278 87.9572C179.318 87.0232 178.838 85.7778 178.838 84.2211C178.838 82.9757 179.286 81.6992 180.182 80.3916C181.078 79.084 182.774 77.6518 185.27 76.0951C187.766 74.4761 191.382 72.6081 196.118 70.491ZM201.014 43.8713C198.966 43.8713 197.238 44.4629 195.83 45.646C194.422 46.7668 193.238 48.2301 192.278 50.0359C191.382 51.7794 190.678 53.6163 190.166 55.5466C189.718 57.4769 189.398 59.2516 189.206 60.8705C189.014 62.4272 188.918 63.5792 188.918 64.3264C188.918 66.319 189.366 67.7512 190.262 68.6229C191.222 69.4947 192.47 69.9306 194.006 69.9306C196.438 69.9306 198.39 69.2145 199.862 67.7823C201.398 66.3501 202.582 64.5755 203.414 62.4584C204.246 60.3413 204.79 58.2241 205.046 56.107C205.366 53.9899 205.526 52.2153 205.526 50.7831C205.526 48.666 205.238 46.9847 204.662 45.7394C204.086 44.494 202.87 43.8713 201.014 43.8713ZM201.398 42.1901C205.174 42.1901 208.214 43.0307 210.518 44.7119C212.886 46.3309 214.07 48.9773 214.07 52.6511C214.07 55.64 213.206 58.5977 211.478 61.5244C209.75 64.451 207.318 66.8794 204.182 68.8097C201.046 70.6778 197.334 71.6118 193.046 71.6118C189.526 71.6118 186.55 70.8023 184.118 69.1833C181.75 67.5021 180.566 64.918 180.566 61.4309C180.566 59.7497 180.918 57.8194 181.622 55.64C182.39 53.3984 183.574 51.2812 185.174 49.2887C186.774 47.2338 188.886 45.5526 191.51 44.2449C194.198 42.875 197.494 42.1901 201.398 42.1901ZM208.214 47.047L206.486 46.3932C207.382 44.2761 208.918 42.408 211.094 40.789C213.27 39.1701 215.542 38.3606 217.91 38.3606C219.574 38.3606 220.918 38.8276 221.942 39.7616C222.966 40.6334 223.478 42.0344 223.478 43.9647C223.478 45.7082 223.03 46.9847 222.134 47.7942C221.238 48.6037 220.278 49.0085 219.254 49.0085C218.23 49.0085 217.238 48.6971 216.278 48.0744C215.382 47.3895 214.838 46.3309 214.646 44.8988C214.454 43.4666 214.87 41.6297 215.894 39.388L217.142 39.6682C214.454 40.6645 212.534 41.7231 211.382 42.8439C210.23 43.9025 209.174 45.3035 208.214 47.047Z" fill="black"/>
<path d="M160.945 59.1894C158.641 65.4162 156.433 70.6779 154.321 74.9744C152.209 79.2709 150.097 82.7268 147.985 85.342C145.937 87.9573 143.825 89.8565 141.649 91.0396C139.537 92.2227 137.329 92.8142 135.025 92.8142C132.209 92.8142 130.161 92.1915 128.881 90.9462C127.601 89.7008 126.961 88.0196 126.961 85.9024C126.961 83.7853 127.409 81.388 128.305 78.7105L137.617 51.437C138.257 49.569 138.481 48.1368 138.289 47.1405C138.097 46.1442 137.361 45.6461 136.081 45.6461C134.865 45.6461 133.649 46.2999 132.433 47.6075C131.281 48.9151 130.033 51.437 128.689 55.1731L127.441 58.629H125.617L128.017 51.8106C128.977 49.1954 130.097 47.2028 131.377 45.8329C132.721 44.463 134.097 43.5289 135.505 43.0308C136.977 42.4704 138.353 42.1902 139.633 42.1902C142.449 42.1902 144.305 42.844 145.201 44.1516C146.161 45.397 146.513 47.016 146.257 49.0085C146.065 51.0011 145.585 53.0871 144.817 55.2665L135.697 81.9795C133.905 87.2101 134.609 89.8253 137.809 89.8253C139.345 89.8253 140.977 89.1715 142.705 87.8639C144.433 86.494 146.193 84.5637 147.985 82.0729C149.777 79.52 151.537 76.4999 153.265 73.0129C155.057 69.4636 156.753 65.5407 158.353 61.2442C160.017 56.8855 161.521 52.2154 162.865 47.2339L160.945 59.1894ZM160.657 83.5674C160.209 85.2486 159.985 86.6497 159.985 87.7705C160.049 88.829 160.721 89.3583 162.001 89.3583C163.409 89.3583 164.689 88.6422 165.841 87.2101C167.057 85.7156 168.273 83.256 169.489 79.8313L170.737 76.3754H172.561L170.161 83.1938C169.265 85.809 168.145 87.8016 166.801 89.1715C165.521 90.5414 164.145 91.4754 162.673 91.9736C161.265 92.534 159.889 92.8142 158.545 92.8142C157.521 92.8142 156.561 92.5963 155.665 92.1604C154.769 91.7245 154.097 91.1018 153.649 90.2923C153.137 89.2338 152.945 87.895 153.073 86.276C153.265 84.6571 153.713 82.4777 154.417 79.7379L163.825 43.4978C165.425 43.4355 166.961 43.311 168.433 43.1242C169.969 42.9374 171.345 42.6261 172.561 42.1902L160.657 83.5674Z" fill="black"/>
<path d="M107.063 44.0582C105.015 44.0582 103.031 44.8677 101.111 46.4867C99.2545 48.0434 97.5265 50.1916 95.9265 52.9314C94.3905 55.609 93.0145 58.629 91.7985 61.9915C90.6465 65.3539 89.7505 68.841 89.1105 72.4525C88.4705 76.0641 88.1505 79.5199 88.1505 82.8202C88.1505 85.6222 88.5985 87.6771 89.4945 88.9847C90.4545 90.2923 91.8305 90.9462 93.6225 90.9462C95.6705 90.9462 97.6225 90.1678 99.4785 88.6111C101.399 86.9921 103.159 84.8439 104.759 82.1663C106.359 79.4265 107.735 76.3754 108.887 73.0129C110.039 69.6504 110.935 66.1946 111.575 62.6453C112.215 59.0337 112.535 55.5467 112.535 52.1842C112.535 49.3199 112.087 47.265 111.191 46.0197C110.295 44.712 108.919 44.0582 107.063 44.0582ZM79.8945 78.1501C79.8945 75.4103 80.2785 72.4214 81.0465 69.1834C81.8145 65.9455 82.9665 62.7387 84.5025 59.563C86.0385 56.3873 87.8945 53.4919 90.0705 50.8766C92.3105 48.2613 94.9025 46.1753 97.8465 44.6186C100.791 42.9997 104.055 42.1902 107.639 42.1902C111.607 42.1902 114.775 43.4044 117.143 45.8329C119.575 48.1991 120.791 51.8729 120.791 56.8543C120.791 59.5941 120.407 62.583 119.639 65.821C118.871 69.0589 117.719 72.2657 116.183 75.4414C114.647 78.6171 112.759 81.5125 110.519 84.1278C108.343 86.7431 105.783 88.8602 102.839 90.4791C99.8945 92.0359 96.6305 92.8142 93.0465 92.8142C89.0785 92.8142 85.8785 91.6 83.4465 89.1715C81.0785 86.7431 79.8945 83.0692 79.8945 78.1501Z" fill="black"/>
<path d="M35.8188 91.5065H27.4668L46.4748 29.2072C47.1148 27.0901 47.0188 25.5334 46.1868 24.5371C45.4188 23.5408 43.4668 23.0426 40.3308 23.0426L40.9068 21.0812C44.4268 21.0189 47.5948 20.6765 50.4108 20.0538C53.2268 19.3688 55.8188 18.4348 58.1868 17.2517L35.8188 91.5065ZM38.5068 77.683C40.9388 71.1448 43.2428 65.6029 45.4188 61.0574C47.6588 56.5118 49.8668 52.8691 52.0428 50.1293C54.2188 47.3272 56.4588 45.3035 58.7628 44.0582C61.0668 42.8128 63.4668 42.1901 65.9628 42.1901C68.9708 42.1901 71.0188 42.9062 72.1068 44.3384C73.2588 45.7083 73.7708 47.4829 73.6428 49.6623C73.5148 51.8417 73.0668 54.0522 72.2988 56.2938L62.9868 83.5673C62.4748 85.1863 62.2508 86.5562 62.3148 87.677C62.3788 88.7978 63.1148 89.3582 64.5228 89.3582C65.7388 89.3582 66.9228 88.7044 68.0748 87.3968C69.2908 86.0892 70.5708 83.5673 71.9148 79.8312L73.1628 76.3753H74.9868L72.5868 83.1937C71.6908 85.809 70.5708 87.8015 69.2268 89.1714C67.9468 90.5413 66.5708 91.4754 65.0988 91.9735C63.6908 92.5339 62.3148 92.8141 60.9708 92.8141C58.4108 92.8141 56.6188 92.2537 55.5948 91.1329C54.5708 90.0121 54.1228 88.4554 54.2508 86.4628C54.4428 84.4702 54.9548 82.2285 55.7868 79.7378L64.9068 53.0248C65.2268 52.0907 65.5148 51.0011 65.7708 49.7557C66.0268 48.5103 65.9628 47.4518 65.5788 46.58C65.2588 45.646 64.3308 45.179 62.7948 45.179C61.1948 45.179 59.4668 45.8951 57.6108 47.3272C55.8188 48.6971 53.9628 50.6897 52.0428 53.305C50.1228 55.9202 48.2348 59.0648 46.3788 62.7386C44.5228 66.4124 42.7308 70.5221 41.0028 75.0677C39.3388 79.551 37.7708 84.4079 36.2988 89.6384L38.5068 77.683Z" fill="black"/>
<path d="M33.9991 43.4977L33.7111 45.3657H3.85508L4.33508 43.4977H33.9991ZM9.61508 83.5673C9.03908 85.6221 9.16708 87.1165 9.99908 88.0506C10.8951 88.9223 12.0471 89.3582 13.4551 89.3582C14.8631 89.3582 16.2711 88.7667 17.6791 87.5836C19.1511 86.4005 20.5911 83.8786 21.9991 80.018L23.3431 76.3753H25.1671L23.1511 82.2596C21.7431 86.3071 19.9191 89.078 17.6791 90.5724C15.5031 92.0669 12.9431 92.8141 9.99908 92.8141C7.37508 92.8141 5.35908 92.2848 3.95108 91.2262C2.60708 90.1054 1.80708 88.5487 1.55108 86.5561C1.29508 84.5635 1.55108 82.2908 2.31908 79.7378L17.1991 29.3005C18.7351 29.2383 20.2391 29.1137 21.7111 28.9269C23.2471 28.7401 24.6231 28.4288 25.8391 27.9929L9.61508 83.5673Z" fill="black"/>
</svg>
