<svg width="466" height="121" viewBox="0 0 466 121" fill="none" xmlns="http://www.w3.org/2000/svg">
<rect width="466" height="121" fill="white"/>
<path d="M414.73 82.8399C414.218 84.6959 414.058 86.1679 414.25 87.2559C414.442 88.2799 415.146 88.7919 416.362 88.7919C417.642 88.7919 418.826 88.0879 419.914 86.6799C421.066 85.2079 422.282 82.6479 423.562 78.9999L424.81 75.4479H426.634L424.234 82.4559C423.402 84.8879 422.378 86.8399 421.162 88.3119C420.01 89.7199 418.73 90.7439 417.322 91.3839C415.914 92.0239 414.378 92.3439 412.714 92.3439C410.602 92.3439 409.034 91.9279 408.01 91.0959C407.05 90.3279 406.442 89.2719 406.186 87.9279C405.994 86.5839 406.026 85.1439 406.282 83.6079C406.602 82.0079 406.986 80.4399 407.434 78.9039L423.082 26.9679C423.722 24.7919 423.658 23.1919 422.89 22.1679C422.122 21.1439 420.17 20.6319 417.034 20.6319L417.706 18.6159C421.226 18.5519 424.33 18.1999 427.018 17.5599C429.706 16.8559 432.298 15.8959 434.794 14.6799L414.73 82.8399Z" fill="black"/>
<path d="M390.502 57.784C388.198 64.184 385.99 69.592 383.878 74.008C381.766 78.424 379.654 81.976 377.542 84.664C375.494 87.352 373.382 89.304 371.206 90.52C369.094 91.736 366.886 92.344 364.582 92.344C361.766 92.344 359.718 91.704 358.438 90.424C357.158 89.144 356.518 87.416 356.518 85.24C356.518 83.064 356.966 80.6 357.862 77.848L367.174 49.816C367.814 47.896 368.038 46.424 367.846 45.4C367.654 44.376 366.918 43.864 365.638 43.864C364.422 43.864 363.206 44.536 361.99 45.88C360.838 47.224 359.59 49.816 358.246 53.656L356.998 57.208H355.174L357.574 50.2C358.534 47.512 359.654 45.464 360.934 44.056C362.278 42.648 363.654 41.688 365.062 41.176C366.534 40.6 367.91 40.312 369.19 40.312C372.006 40.312 373.862 40.984 374.758 42.328C375.718 43.608 376.07 45.272 375.814 47.32C375.622 49.368 375.142 51.512 374.374 53.752L365.254 81.208C363.462 86.584 364.166 89.272 367.366 89.272C368.902 89.272 370.534 88.6 372.262 87.256C373.99 85.848 375.75 83.864 377.542 81.304C379.334 78.68 381.094 75.576 382.822 71.992C384.614 68.344 386.31 64.312 387.91 59.896C389.574 55.416 391.078 50.616 392.422 45.496L390.502 57.784ZM390.214 82.84C389.766 84.568 389.542 86.008 389.542 87.16C389.606 88.248 390.278 88.792 391.558 88.792C392.966 88.792 394.246 88.056 395.398 86.584C396.614 85.048 397.83 82.52 399.046 79L400.294 75.448H402.118L399.718 82.456C398.822 85.144 397.702 87.192 396.358 88.6C395.078 90.008 393.702 90.968 392.23 91.48C390.822 92.056 389.446 92.344 388.102 92.344C387.078 92.344 386.118 92.12 385.222 91.672C384.326 91.224 383.654 90.584 383.206 89.752C382.694 88.664 382.502 87.288 382.63 85.624C382.822 83.96 383.27 81.72 383.974 78.904L393.382 41.656C394.982 41.592 396.518 41.464 397.99 41.272C399.526 41.08 400.902 40.76 402.118 40.312L390.214 82.84Z" fill="black"/>
<path d="M329.898 43.576L330.474 41.656H358.794L358.218 43.576H329.898ZM360.81 17.368C359.594 17.368 358.538 17.624 357.642 18.136C356.746 18.648 355.946 19.224 355.242 19.864C354.09 20.952 353.066 22.616 352.17 24.856C351.338 27.032 350.538 29.56 349.77 32.44C349.066 35.32 348.298 38.36 347.466 41.56L329.706 107.704C328.17 107.768 326.666 107.896 325.194 108.088C323.722 108.28 322.346 108.6 321.066 109.048L339.114 41.56C340.458 36.44 341.866 32.216 343.338 28.888C344.874 25.56 346.73 22.84 348.906 20.728C350.378 19.256 352.17 18.104 354.282 17.272C356.458 16.376 358.666 15.928 360.906 15.928C363.85 15.928 366.09 16.6 367.626 17.944C369.226 19.224 370.026 20.824 370.026 22.744C370.026 23.832 369.738 24.888 369.162 25.912C368.586 26.936 367.818 27.768 366.858 28.408C365.898 29.048 364.81 29.368 363.594 29.368C362.378 29.368 361.418 29.08 360.714 28.504C360.01 27.928 359.69 27.128 359.754 26.104C359.754 24.504 360.266 23.16 361.29 22.072C362.314 20.92 363.626 20.12 365.226 19.672C365.226 19.096 364.81 18.584 363.978 18.136C363.146 17.624 362.09 17.368 360.81 17.368Z" fill="black"/>
<path d="M329.136 41.656L328.848 43.576H298.992L299.472 41.656H329.136ZM304.752 82.84C304.176 84.952 304.304 86.488 305.136 87.448C306.032 88.344 307.184 88.792 308.592 88.792C310 88.792 311.408 88.184 312.816 86.968C314.288 85.752 315.728 83.16 317.136 79.192L318.48 75.448H320.304L318.288 81.496C316.88 85.656 315.056 88.504 312.816 90.04C310.64 91.576 308.08 92.344 305.136 92.344C302.512 92.344 300.496 91.8 299.088 90.712C297.744 89.56 296.944 87.96 296.688 85.912C296.432 83.864 296.688 81.528 297.456 78.904L312.336 27.064C313.872 27 315.376 26.872 316.848 26.68C318.384 26.488 319.76 26.168 320.976 25.72L304.752 82.84Z" fill="black"/>
<path d="M251.075 90.9999H242.723L261.731 26.9679C262.371 24.7919 262.275 23.1919 261.443 22.1679C260.675 21.1439 258.723 20.6319 255.587 20.6319L256.163 18.6159C259.683 18.5519 262.851 18.1999 265.667 17.5599C268.483 16.8559 271.075 15.8959 273.443 14.6799L251.075 90.9999ZM253.763 76.7919C256.195 70.0719 258.499 64.3759 260.675 59.7039C262.915 55.0319 265.123 51.2879 267.299 48.4719C269.475 45.5919 271.715 43.5119 274.019 42.2319C276.323 40.9519 278.723 40.3119 281.219 40.3119C284.227 40.3119 286.275 41.0479 287.363 42.5199C288.515 43.9279 289.027 45.7519 288.899 47.9919C288.771 50.2319 288.323 52.5039 287.555 54.8079L278.243 82.8399C277.731 84.5039 277.507 85.9119 277.571 87.0639C277.635 88.2159 278.371 88.7919 279.779 88.7919C280.995 88.7919 282.179 88.1199 283.331 86.7759C284.547 85.4319 285.827 82.8399 287.171 78.9999L288.419 75.4479H290.243L287.843 82.4559C286.947 85.1439 285.827 87.1919 284.483 88.5999C283.203 90.0079 281.827 90.9679 280.355 91.4799C278.947 92.0559 277.571 92.3439 276.227 92.3439C273.667 92.3439 271.875 91.7679 270.851 90.6159C269.827 89.4639 269.379 87.8639 269.507 85.8159C269.699 83.7679 270.211 81.4639 271.043 78.9039L280.163 51.4479C280.483 50.4879 280.771 49.3679 281.027 48.0879C281.283 46.8079 281.219 45.7199 280.835 44.8239C280.515 43.8639 279.587 43.3839 278.051 43.3839C276.451 43.3839 274.723 44.1199 272.867 45.5919C271.075 46.9999 269.219 49.0479 267.299 51.7359C265.379 54.4239 263.491 57.6559 261.635 61.4319C259.779 65.2079 257.987 69.4319 256.259 74.1039C254.595 78.7119 253.027 83.7039 251.555 89.0799L253.763 76.7919Z" fill="black"/>
<path d="M223.118 69.4L225.518 69.496C223.214 70.776 221.07 71.96 219.086 73.048C217.166 74.072 215.598 75.032 214.382 75.928C213.166 76.824 212.558 77.688 212.558 78.52C212.558 79.16 213.006 79.768 213.902 80.344C214.798 80.856 216.27 81.368 218.318 81.88L225.326 83.704C227.374 84.216 229.198 84.824 230.798 85.528C232.462 86.168 233.774 87 234.734 88.024C235.694 89.048 236.174 90.392 236.174 92.056C236.174 93.656 235.63 95.448 234.542 97.432C233.518 99.48 231.886 101.432 229.646 103.288C227.47 105.144 224.622 106.68 221.102 107.896C217.582 109.112 213.326 109.72 208.334 109.72C205.006 109.72 202.222 109.4 199.982 108.76C197.678 108.184 195.982 107.352 194.894 106.264C193.742 105.176 193.166 103.928 193.166 102.52C193.166 101.496 193.454 100.408 194.03 99.256C194.606 98.168 195.47 97.08 196.622 95.992C197.71 94.968 199.118 93.976 200.846 93.016C202.51 92.12 204.494 91.352 206.798 90.712L207.47 92.152C205.102 93.368 203.47 94.744 202.574 96.28C201.678 97.816 201.23 99.352 201.23 100.888C201.23 103.448 202.126 105.272 203.918 106.36C205.71 107.512 207.918 108.088 210.542 108.088C212.654 108.088 214.83 107.736 217.07 107.032C219.31 106.392 221.39 105.496 223.31 104.344C225.23 103.256 226.766 101.976 227.918 100.504C229.07 99.032 229.646 97.496 229.646 95.896C229.646 94.936 229.326 94.296 228.686 93.976C228.11 93.656 227.118 93.336 225.71 93.016L211.022 89.272C209.486 88.888 208.238 88.248 207.278 87.352C206.318 86.392 205.838 85.112 205.838 83.512C205.838 82.232 206.286 80.92 207.182 79.576C208.078 78.232 209.774 76.76 212.27 75.16C214.766 73.496 218.382 71.576 223.118 69.4ZM228.014 42.04C225.966 42.04 224.238 42.648 222.83 43.864C221.422 45.016 220.238 46.52 219.278 48.376C218.382 50.168 217.678 52.056 217.166 54.04C216.718 56.024 216.398 57.848 216.206 59.512C216.014 61.112 215.918 62.296 215.918 63.064C215.918 65.112 216.366 66.584 217.262 67.48C218.222 68.376 219.47 68.824 221.006 68.824C223.438 68.824 225.39 68.088 226.862 66.616C228.398 65.144 229.582 63.32 230.414 61.144C231.246 58.968 231.79 56.792 232.046 54.616C232.366 52.44 232.526 50.616 232.526 49.144C232.526 46.968 232.238 45.24 231.662 43.96C231.086 42.68 229.87 42.04 228.014 42.04ZM228.398 40.312C232.174 40.312 235.214 41.176 237.518 42.904C239.886 44.568 241.07 47.288 241.07 51.064C241.07 54.136 240.206 57.176 238.478 60.184C236.75 63.192 234.318 65.688 231.182 67.672C228.046 69.592 224.334 70.552 220.046 70.552C216.526 70.552 213.55 69.72 211.118 68.056C208.75 66.328 207.566 63.672 207.566 60.088C207.566 58.36 207.918 56.376 208.622 54.136C209.39 51.832 210.574 49.656 212.174 47.608C213.774 45.496 215.886 43.768 218.51 42.424C221.198 41.016 224.494 40.312 228.398 40.312ZM235.214 45.304L233.486 44.632C234.382 42.456 235.918 40.536 238.094 38.872C240.27 37.208 242.542 36.376 244.91 36.376C246.574 36.376 247.918 36.856 248.942 37.816C249.966 38.712 250.478 40.152 250.478 42.136C250.478 43.928 250.03 45.24 249.134 46.072C248.238 46.904 247.278 47.32 246.254 47.32C245.23 47.32 244.238 47 243.278 46.36C242.382 45.656 241.838 44.568 241.646 43.096C241.454 41.624 241.87 39.736 242.894 37.432L244.142 37.72C241.454 38.744 239.534 39.832 238.382 40.984C237.23 42.072 236.174 43.512 235.214 45.304Z" fill="black"/>
<path d="M187.945 57.784C185.641 64.184 183.433 69.592 181.321 74.008C179.209 78.424 177.097 81.976 174.985 84.664C172.937 87.352 170.825 89.304 168.649 90.52C166.537 91.736 164.329 92.344 162.025 92.344C159.209 92.344 157.161 91.704 155.881 90.424C154.601 89.144 153.961 87.416 153.961 85.24C153.961 83.064 154.409 80.6 155.305 77.848L164.617 49.816C165.257 47.896 165.481 46.424 165.289 45.4C165.097 44.376 164.361 43.864 163.081 43.864C161.865 43.864 160.649 44.536 159.433 45.88C158.281 47.224 157.033 49.816 155.689 53.656L154.441 57.208H152.617L155.017 50.2C155.977 47.512 157.097 45.464 158.377 44.056C159.721 42.648 161.097 41.688 162.505 41.176C163.977 40.6 165.353 40.312 166.633 40.312C169.449 40.312 171.305 40.984 172.201 42.328C173.161 43.608 173.513 45.272 173.257 47.32C173.065 49.368 172.585 51.512 171.817 53.752L162.697 81.208C160.905 86.584 161.609 89.272 164.809 89.272C166.345 89.272 167.977 88.6 169.705 87.256C171.433 85.848 173.193 83.864 174.985 81.304C176.777 78.68 178.537 75.576 180.265 71.992C182.057 68.344 183.753 64.312 185.353 59.896C187.017 55.416 188.521 50.616 189.865 45.496L187.945 57.784ZM187.657 82.84C187.209 84.568 186.985 86.008 186.985 87.16C187.049 88.248 187.721 88.792 189.001 88.792C190.409 88.792 191.689 88.056 192.841 86.584C194.057 85.048 195.273 82.52 196.489 79L197.737 75.448H199.561L197.161 82.456C196.265 85.144 195.145 87.192 193.801 88.6C192.521 90.008 191.145 90.968 189.673 91.48C188.265 92.056 186.889 92.344 185.545 92.344C184.521 92.344 183.561 92.12 182.665 91.672C181.769 91.224 181.097 90.584 180.649 89.752C180.137 88.664 179.945 87.288 180.073 85.624C180.265 83.96 180.713 81.72 181.417 78.904L190.825 41.656C192.425 41.592 193.961 41.464 195.433 41.272C196.969 41.08 198.345 40.76 199.561 40.312L187.657 82.84Z" fill="black"/>
<path d="M134.063 42.232C132.015 42.232 130.031 43.064 128.111 44.728C126.255 46.328 124.527 48.536 122.927 51.352C121.391 54.104 120.015 57.208 118.799 60.664C117.647 64.12 116.751 67.704 116.111 71.416C115.471 75.128 115.151 78.68 115.151 82.072C115.151 84.952 115.599 87.064 116.495 88.408C117.455 89.752 118.831 90.424 120.623 90.424C122.671 90.424 124.623 89.624 126.479 88.024C128.399 86.36 130.159 84.152 131.759 81.4C133.359 78.584 134.735 75.448 135.887 71.992C137.039 68.536 137.935 64.984 138.575 61.336C139.215 57.624 139.535 54.04 139.535 50.584C139.535 47.64 139.087 45.528 138.191 44.248C137.295 42.904 135.919 42.232 134.063 42.232ZM106.895 77.272C106.895 74.456 107.279 71.384 108.047 68.056C108.815 64.728 109.967 61.432 111.503 58.168C113.039 54.904 114.895 51.928 117.071 49.24C119.311 46.552 121.903 44.408 124.847 42.808C127.791 41.144 131.055 40.312 134.639 40.312C138.607 40.312 141.775 41.56 144.143 44.056C146.575 46.488 147.791 50.264 147.791 55.384C147.791 58.2 147.407 61.272 146.639 64.6C145.871 67.928 144.719 71.224 143.183 74.488C141.647 77.752 139.759 80.728 137.519 83.416C135.343 86.104 132.783 88.28 129.839 89.944C126.895 91.544 123.631 92.344 120.047 92.344C116.079 92.344 112.879 91.096 110.447 88.6C108.079 86.104 106.895 82.328 106.895 77.272Z" fill="black"/>
<path d="M62.8188 90.9999H54.4668L73.4748 26.9679C74.1148 24.7919 74.0188 23.1919 73.1868 22.1679C72.4188 21.1439 70.4668 20.6319 67.3308 20.6319L67.9068 18.6159C71.4268 18.5519 74.5948 18.1999 77.4108 17.5599C80.2268 16.8559 82.8188 15.8959 85.1868 14.6799L62.8188 90.9999ZM65.5068 76.7919C67.9388 70.0719 70.2428 64.3759 72.4188 59.7039C74.6588 55.0319 76.8668 51.2879 79.0428 48.4719C81.2188 45.5919 83.4588 43.5119 85.7628 42.2319C88.0668 40.9519 90.4668 40.3119 92.9628 40.3119C95.9708 40.3119 98.0188 41.0479 99.1068 42.5199C100.259 43.9279 100.771 45.7519 100.643 47.9919C100.515 50.2319 100.067 52.5039 99.2988 54.8079L89.9868 82.8399C89.4748 84.5039 89.2508 85.9119 89.3148 87.0639C89.3788 88.2159 90.1148 88.7919 91.5228 88.7919C92.7388 88.7919 93.9228 88.1199 95.0748 86.7759C96.2908 85.4319 97.5708 82.8399 98.9148 78.9999L100.163 75.4479H101.987L99.5868 82.4559C98.6908 85.1439 97.5708 87.1919 96.2268 88.5999C94.9468 90.0079 93.5708 90.9679 92.0988 91.4799C90.6908 92.0559 89.3148 92.3439 87.9708 92.3439C85.4108 92.3439 83.6188 91.7679 82.5948 90.6159C81.5708 89.4639 81.1228 87.8639 81.2508 85.8159C81.4428 83.7679 81.9548 81.4639 82.7868 78.9039L91.9068 51.4479C92.2268 50.4879 92.5148 49.3679 92.7708 48.0879C93.0268 46.8079 92.9628 45.7199 92.5788 44.8239C92.2588 43.8639 91.3308 43.3839 89.7948 43.3839C88.1948 43.3839 86.4668 44.1199 84.6108 45.5919C82.8188 46.9999 80.9628 49.0479 79.0428 51.7359C77.1228 54.4239 75.2348 57.6559 73.3788 61.4319C71.5228 65.2079 69.7308 69.4319 68.0028 74.1039C66.3388 78.7119 64.7708 83.7039 63.2988 89.0799L65.5068 76.7919Z" fill="black"/>
<path d="M60.9991 41.656L60.7111 43.576H30.8551L31.3351 41.656H60.9991ZM36.6151 82.84C36.0391 84.952 36.1671 86.488 36.9991 87.448C37.8951 88.344 39.0471 88.792 40.4551 88.792C41.8631 88.792 43.2711 88.184 44.6791 86.968C46.1511 85.752 47.5911 83.16 48.9991 79.192L50.3431 75.448H52.1671L50.1511 81.496C48.7431 85.656 46.9191 88.504 44.6791 90.04C42.5031 91.576 39.9431 92.344 36.9991 92.344C34.3751 92.344 32.3591 91.8 30.9511 90.712C29.6071 89.56 28.8071 87.96 28.5511 85.912C28.2951 83.864 28.5511 81.528 29.3191 78.904L44.1991 27.064C45.7351 27 47.2391 26.872 48.7111 26.68C50.2471 26.488 51.6231 26.168 52.8391 25.72L36.6151 82.84Z" fill="black"/>
</svg>
